<?xml version="1.0" encoding="utf-8"?>
<!-- Generator: Adobe Illustrator 27.5.0, SVG Export Plug-In . SVG Version: 6.00 Build 0)  -->
<svg version="1.1" xmlns="http://www.w3.org/2000/svg" xmlns:xlink="http://www.w3.org/1999/xlink" x="0px" y="0px"
	 viewBox="0 0 500 500" style="enable-background:new 0 0 500 500;" xml:space="preserve">
<g id="Background_Simple_1_">
	<g>
		<path style="fill:#92E3A9;" d="M205.166,59c113.645-29.476,151.084,48.5,197.959,124.25s95.72,170.149,14.844,229.417H81.031
			c0,0-49.2-12.485-50.031-78.759c-0.611-48.753,48.106-55.363,64.053-130.136C111,129,147.333,74,205.166,59z"/>
		<path style="opacity:0.7;fill:#FFFFFF;" d="M205.166,59c113.645-29.476,151.084,48.5,197.959,124.25s95.72,170.149,14.844,229.417
			H81.031c0,0-49.2-12.485-50.031-78.759c-0.611-48.753,48.106-55.363,64.053-130.136C111,129,147.333,74,205.166,59z"/>
	</g>
</g>
<g id="Graphics">
	<path style="fill:none;stroke:#263238;stroke-linecap:round;stroke-linejoin:round;stroke-miterlimit:10;" d="M413.311,295.934
		h-26.115c-0.693,0-1.255,0.561-1.255,1.255v7.999c0,0.693,0.562,1.255,1.255,1.255h1.703c-0.625,1.111-1.594,2.901-1.351,2.901
		c0.271,0,2.997-1.975,4.262-2.901h21.501c0.692,0,1.255-0.562,1.255-1.255v-7.999C414.566,296.495,414.004,295.934,413.311,295.934
		z"/>
	<path style="fill:none;stroke:#263238;stroke-linecap:round;stroke-linejoin:round;stroke-miterlimit:10;" d="M406.589,311.15
		h26.114c0.693,0,1.255,0.562,1.255,1.255v7.999c0,0.693-0.562,1.255-1.255,1.255H431c0.625,1.111,1.594,2.901,1.351,2.901
		c-0.271,0-2.997-1.975-4.262-2.901h-21.5c-0.693,0-1.256-0.562-1.256-1.255v-7.999C405.333,311.712,405.895,311.15,406.589,311.15z
		"/>
	<path style="fill:none;stroke:#263238;stroke-linecap:round;stroke-linejoin:round;stroke-miterlimit:10;" d="M406.589,279.492
		h26.114c0.693,0,1.255,0.562,1.255,1.255v7.999c0,0.693-0.562,1.255-1.255,1.255H431c0.625,1.111,1.594,2.901,1.351,2.901
		c-0.271,0-2.997-1.975-4.262-2.901h-21.5c-0.693,0-1.256-0.561-1.256-1.255v-7.999
		C405.333,280.054,405.895,279.492,406.589,279.492z"/>
	<path style="fill:none;stroke:#263238;stroke-linecap:round;stroke-linejoin:round;stroke-miterlimit:10;" d="M95.053,232.643
		c0.709-4.208-2.428-7.247-6.097-7.218c-3.575,0.028-6.733,5.953-6.733,5.953s-4.246-4.244-7.974-4.616
		c-3.874-0.386-7.144,3.68-5.394,8.989C71.384,243.42,83,248.443,83,248.443S93.625,241.125,95.053,232.643z"/>
	<path style="fill:none;stroke:#263238;stroke-linecap:round;stroke-linejoin:round;stroke-miterlimit:10;" d="M69.847,247.51
		c-0.517-2.202-2.673-3.044-4.46-2.278c-1.742,0.747-2.071,4.29-2.071,4.29s-2.946-1.204-4.844-0.621
		c-1.972,0.605-2.737,3.263-0.793,5.499c2.809,3.23,9.517,3.305,9.517,3.305S70.888,251.949,69.847,247.51z"/>
	<path style="fill:none;stroke:#263238;stroke-linecap:round;stroke-linejoin:round;stroke-miterlimit:10;" d="M76.256,252.461
		c-10.036,10.307-3.454,24.665,7.081,24.492c11.931-0.195,10.965-19.569,5.358-10.649c-5.607,8.92,8.441,24.016,15.805,15.311"/>
</g>
<g id="Bubble">
	<path style="fill:#FFFFFF;stroke:#263238;stroke-linecap:round;stroke-linejoin:round;stroke-miterlimit:10;" d="M307.953,158.71
		c0-24.191-26.059-43.801-58.205-43.801c-32.146,0-58.205,19.61-58.205,43.801c0,22.802,23.158,41.527,52.739,43.602l5.466,14.269
		l5.466-14.269C284.796,200.236,307.953,181.511,307.953,158.71z"/>
	<g>
		<path style="fill:#92E3A9;stroke:#263238;stroke-linecap:round;stroke-linejoin:round;stroke-miterlimit:10;" d="M253.858,151.939
			v-6.964l-3.819-0.302c-0.373-1.48-0.955-2.872-1.719-4.149l2.486-2.914l-4.924-4.925l-2.914,2.487
			c-1.277-0.764-2.67-1.347-4.15-1.718l-0.303-3.82h-6.964l-0.303,3.82c-1.48,0.371-2.872,0.954-4.148,1.718l-2.914-2.487
			l-4.926,4.925l2.487,2.914c-0.764,1.276-1.346,2.669-1.719,4.148l-3.819,0.303v6.964l3.819,0.303
			c0.372,1.479,0.955,2.872,1.719,4.148l-2.487,2.915l4.926,4.924l2.914-2.486c1.276,0.764,2.669,1.346,4.148,1.718l0.303,3.819
			h6.964l0.303-3.819c1.48-0.372,2.872-0.955,4.15-1.718l2.914,2.486l4.924-4.924l-2.486-2.915c0.764-1.276,1.346-2.669,1.719-4.149
			L253.858,151.939z M235.034,155.159c-3.7,0-6.701-3-6.701-6.701s3.001-6.701,6.701-6.701c3.701,0,6.701,3,6.701,6.701
			S238.735,155.159,235.034,155.159z"/>
		<g>
			<defs>
				<path id="XMLID_3_" d="M283.284,160.489v-5.386l-2.955-0.233c-0.287-1.145-0.736-2.221-1.328-3.208l1.924-2.253l-3.809-3.809
					l-2.254,1.923c-0.988-0.59-2.063-1.041-3.207-1.329l-0.236-2.954h-5.385l-0.232,2.954c-1.146,0.288-2.223,0.738-3.209,1.329
					l-2.254-1.923l-3.809,3.809l1.924,2.253c-0.592,0.987-1.043,2.063-1.33,3.208l-2.953,0.233v5.386l2.953,0.234
					c0.287,1.144,0.738,2.222,1.33,3.208l-1.924,2.253l3.809,3.809l2.254-1.923c0.986,0.591,2.063,1.042,3.209,1.329l0.232,2.954
					h5.385l0.236-2.954c1.145-0.287,2.219-0.737,3.207-1.329l2.254,1.923l3.809-3.809l-1.924-2.253
					c0.592-0.988,1.041-2.064,1.328-3.209L283.284,160.489z M268.727,162.98c-2.863,0-5.182-2.32-5.182-5.183
					c0-2.862,2.318-5.182,5.182-5.182c2.861,0,5.182,2.319,5.182,5.182C273.909,160.659,271.589,162.98,268.727,162.98z"/>
			</defs>
			<use xlink:href="#XMLID_3_"  style="overflow:visible;fill:#92E3A9;"/>
			<clipPath id="XMLID_00000109003916220331883040000013029631024661508017_">
				<use xlink:href="#XMLID_3_"  style="overflow:visible;"/>
			</clipPath>
			<path style="opacity:0.5;clip-path:url(#XMLID_00000109003916220331883040000013029631024661508017_);fill:#FFFFFF;" d="
				M283.284,160.489v-5.386l-2.955-0.233c-0.287-1.145-0.736-2.221-1.328-3.208l1.924-2.253l-3.809-3.809l-2.254,1.923
				c-0.988-0.59-2.063-1.041-3.207-1.329l-0.236-2.954h-5.385l-0.232,2.954c-1.146,0.288-2.223,0.738-3.209,1.329l-2.254-1.923
				l-3.809,3.809l1.924,2.253c-0.592,0.987-1.043,2.063-1.33,3.208l-2.953,0.233v5.386l2.953,0.234
				c0.287,1.144,0.738,2.222,1.33,3.208l-1.924,2.253l3.809,3.809l2.254-1.923c0.986,0.591,2.063,1.042,3.209,1.329l0.232,2.954
				h5.385l0.236-2.954c1.145-0.287,2.219-0.737,3.207-1.329l2.254,1.923l3.809-3.809l-1.924-2.253
				c0.592-0.988,1.041-2.064,1.328-3.209L283.284,160.489z M268.727,162.98c-2.863,0-5.182-2.32-5.182-5.183
				c0-2.862,2.318-5.182,5.182-5.182c2.861,0,5.182,2.319,5.182,5.182C273.909,160.659,271.589,162.98,268.727,162.98z"/>
			
				<use xlink:href="#XMLID_3_"  style="overflow:visible;fill:none;stroke:#263238;stroke-linecap:round;stroke-linejoin:round;stroke-miterlimit:10;"/>
		</g>
		<g>
			<defs>
				<path id="XMLID_2_" d="M257.899,179.254v-3.873l-2.121-0.167c-0.209-0.823-0.531-1.597-0.957-2.307l1.383-1.621l-2.738-2.738
					l-1.619,1.382c-0.711-0.424-1.484-0.749-2.307-0.956l-0.168-2.123h-3.873l-0.168,2.123c-0.822,0.207-1.597,0.531-2.308,0.956
					l-1.619-1.383l-2.738,2.738l1.382,1.62c-0.424,0.71-0.748,1.484-0.955,2.307l-2.123,0.168v3.873l2.123,0.168
					c0.207,0.822,0.531,1.597,0.955,2.306l-1.382,1.621l2.738,2.738l1.619-1.383c0.711,0.425,1.485,0.749,2.308,0.956l0.168,2.124
					h3.873l0.168-2.124c0.822-0.207,1.596-0.531,2.307-0.956l1.619,1.383l2.738-2.738l-1.383-1.621
					c0.426-0.71,0.75-1.484,0.957-2.307L257.899,179.254z M247.436,181.044c-2.058,0-3.727-1.667-3.727-3.726
					s1.669-3.726,3.727-3.726c2.058,0,3.726,1.667,3.726,3.726S249.493,181.044,247.436,181.044z"/>
			</defs>
			<use xlink:href="#XMLID_2_"  style="overflow:visible;fill:#92E3A9;"/>
			<clipPath id="XMLID_00000007416012626696307840000017484057962395136420_">
				<use xlink:href="#XMLID_2_"  style="overflow:visible;"/>
			</clipPath>
			<path style="opacity:0.7;clip-path:url(#XMLID_00000007416012626696307840000017484057962395136420_);fill:#FFFFFF;" d="
				M257.899,179.254v-3.873l-2.121-0.167c-0.209-0.823-0.531-1.597-0.957-2.307l1.383-1.621l-2.738-2.738l-1.619,1.382
				c-0.711-0.424-1.484-0.749-2.307-0.956l-0.168-2.123h-3.873l-0.168,2.123c-0.822,0.207-1.597,0.531-2.308,0.956l-1.619-1.383
				l-2.738,2.738l1.382,1.62c-0.424,0.71-0.748,1.484-0.955,2.307l-2.123,0.168v3.873l2.123,0.168
				c0.207,0.822,0.531,1.597,0.955,2.306l-1.382,1.621l2.738,2.738l1.619-1.383c0.711,0.425,1.485,0.749,2.308,0.956l0.168,2.124
				h3.873l0.168-2.124c0.822-0.207,1.596-0.531,2.307-0.956l1.619,1.383l2.738-2.738l-1.383-1.621
				c0.426-0.71,0.75-1.484,0.957-2.307L257.899,179.254z M247.436,181.044c-2.058,0-3.727-1.667-3.727-3.726
				s1.669-3.726,3.727-3.726c2.058,0,3.726,1.667,3.726,3.726S249.493,181.044,247.436,181.044z"/>
			
				<use xlink:href="#XMLID_2_"  style="overflow:visible;fill:none;stroke:#263238;stroke-linecap:round;stroke-linejoin:round;stroke-miterlimit:10;"/>
		</g>
	</g>
</g>
<g id="Character">
	<g>
		<path style="fill:#92E3A9;" d="M342.53,304.59l-7.1,5.41c-11.06-4.26-10.35-5.22-20.93-6.75c-5.48-0.79-16.83-0.46-26.37,0.04
			c-8.62,0.44-15.77,1.02-15.77,1.02s21.09-20.96,26.89-24.07c5.71-3.05,31.27-14.02,32.07-14.36c0.01,0,0.02-0.01,0.02-0.01
			S350.53,287.25,342.53,304.59z"/>
		<path style="opacity:0.2;" d="M342.53,304.59l-7.1,5.41c-11.06-4.26-10.35-5.22-20.93-6.75c-5.48-0.79-16.83-0.46-26.37,0.04
			c11.87-8.21,43.97-1.48,43.97-1.48s-4.97-6.33-5.36-19.16c-0.38-12.35,4.23-16.47,4.58-16.77c0.01,0,0.02-0.01,0.02-0.01
			S350.53,287.25,342.53,304.59z"/>
		<path style="fill:none;stroke:#263238;stroke-linecap:round;stroke-linejoin:round;stroke-miterlimit:10;" d="M272.359,304.314
			c0,0,21.095-20.965,26.891-24.069c5.796-3.105,32.092-14.375,32.092-14.375s19.184,21.381,11.189,38.72l-7.102,5.408"/>
		<g>
			<defs>
				<path id="XMLID_17_" d="M373.72,271.64l-32.22,29.25c-15.12-12.87-10.25-32.25-10.25-32.25l11.58-8.13l13.98-9.82
					c0,0,7.58,3.48,12.81,8.56C373.27,262.81,375.77,267.15,373.72,271.64z"/>
			</defs>
			<use xlink:href="#XMLID_17_"  style="overflow:visible;fill:#FFFFFF;"/>
			<clipPath id="XMLID_00000017514229551449031560000001202291490832489398_">
				<use xlink:href="#XMLID_17_"  style="overflow:visible;"/>
			</clipPath>
			<path style="opacity:0.2;clip-path:url(#XMLID_00000017514229551449031560000001202291490832489398_);fill:#92E3A9;" d="
				M369.62,259.25c-0.46,1.48-1.51,2.98-3.33,4.48c-10.42,8.63-18.94,2.1-23.46-3.22l13.98-9.82
				C356.81,250.69,364.39,254.17,369.62,259.25z"/>
			
				<use xlink:href="#XMLID_17_"  style="overflow:visible;fill:none;stroke:#263238;stroke-linecap:round;stroke-linejoin:round;stroke-miterlimit:10;"/>
		</g>
		<g>
			<defs>
				<path id="XMLID_19_" d="M360.72,268.38c0,0-5.3-1.2-9.18-8.7c-3.88-7.51-3.43-42.82-2.56-49.82c0.87-7,14.28-10.85,14.91-3.81
					c0.1,1.07,0.51,3.17,1.12,6c0.8,3.63,1.92,8.46,3.12,13.8c4.04,17.89,9.01,41.58,5.59,45.79"/>
			</defs>
			<use xlink:href="#XMLID_19_"  style="overflow:visible;fill:#FFFFFF;"/>
			<clipPath id="XMLID_00000147924780288715041980000003214071027022917810_">
				<use xlink:href="#XMLID_19_"  style="overflow:visible;"/>
			</clipPath>
			<path style="opacity:0.2;clip-path:url(#XMLID_00000147924780288715041980000003214071027022917810_);fill:#92E3A9;" d="
				M368.13,225.85C362.2,221.46,358,213.2,358,213.2l7.01-1.15C365.81,215.68,366.93,220.51,368.13,225.85z"/>
			
				<use xlink:href="#XMLID_19_"  style="overflow:visible;fill:none;stroke:#263238;stroke-linecap:round;stroke-linejoin:round;stroke-miterlimit:10;"/>
		</g>
		<g>
			<g>
				<g>
					<defs>
						<path id="XMLID_10_" d="M402.37,162.98c0,0-0.008,0.078-0.027,0.193c-0.519,5.669-7.461,4.596-16.613,6.178
							c-6.97,1.2-16.08,6.84-22.77,11.6c-5.27,3.74-9.03,6.93-9.03,6.93s-7.68-5.11-14.62-19.32c0,0,25.12-15.77,28.05-35.28
							c2.31-15.3,24.48-0.31,32.82,20.61C401.84,158.04,402.51,160.94,402.37,162.98z"/>
					</defs>
					<use xlink:href="#XMLID_10_"  style="overflow:visible;fill:#FFFFFF;"/>
					<clipPath id="XMLID_00000155844558491533714170000017148693645751862920_">
						<use xlink:href="#XMLID_10_"  style="overflow:visible;"/>
					</clipPath>
					<path style="opacity:0.15;clip-path:url(#XMLID_00000155844558491533714170000017148693645751862920_);" d="M402.343,163.173
						c-0.519,5.669-7.461,4.596-16.613,6.178c-6.97,1.2-16.08,6.84-22.77,11.6c-3.05-1.8-4.73-3.54-4.05-5.05
						c3.09-6.85,14.71-9.05,14.71-9.05s-0.99-4.49,0.82-6.66c1.81-2.18,8.47,2.17,17.97,5.55
						C400.936,168.779,402.176,164.163,402.343,163.173z"/>
					
						<use xlink:href="#XMLID_10_"  style="overflow:visible;fill:none;stroke:#263238;stroke-linecap:round;stroke-linejoin:round;stroke-miterlimit:10;"/>
				</g>
				<path style="fill:none;stroke:#263238;stroke-linecap:round;stroke-linejoin:round;stroke-miterlimit:10;" d="M376.2,145.951
					c6.146-2.325,8.521-6.505,9.704-5.563c1.185,0.942,5.453,4.046,4.761,5.858c-0.691,1.812-6.217,8.227-6.769,9.371"/>
				<path style="fill:none;stroke:#263238;stroke-linecap:round;stroke-linejoin:round;stroke-miterlimit:10;" d="M373.337,129.642
					c-3.311,0.31-2.867,9.022,5.24,19.729c8.108,10.707,16.119,15.604,19.674,14.378c3.555-1.226,1.086-5.888,1.086-5.888"/>
				<g>
					<defs>
						<path id="XMLID_8_" d="M365.46,181.02c0,0-15.43,11.65-18.7,11.54c-3.28-0.1-7.76-0.19-12.07-5.94
							c-3.33-4.45-2.84-8.29-1.88-11c0.27-0.8,0.59-1.49,0.86-2.08c0.67-1.46,13.43-14.31,13.43-14.31l3.17,0.84
							c0,0,2.06,11.53,14.62,19.53L365.46,181.02z"/>
					</defs>
					<use xlink:href="#XMLID_8_"  style="overflow:visible;fill:#92E3A9;"/>
					<clipPath id="XMLID_00000033357560254337160310000013015127240030252937_">
						<use xlink:href="#XMLID_8_"  style="overflow:visible;"/>
					</clipPath>
					<path style="opacity:0.2;clip-path:url(#XMLID_00000033357560254337160310000013015127240030252937_);" d="M365.46,181.02
						c0,0-15.43,11.65-18.7,11.54c-3.28-0.1-7.76-0.19-12.07-5.94c-3.33-4.45-2.84-8.29-1.88-11c0.8,3.13,2.34,7.62,4.81,9.4
						c3.95,2.86,20.38-6.33,20.38-6.33s-9.12-11.23-7.73-18.62c0,0,2.06,11.53,14.62,19.53L365.46,181.02z"/>
					
						<use xlink:href="#XMLID_8_"  style="overflow:visible;fill:none;stroke:#263238;stroke-linecap:round;stroke-linejoin:round;stroke-miterlimit:10;"/>
				</g>
				<path style="opacity:0.15;" d="M373.337,129.642c-3.311,0.31-2.867,9.022,5.24,19.729c8.108,10.707,16.119,15.604,19.674,14.378
					c3.555-1.226,1.086-5.888,1.086-5.888s-2.191-9.178-10.087-17.609C380,130.375,373.337,129.642,373.337,129.642z"/>
			</g>
			<path style="fill:#FFFFFF;stroke:#263238;stroke-linecap:round;stroke-linejoin:round;stroke-miterlimit:10;" d="
				M377.859,199.061C377.5,203.5,365.653,219.674,358,216.167"/>
			<g>
				<defs>
					<path id="XMLID_9_" d="M349.125,191.25c0,0,6.091,16.968,10.496,20.083c4.404,3.117,15.776-6.354,14.754-7.958
						c-1.023-1.605-12.021-11.815-13.756-20.125C360.619,183.25,355.438,183.972,349.125,191.25z"/>
				</defs>
				<use xlink:href="#XMLID_9_"  style="overflow:visible;fill:#92E3A9;"/>
				<clipPath id="XMLID_00000182489175310290156150000002423767912905081226_">
					<use xlink:href="#XMLID_9_"  style="overflow:visible;"/>
				</clipPath>
				<path style="opacity:0.2;clip-path:url(#XMLID_00000182489175310290156150000002423767912905081226_);" d="M349.125,191.25
					c0,0,6.091,16.968,10.496,20.083c4.404,3.117,15.776-6.354,14.754-7.958c-1.023-1.605-12.021-11.815-13.756-20.125
					C360.619,183.25,355.438,183.972,349.125,191.25z"/>
				
					<use xlink:href="#XMLID_9_"  style="overflow:visible;fill:none;stroke:#263238;stroke-linecap:round;stroke-linejoin:round;stroke-miterlimit:10;"/>
			</g>
			<g>
				<path style="fill:#FFFFFF;stroke:#263238;stroke-linecap:round;stroke-linejoin:round;stroke-miterlimit:10;" d="
					M377.609,200.477c1.038-3.5-1.497-2.552-1.09-5.84c0.408-3.288-1.706-3.279-2.375-6.674c-0.668-3.393-2.76-3.064-3.979-5.861
					c-1.22-2.797-4.276-1.678-7.236-0.314c-2.96,1.364-6.935,7.866-6.935,7.866c-0.586,4.182,2.914,3.313,2.914,3.313
					c-2.323,4.298,1.548,5.242,1.548,5.242c-0.205,4.619,2.586,4.046,2.586,4.046s-0.142,2.155,1.954,2.505
					C366.338,204.985,376.572,203.976,377.609,200.477z"/>
				<path style="fill:none;stroke:#263238;stroke-linecap:round;stroke-linejoin:round;stroke-miterlimit:10;" d="M358.908,192.966
					c0,0,5.654-5.97,7.385-6.646"/>
				<path style="fill:none;stroke:#263238;stroke-linecap:round;stroke-linejoin:round;stroke-miterlimit:10;" d="M360.456,198.208
					c0,0,3.414-3.818,9.077-5.742"/>
				<path style="fill:none;stroke:#263238;stroke-linecap:round;stroke-linejoin:round;stroke-miterlimit:10;" d="M363.042,202.254
					c0,0,7.501-3.697,8.603-4.039"/>
			</g>
			<path style="fill:#FFFFFF;stroke:#263238;stroke-linecap:round;stroke-linejoin:round;stroke-miterlimit:10;" d="
				M353.125,215.375c0,0-5.5-5.087-6.5-7.25s-2.928-11.464-1.553-13.964s5.42-6.661,6.049-8.661s4.125,2.384,0.129,10.375
				c0,0,4.779,5.789,3.996,12.125"/>
		</g>
		<path style="opacity:0.15;" d="M402.37,162.98c0,0-0.008,0.078-0.027,0.193C402.349,163.105,402.366,163.049,402.37,162.98z"/>
	</g>
	<g>
		<path style="fill:#92E3A9;" d="M349.85,363.4c0,0-2.2,0.89-5.37-3.07c-6.03-7.54-15.05-25.65-20.98-34.33
			c-2.54-3.72-9.56-7.38-17.15-10.45c-11.74-4.74-24.84-8.09-24.84-8.09s31.94-1.97,40.05,0.47c7.02,2.1,31.88,16.32,38.97,20.41
			c1.21,0.7,1.9,1.1,1.9,1.1S363.5,344.5,349.85,363.4z"/>
		<path style="opacity:0.2;" d="M349.85,363.4c0,0-2.2,0.89-5.37-3.07c-6.03-7.54-15.05-25.65-20.98-34.33
			c-2.54-3.72-9.56-7.38-17.15-10.45c28.97,6.62,39.24,35.7,39.24,35.7s1.54-16.51,14.94-22.91c1.21,0.7,1.9,1.1,1.9,1.1
			S363.5,344.5,349.85,363.4z"/>
		<path style="fill:none;stroke:#263238;stroke-linecap:round;stroke-linejoin:round;stroke-miterlimit:10;" d="M281.508,307.461
			c0,0,31.943-1.968,40.05,0.467c8.209,2.467,40.876,21.512,40.876,21.512s1.063,15.06-12.582,33.962"/>
		<g>
			<defs>
				<path id="XMLID_16_" d="M403.12,376.38c-1.65,1.12-4.81,1.11-8.82,0.37c-3.68-0.68-8.07-1.97-12.65-3.56
					c-15.35-5.32-32.82-13.96-32.82-13.96s0.05-20.52,12.11-28.47c0,0,15.64,10.71,25.71,13.36
					C395.09,346.35,403.12,376.38,403.12,376.38z"/>
			</defs>
			<use xlink:href="#XMLID_16_"  style="overflow:visible;fill:#FFFFFF;"/>
			<clipPath id="XMLID_00000121261403098161891830000004830370465287470271_">
				<use xlink:href="#XMLID_16_"  style="overflow:visible;"/>
			</clipPath>
			<path style="opacity:0.2;clip-path:url(#XMLID_00000121261403098161891830000004830370465287470271_);fill:#92E3A9;" d="
				M394.3,376.75c-3.68-0.68-8.07-1.97-12.65-3.56c-2.25-10.39,4.29-21.94,4.29-21.94C386.19,362.32,390.48,371.09,394.3,376.75z"/>
			
				<use xlink:href="#XMLID_16_"  style="overflow:visible;fill:none;stroke:#263238;stroke-linecap:round;stroke-linejoin:round;stroke-miterlimit:10;"/>
		</g>
		<path style="fill:#FFFFFF;stroke:#263238;stroke-linecap:round;stroke-linejoin:round;stroke-miterlimit:10;" d="M388.724,370.461
			c-0.905-2.141-1.595-4.814-2.077-8.088"/>
		<path style="fill:#FFFFFF;stroke:#263238;stroke-linecap:round;stroke-linejoin:round;stroke-miterlimit:10;" d="M388.729,335.802
			c4.436,0.699,8.521,10.257,11.271,13.662c0,0,7.832,3.65,9.166,7.094c1.334,3.443,6.676,17.233-3.916,20.067
			c-6.092,1.63-10.64,1.344-13.802-1.881"/>
		<g>
			<g>
				<defs>
					<path id="XMLID_4_" d="M389.73,322.21v0.32c-0.05,2.94-0.88,8.77-2.75,19.1c-1.75,9.66-2.08,10.41-3.25,10.9
						c-1.43,0.59-11.68,2.87-16.05,3.81c-0.36,0.07-0.68,0.14-0.95,0.2c-0.63,0.14-2.29-0.73-2.18-1.36
						c0.52-3.19,4.08-32.03,5.51-32.97c2.17-1.42,16.2-2.76,17.76-2.33C388.55,320.08,389.73,321.46,389.73,322.21z"/>
				</defs>
				<use xlink:href="#XMLID_4_"  style="overflow:visible;fill:#999999;"/>
				<clipPath id="XMLID_00000002366492365075390470000014282519926785302206_">
					<use xlink:href="#XMLID_4_"  style="overflow:visible;"/>
				</clipPath>
				<path style="opacity:0.2;clip-path:url(#XMLID_00000002366492365075390470000014282519926785302206_);" d="M389.73,322.53
					c-0.05,2.94-0.88,8.77-2.75,19.1c-1.75,9.66-2.08,10.41-3.25,10.9c-1.43,0.59-11.68,2.87-16.05,3.81
					c0.53-4.17,2.13-15.82,5.43-31.78L389.73,322.53z"/>
				
					<use xlink:href="#XMLID_4_"  style="overflow:visible;fill:none;stroke:#263238;stroke-linecap:round;stroke-linejoin:round;stroke-miterlimit:10;"/>
			</g>
			<path style="fill:none;stroke:#263238;stroke-linecap:round;stroke-linejoin:round;stroke-miterlimit:10;" d="M367.478,354.294
				c0,0,4.666-27.166,5.083-28.833s0.834-1.001,14.834-2.834"/>
		</g>
		<g>
			<path style="fill:#FFFFFF;stroke:#263238;stroke-linecap:round;stroke-linejoin:round;stroke-miterlimit:10;" d="
				M386.645,362.373c0,0-7.249,2.587-6.75-1.83c0,0-1.666-1.166-1.666-2.999c0-1.833,1.167-3.833,1.167-3.833
				s-2.751,4.749-5.084,1.999c-0.612-0.722,1.873-5.885,1.873-5.885s-2.29,1.385-3.373-1.198c-0.33-0.787,3.489-7.892,4.323-8.417
				c2.801-1.765,10.092-5.518,12.593-4.092c2.501,1.426,3.334,5.926,4.834,7.593s0.666,7.333,0,11.333"/>
			<path style="fill:#FFFFFF;stroke:#263238;stroke-linecap:round;stroke-linejoin:round;stroke-miterlimit:10;" d="
				M376.185,349.825c0,0,2.627-4.532,3.377-5.115c0.75-0.583,7.083-2.417,7.083-2.417"/>
			<path style="fill:#FFFFFF;stroke:#263238;stroke-linecap:round;stroke-linejoin:round;stroke-miterlimit:10;" d="
				M379.396,353.711c1.583-1.751,2.499-3.771,3.166-3.886c0.667-0.115,5.751-0.866,6.167-1.032"/>
			<path style="fill:#FFFFFF;stroke:#263238;stroke-linecap:round;stroke-linejoin:round;stroke-miterlimit:10;" d="
				M379.629,360.327c1.767-2.034,4.518-4.117,5.101-4.117s3.834-0.417,4-0.5"/>
			<path style="fill:#FFFFFF;stroke:#263238;stroke-linecap:round;stroke-linejoin:round;stroke-miterlimit:10;" d="M387.82,361.377
				c0,0-1.508,1.332-3.758,0.916"/>
		</g>
		<path style="fill:#FFFFFF;stroke:#263238;stroke-linecap:round;stroke-linejoin:round;stroke-miterlimit:10;" d="M386.645,362.373
			c0,0,6.605,5.506,9.605-0.996"/>
	</g>
	<g>
		<path style="fill:#92E3A9;" d="M225,303.85c0,0-2.92-0.08-7.15-0.19c-9.74-0.24-26.45-0.6-30.41-0.35
			c-7.32,0.47-14.44,3.85-14.44,3.85l-16.13-22c2.46-30.49,21.9-33.83,21.9-33.83S192.5,267,197.5,271.27
			C202.5,275.54,225,303.85,225,303.85z"/>
		<path style="opacity:0.2;" d="M217.85,303.66c-9.74-0.24-26.45-0.6-30.41-0.35c-7.32,0.47-14.44,3.85-14.44,3.85l-16.13-22
			c2.46-30.49,21.9-33.83,21.9-33.83s1.14,18.62-13.73,31.39c0,0,4.6,12.92,14.64,15.48C189.73,300.76,209.32,298.66,217.85,303.66z
			"/>
		<path style="fill:none;stroke:#263238;stroke-linecap:round;stroke-linejoin:round;stroke-miterlimit:10;" d="M225,303.851
			c0,0-22.5-28.311-27.5-32.581c-5-4.27-18.727-19.939-18.727-19.939s-19.44,3.337-21.908,33.825L173,307.158"/>
		<g>
			<defs>
				<path id="XMLID_11_" d="M177.49,255c0,0-0.35,16.36-18.16,25.16l-30.83-43.63c-2.17-11.8,21.5-16.2,21.5-16.2l0.01,0.02
					l11.16,14.07L177.49,255z"/>
			</defs>
			<use xlink:href="#XMLID_11_"  style="overflow:visible;fill:#FFFFFF;"/>
			<clipPath id="XMLID_00000037694774316488650950000008149899301732741525_">
				<use xlink:href="#XMLID_11_"  style="overflow:visible;"/>
			</clipPath>
			<path style="opacity:0.2;clip-path:url(#XMLID_00000037694774316488650950000008149899301732741525_);fill:#92E3A9;" d="
				M161.17,234.42c-10.41,8.23-21.96-0.65-21.96-0.65l10.8-13.42L161.17,234.42z"/>
			
				<use xlink:href="#XMLID_11_"  style="overflow:visible;fill:none;stroke:#263238;stroke-linecap:round;stroke-linejoin:round;stroke-miterlimit:10;"/>
		</g>
		<g>
			<defs>
				<path id="XMLID_7_" d="M128.5,236.53c-1.26-2.7,0-9.25,2.24-16.84c2.57-8.71,6.42-18.81,9.25-26.03
					c1.56-4.01,2.81-7.13,3.34-8.66c2.34-6.67,14.4,0.33,13.54,7.33c-0.87,7,1.65,31.67-3.94,38c-5.6,6.34-11.03,6.2-11.03,6.2"/>
			</defs>
			<use xlink:href="#XMLID_7_"  style="overflow:visible;fill:#FFFFFF;"/>
			<clipPath id="XMLID_00000033330987535932798060000018113691966420660404_">
				<use xlink:href="#XMLID_7_"  style="overflow:visible;"/>
			</clipPath>
			<path style="opacity:0.2;clip-path:url(#XMLID_00000033330987535932798060000018113691966420660404_);fill:#92E3A9;" d="
				M148.07,189.64c0,0-4.52,26.99-8.86,28.57c-1.82,0.66-5.18,1.14-8.47,1.48c2.57-8.71,6.42-18.81,9.25-26.03L148.07,189.64z"/>
			
				<use xlink:href="#XMLID_7_"  style="overflow:visible;fill:none;stroke:#263238;stroke-linecap:round;stroke-linejoin:round;stroke-miterlimit:10;"/>
		</g>
		<g>
			<path style="fill:#BFBFBF;stroke:#263238;stroke-miterlimit:10;" d="M138.21,205.164c-0.907,1.255-2.661,1.537-3.916,0.63
				L92.16,175.352c-1.255-0.907-1.538-2.661-0.631-3.916l41.216-57.043c0.907-1.255,2.66-1.538,3.916-0.631l42.135,30.443
				c1.255,0.907,1.538,2.661,0.63,3.916L138.21,205.164z"/>
			
				<rect x="153.358" y="117.195" transform="matrix(0.5857 -0.8106 0.8106 0.5857 -41.1076 180.993)" style="fill:#92E3A9;stroke:#263238;stroke-linecap:round;stroke-linejoin:round;stroke-miterlimit:10;" width="6.25" height="27.021"/>
			<g>
				<defs>
					
						<rect id="XMLID_1_" x="101.227" y="134.653" transform="matrix(0.5857 -0.8106 0.8106 0.5857 -73.3754 176.015)" width="68.5" height="50.25"/>
				</defs>
				<use xlink:href="#XMLID_1_"  style="overflow:visible;fill:#92E3A9;"/>
				<clipPath id="XMLID_00000132056802841888472260000015453380485484529583_">
					<use xlink:href="#XMLID_1_"  style="overflow:visible;"/>
				</clipPath>
				
					<rect x="101.227" y="134.653" transform="matrix(0.5857 -0.8106 0.8106 0.5857 -73.3754 176.015)" style="opacity:0.7;clip-path:url(#XMLID_00000132056802841888472260000015453380485484529583_);fill:#FFFFFF;" width="68.5" height="50.25"/>
				
					<use xlink:href="#XMLID_1_"  style="overflow:visible;fill:none;stroke:#263238;stroke-linecap:round;stroke-linejoin:round;stroke-miterlimit:10;"/>
			</g>
			<path style="fill:none;stroke:#263238;stroke-linecap:round;stroke-linejoin:round;stroke-miterlimit:10;" d="M164.767,136.354
				l-2.22,3.072c-0.345,0.479-1.001,0.584-1.48,0.238l-5.544-4.005c0.32-0.904,0.032-1.939-0.787-2.53
				c-0.818-0.591-1.892-0.54-2.649,0.047l-5.552-4.011c-0.47-0.34-0.585-1.002-0.238-1.48l2.219-3.071
				c0.34-0.471,1.01-0.578,1.48-0.238l14.534,10.5C165.007,135.22,165.107,135.884,164.767,136.354z"/>
		</g>
		<path style="fill:#FFFFFF;stroke:#263238;stroke-linecap:round;stroke-linejoin:round;stroke-miterlimit:10;" d="M152.997,196.111
			c0,0,6.36-3.959,7.75-5.895c1.39-1.936,5.036-10.707,4.157-13.421c-0.879-2.714-4.067-7.564-4.308-9.646
			c-0.241-2.082-4.501,1.564-2.083,10.165c0,0-5.784,4.784-6.21,11.154"/>
		<path style="fill:#FFFFFF;stroke:#263238;stroke-linecap:round;stroke-linejoin:round;stroke-miterlimit:10;" d="M149.61,159.235
			c0,7.553-6.123,13.676-13.677,13.676c-7.553,0-13.676-6.123-13.676-13.676c0-7.554,6.123-13.677,13.676-13.677
			C143.487,145.559,149.61,151.682,149.61,159.235z"/>
		<polyline style="fill:#FFFFFF;stroke:#263238;stroke-linecap:round;stroke-linejoin:round;stroke-miterlimit:10;" points="
			129.125,154.333 130.803,163.933 146.095,159.778 		"/>
	</g>
	<g>
		<path style="fill:#92E3A9;" d="M220.15,308.46c0,0-19.63,3.13-34.4,11.12c-3.03,1.63-5.85,3.48-8.26,5.54
			c-6.87,5.89-12.87,18.09-17.99,27.76c-4.38,8.24-7.69,11.52-7.69,11.52c-13.64-18.9-12.58-33.96-12.58-33.96s0.05-0.03,0.13-0.07
			c2.22-1.3,32.84-19.07,40.74-21.44C188.21,306.49,220.15,308.46,220.15,308.46z"/>
		<path style="opacity:0.2;" d="M185.75,319.58c-3.03,1.63-5.85,3.48-8.26,5.54c-6.87,5.89-12.87,18.09-17.99,27.76
			c-4.38,8.24-7.69,11.52-7.69,11.52c-13.64-18.9-12.58-33.96-12.58-33.96s0.05-0.03,0.13-0.07c1.05-0.47,8.12-2.82,17.51,15.2
			C156.87,345.57,163.36,324.38,185.75,319.58z"/>
		<path style="fill:#FFFFFF;stroke:#263238;stroke-linecap:round;stroke-linejoin:round;stroke-miterlimit:10;" d="M119.81,286.844
			c0,0-8.582-2.227-6.016,5.813c2.567,8.04,11.764,7.783,11.764,7.783"/>
		<path style="fill:none;stroke:#263238;stroke-linecap:round;stroke-linejoin:round;stroke-miterlimit:10;" d="M220.154,308.461
			c0,0-31.943-1.968-40.05,0.467c-8.209,2.467-40.876,21.512-40.876,21.512s-1.061,15.06,12.583,33.962"/>
		<g>
			<defs>
				<path id="XMLID_12_" d="M152.84,360.23c0,0-47.51,17.21-55.27,7.86c0,0,3.52-9.89,8.3-17.44c2.57-4.06,5.52-7.45,8.48-8.23
					c3.8-1.01,8.5-2.78,12.87-4.58c7.2-2.98,13.51-6.08,13.51-6.08C152.78,339.71,152.84,360.23,152.84,360.23z"/>
			</defs>
			<use xlink:href="#XMLID_12_"  style="overflow:visible;fill:#FFFFFF;"/>
			<clipPath id="XMLID_00000108290662921983280440000006201578126697147062_">
				<use xlink:href="#XMLID_12_"  style="overflow:visible;"/>
			</clipPath>
			<path style="opacity:0.2;clip-path:url(#XMLID_00000108290662921983280440000006201578126697147062_);fill:#92E3A9;" d="
				M127.22,337.84c-1.36,6.43-5.18,18.42-14.77,17.64c-3.72-0.3-5.68-2.22-6.58-4.83c2.57-4.06,5.52-7.45,8.48-8.23
				C118.15,341.41,122.85,339.64,127.22,337.84z"/>
			
				<use xlink:href="#XMLID_12_"  style="overflow:visible;fill:none;stroke:#263238;stroke-linecap:round;stroke-linejoin:round;stroke-miterlimit:10;"/>
		</g>
		<g>
			<defs>
				<path id="XMLID_13_" d="M101.22,370.15c-11.18,0.5-11.89-25.82-6.27-64.91c0,0,8.62-17.11,12.6-17.34
					c1.07-0.06,2.55-0.09,4.13-0.09c4.29-0.03,9.37,0.09,9.37,0.09s2.3,9.91,2.32,13.28c0.03,5.05-2.19,5.62-2.19,5.62
					c0.12,4.76-3.73,5.24-7.86,4.59c0,0-0.07,0.24-0.29,0.6c-0.55,0.92-2.04,2.63-5.64,3.09c-0.06,15.25,14.75,38.34,6.91,43.38"/>
			</defs>
			<use xlink:href="#XMLID_13_"  style="overflow:visible;fill:#FFFFFF;"/>
			<clipPath id="XMLID_00000164508307035584026340000017157828925532899249_">
				<use xlink:href="#XMLID_13_"  style="overflow:visible;"/>
			</clipPath>
			<path style="opacity:0.2;clip-path:url(#XMLID_00000164508307035584026340000017157828925532899249_);fill:#92E3A9;" d="
				M123.37,301.18c0.03,5.05-2.19,5.62-2.19,5.62c0.12,4.76-3.73,5.24-7.86,4.59c0,0-0.07,0.24-0.29,0.6l1.27-3.83
				c0,0,1.33,0.56,2.13,0.17c2.5-1.23,1.19-5.54,1.19-5.54s1.42-0.38,1.82-2.35c0.39-1.97-3.97-3.3-3.97-3.3
				c1.37-2.29-1.68-4.48-1.68-4.48c1.09-1.64-0.33-3.44-2.11-4.85c4.29-0.03,9.37,0.09,9.37,0.09S123.35,297.81,123.37,301.18z"/>
			
				<use xlink:href="#XMLID_13_"  style="overflow:visible;fill:none;stroke:#263238;stroke-linecap:round;stroke-linejoin:round;stroke-miterlimit:10;"/>
		</g>
		<path style="fill:none;stroke:#263238;stroke-linecap:round;stroke-linejoin:round;stroke-miterlimit:10;" d="M121.101,299.718
			c-1.381-2.538-2.712-1.072-9.347-2.675c0,0,4.289,0.427,7.564-0.361"/>
		<path style="fill:none;stroke:#263238;stroke-linecap:round;stroke-linejoin:round;stroke-miterlimit:10;" d="M110.984,292.107
			c0.898,0.402,4.805,0.11,6.635,0"/>
		<path style="fill:none;stroke:#263238;stroke-linecap:round;stroke-linejoin:round;stroke-miterlimit:10;" d="M113.315,302.834
			c-0.023-0.19,5.59,0.276,6.503,0.94c0.913,0.664,1.484,3.136,1.484,3.136"/>
		<path style="fill:none;stroke:#263238;stroke-linecap:round;stroke-linejoin:round;stroke-miterlimit:10;" d="M117.619,308.158
			c-0.419,0.385-3.317,0-3.317,0s-0.189,1.939-0.986,3.236"/>
		<g>
			<g>
				<defs>
					<path id="XMLID_5_" d="M148.07,283.66c0,8.2-3.35,15.34-8.29,19.09h-15.85c-4.95-3.75-8.3-10.89-8.3-19.09
						c0-0.34,0.03-0.67,0.04-1.01h32.36C148.05,282.99,148.07,283.32,148.07,283.66z"/>
				</defs>
				<use xlink:href="#XMLID_5_"  style="overflow:visible;fill:#757575;"/>
				<clipPath id="XMLID_00000143611369236125769860000003729865526542950538_">
					<use xlink:href="#XMLID_5_"  style="overflow:visible;"/>
				</clipPath>
				<path style="opacity:0.2;clip-path:url(#XMLID_00000143611369236125769860000003729865526542950538_);" d="M135.93,301.81
					l-0.07,0.94h-11.93c-4.95-3.75-8.3-10.89-8.3-19.09c0-0.34,0.03-0.67,0.04-1.01h3.52C121.62,288.63,126.96,298.87,135.93,301.81
					z"/>
				
					<use xlink:href="#XMLID_5_"  style="overflow:visible;fill:none;stroke:#263238;stroke-linecap:round;stroke-linejoin:round;stroke-miterlimit:10;"/>
			</g>
			<polygon style="fill:#757575;stroke:#263238;stroke-linecap:round;stroke-linejoin:round;stroke-miterlimit:10;" points="
				141.04,301.808 122.665,301.808 121.81,304.27 141.895,304.27 			"/>
			<g>
				<defs>
					<polyline id="XMLID_6_" points="141.895,304.27 141.04,301.808 122.665,301.808 121.81,304.27 					"/>
				</defs>
				<use xlink:href="#XMLID_6_"  style="overflow:visible;opacity:0.2;"/>
				<clipPath id="XMLID_00000028319388570386761960000003227731796479504775_">
					<use xlink:href="#XMLID_6_"  style="overflow:visible;opacity:0.2;"/>
				</clipPath>
				
					<line style="opacity:0.2;clip-path:url(#XMLID_00000028319388570386761960000003227731796479504775_);" x1="121.81" y1="304.27" x2="141.895" y2="304.27"/>
			</g>
		</g>
		<path style="fill:none;stroke:#263238;stroke-linecap:round;stroke-linejoin:round;stroke-miterlimit:10;" d="M126.648,262.707
			c-2.787,4.798,4.688,9.307,0.982,15.874"/>
		<path style="fill:none;stroke:#263238;stroke-linecap:round;stroke-linejoin:round;stroke-miterlimit:10;" d="M131.441,262.707
			c-2.788,4.799,4.688,9.307,0.982,15.874"/>
		<path style="fill:none;stroke:#263238;stroke-linecap:round;stroke-linejoin:round;stroke-miterlimit:10;" d="M136.571,262.707
			c-2.787,4.799,4.689,9.307,0.982,15.874"/>
	</g>
	<g>
		<path style="fill:#92E3A9;stroke:#263238;stroke-linecap:round;stroke-linejoin:round;stroke-miterlimit:10;" d="M324.298,333.116
			c-7.107-12.122-36.517-22.679-69.184-23.981c-0.087-0.003-0.175-0.009-0.262-0.012c-1.068-0.042-2.141-0.073-3.216-0.094
			l-0.004-0.032c-0.545,0-1.088,0.01-1.633,0.016c-0.544-0.006-1.088-0.016-1.633-0.016l-0.004,0.032
			c-1.075,0.021-2.146,0.052-3.216,0.094c-0.092,0.003-0.184,0.01-0.276,0.013c-32.662,1.306-62.063,11.859-69.169,23.98
			c-7.594,12.953-18.837,33.791-18.837,33.791c6.303,10.204,30.502,11.568,30.502,11.568l1.288,27.445h53.278h16.133h53.278
			l1.288-27.445c0,0,24.199-1.364,30.502-11.568C343.135,366.907,331.892,346.069,324.298,333.116z"/>
		<g>
			<g>
				<defs>
					<path id="XMLID_14_" d="M213.94,396.03c0,0-56.55,9.49-60.62,1.74c-0.41-0.78-0.68-1.71-0.82-2.76
						c-1.33-9.35,6.78-27.79,6.78-27.79c6.29-0.6,12.89,1.03,18.17,2.96c0.01,0.01,0.01,0.01,0.01,0c6.14,2.26,10.5,4.95,10.54,5.07
						l-0.42,0.92l-0.14,0.29l13.21,0.42l11.82,0.38l0.27,0.01v0.02L213.94,396.03z"/>
				</defs>
				<use xlink:href="#XMLID_14_"  style="overflow:visible;fill:#FFFFFF;"/>
				<clipPath id="XMLID_00000132806675298060091230000012687168494576198533_">
					<use xlink:href="#XMLID_14_"  style="overflow:visible;"/>
				</clipPath>
				<g style="clip-path:url(#XMLID_00000132806675298060091230000012687168494576198533_);">
					<path style="opacity:0.2;fill:#92E3A9;" d="M187.58,376.17c-12.94,0.25-17.85,2.03-17.85,2.03s3.27-5.15,7.72-8.02
						c0.01,0.01,0.01,0.01,0.01,0c6.14,2.26,10.5,4.95,10.54,5.07L187.58,376.17z"/>
					<path style="opacity:0.2;fill:#92E3A9;" d="M213.94,396.03c0,0-56.55,9.49-60.62,1.74c-0.41-0.78-0.68-1.71-0.82-2.76
						c1.45,0.55,2.93,0.91,4.37,0.96c7.4,0.26,44.72-4.35,44.72-4.35l-0.94-14.74l-0.03-0.48c3.58,0.18,7.52,0.45,11.85,0.86
						c0.09,0.01,0.18,0.02,0.27,0.03L213.94,396.03z"/>
				</g>
				
					<use xlink:href="#XMLID_14_"  style="overflow:visible;fill:none;stroke:#263238;stroke-linecap:round;stroke-linejoin:round;stroke-miterlimit:10;"/>
			</g>
			<path style="fill:none;stroke:#263238;stroke-linecap:round;stroke-linejoin:round;stroke-miterlimit:10;" d="M187.438,376.456
				c0,0-13.357-0.353-19.05,2.257"/>
		</g>
		<path style="fill:none;stroke:#263238;stroke-linecap:round;stroke-linejoin:round;stroke-miterlimit:10;" d="M307.646,372.667
			c0,0-5.237-24.213,4.916-35.935"/>
		<path style="fill:none;stroke:#263238;stroke-linecap:round;stroke-linejoin:round;stroke-miterlimit:10;" d="M316.545,348.793
			c0,0-6.877,4.982-8.125,13.082"/>
		<path style="fill:none;stroke:#263238;stroke-linecap:round;stroke-linejoin:round;stroke-miterlimit:10;" d="M187.438,333.908
			c0,0,9.269,18.093,3.915,40.093"/>
		<path style="fill:none;stroke:#263238;stroke-linecap:round;stroke-linejoin:round;stroke-miterlimit:10;" d="M180.713,342.293
			c0,0,7.327,4.462,10.64,11.418"/>
		<path style="fill:none;stroke:#263238;stroke-linecap:round;stroke-linejoin:round;stroke-miterlimit:10;" d="M272.359,312.001
			c0,0-10.837,27.666-43.098,12.666"/>
		<path style="fill:none;stroke:#263238;stroke-linecap:round;stroke-linejoin:round;stroke-miterlimit:10;" d="M322.621,330.76
			c0,0-6.989,4.073-10.139,13.073"/>
		<path style="fill:none;stroke:#263238;stroke-linecap:round;stroke-linejoin:round;stroke-miterlimit:10;" d="M177.38,330.76
			c0,0,5.52,2.907,8.653,9.907"/>
		<path style="fill:none;stroke:#263238;stroke-linecap:round;stroke-linejoin:round;stroke-miterlimit:10;" d="M225,311.096
			c0,0,3.593,14.738,24.213,15.071"/>
		<path style="fill:none;stroke:#263238;stroke-linecap:round;stroke-linejoin:round;stroke-miterlimit:10;" d="M292.167,326.167
			c0,0-38.334,37.445-65.501,38.806"/>
		<path style="fill:none;stroke:#263238;stroke-linecap:round;stroke-linejoin:round;stroke-miterlimit:10;" d="M205.166,332.5
			c0,0,5.309,11.919,14.988,16.293"/>
		<g>
			<g>
				<defs>
					<path id="XMLID_15_" d="M286.353,396.03c0,0,56.55,9.49,60.62,1.74c0.41-0.78,0.68-1.71,0.82-2.76
						c1.33-9.35-6.78-27.79-6.78-27.79c-6.29-0.6-12.89,1.03-18.17,2.96c-0.01,0.01-0.01,0.01-0.01,0
						c-6.14,2.26-10.5,4.95-10.54,5.07l0.42,0.92l0.14,0.29l-13.21,0.42l-11.82,0.38l-0.27,0.01v0.02L286.353,396.03z"/>
				</defs>
				<use xlink:href="#XMLID_15_"  style="overflow:visible;fill:#FFFFFF;"/>
				<clipPath id="XMLID_00000096026505220147409330000013751570787561163157_">
					<use xlink:href="#XMLID_15_"  style="overflow:visible;"/>
				</clipPath>
				<g style="clip-path:url(#XMLID_00000096026505220147409330000013751570787561163157_);">
					<path style="opacity:0.2;fill:#92E3A9;" d="M312.713,376.17c12.94,0.25,17.85,2.03,17.85,2.03s-3.27-5.15-7.72-8.02
						c-0.01,0.01-0.01,0.01-0.01,0c-6.14,2.26-10.5,4.95-10.54,5.07L312.713,376.17z"/>
					<path style="opacity:0.2;fill:#92E3A9;" d="M286.353,396.03c0,0,56.55,9.49,60.62,1.74c0.41-0.78,0.68-1.71,0.82-2.76
						c-1.45,0.55-2.93,0.91-4.37,0.96c-7.4,0.26-44.72-4.35-44.72-4.35l0.94-14.74l0.03-0.48c-3.58,0.18-7.52,0.45-11.85,0.86
						c-0.09,0.01-0.18,0.02-0.27,0.03L286.353,396.03z"/>
				</g>
				
					<use xlink:href="#XMLID_15_"  style="overflow:visible;fill:none;stroke:#263238;stroke-linecap:round;stroke-linejoin:round;stroke-miterlimit:10;"/>
			</g>
			<path style="fill:none;stroke:#263238;stroke-linecap:round;stroke-linejoin:round;stroke-miterlimit:10;" d="M312.855,376.456
				c0,0,13.357-0.353,19.05,2.257"/>
		</g>
	</g>
	<path style="fill:#FFFFFF;stroke:#263238;stroke-miterlimit:10;" d="M269.164,312.057c0,0-6.108,11.022-20.323,10.327
		c-11.635-0.584-19.58-9.404-19.58-9.404c4.18-3.389,4.801-11.588,4.509-16.973c-0.01-0.122-0.01-0.235-0.019-0.357
		c-0.019-0.349-0.047-0.696-0.075-1.035c-0.32-3.888-1.064-6.815-1.064-6.815l34.81,1.741c-1.496,4.16-2.155,7.644-2.287,10.515
		c-0.085,1.798,0.038,3.36,0.273,4.707c0.009,0.057,0.019,0.104,0.027,0.15C266.397,310.089,269.164,312.057,269.164,312.057z"/>
	<g>
		<path style="fill:#757575;stroke:#263238;stroke-linecap:round;stroke-linejoin:round;stroke-miterlimit:10;" d="M191.354,391.33
			v3.72c0,1.17,0.948,2.116,2.117,2.116h112.059c1.169,0,2.117-0.946,2.117-2.116v-3.72H191.354z"/>
		<g>
			<path style="fill:#BFBFBF;stroke:#263238;stroke-miterlimit:10;" d="M321.408,336.602l-14.44,53.918
				c-0.301,1.093-1.205,2.043-2.259,2.458c-0.377,0.15-0.763,0.235-1.158,0.235H195.449c-0.395,0-0.781-0.085-1.158-0.235
				c-1.054-0.415-1.958-1.365-2.259-2.458l-14.44-53.918c-0.405-1.487,0.48-2.693,1.968-2.693H319.44
				C320.928,333.908,321.814,335.114,321.408,336.602z"/>
			<path style="fill:#999999;stroke:#263238;stroke-linecap:round;stroke-linejoin:round;stroke-miterlimit:10;" d="
				M319.055,339.425l-14.346,53.553c-0.377,0.15-0.763,0.235-1.158,0.235H195.449c-0.395,0-0.781-0.085-1.158-0.235l-14.346-53.553
				c-0.404-1.487,0.48-2.692,1.968-2.692h135.174C318.575,336.732,319.46,337.938,319.055,339.425z"/>
		</g>
		<path style="fill:#BFBFBF;stroke:#263238;stroke-miterlimit:10;" d="M256.82,369.561c-3.198,0-5.791-1.917-5.791-4.28
			c0-0.545,0.144-1.065,0.395-1.544c-0.619-0.111-1.261-0.177-1.925-0.177c-4.484,0-8.119,2.688-8.119,6.001
			c0,3.315,3.635,6.001,8.119,6.001c4.484,0,8.119-2.686,8.119-6.001c0-0.016-0.003-0.029-0.003-0.045
			C257.355,369.543,257.092,369.561,256.82,369.561z"/>
	</g>
	<path style="fill:#263238;" d="M267.423,289.54c-1.496,4.16-2.155,7.644-2.287,10.515c-3.775,3.784-8.407,6.6-13.517,5.799
		c-7.39-1.168-13.537-6.627-17.942-11.239c-0.32-3.888-1.064-6.815-1.064-6.815L267.423,289.54z"/>
	<g>
		<g>
			<path style="fill:#FFFFFF;stroke:#263238;stroke-miterlimit:10;" d="M274.515,264.197c0,0,2.806-3.049,4.185-2.046
				c1.381,1.003,3.011,3.845,2.258,6.435c-0.751,2.592-4.013,7.105-4.264,9.738c-0.25,2.631-1.94,5.614-3.79,3.873
				C271.053,280.455,274.515,264.197,274.515,264.197z"/>
			<path style="fill:#FFFFFF;stroke:#263238;stroke-miterlimit:10;" d="M224.486,264.197c0,0-2.808-3.049-4.188-2.046
				c-1.379,1.003-3.008,3.845-2.257,6.435c0.753,2.592,4.012,7.105,4.263,9.738c0.251,2.631,1.94,5.614,3.792,3.873
				C227.946,280.455,224.486,264.197,224.486,264.197z"/>
		</g>
		<path style="fill:#FFFFFF;stroke:#263238;stroke-miterlimit:10;" d="M248.908,228.943c35.303,0,26.909,47.018,20.414,62.112
			c-2.28,5.302-14.104,12.259-19.822,12.259c-5.317,0-17.482-8.315-19.64-13.293C223.289,274.85,215.257,228.943,248.908,228.943z"
			/>
		<g>
			<path style="fill:none;stroke:#263238;stroke-linecap:round;stroke-linejoin:round;stroke-miterlimit:10;" d="M254.892,266.445
				c0,0,9.002-1.652,12.033,1.899"/>
			<path style="fill:#263238;" d="M261.697,273.234c0,1.085-0.55,1.963-1.23,1.963c-0.68,0-1.23-0.878-1.23-1.963
				c0-1.086,0.551-1.965,1.23-1.965C261.147,271.27,261.697,272.148,261.697,273.234z"/>
			<path style="fill:none;stroke:#263238;stroke-linecap:round;stroke-linejoin:round;stroke-miterlimit:10;" d="M244.109,266.445
				c0,0-8.298-0.731-12.036,1.899"/>
			<path style="fill:#263238;" d="M237.303,273.234c0,1.085,0.551,1.963,1.23,1.963c0.678,0,1.229-0.878,1.229-1.963
				c0-1.086-0.551-1.965-1.229-1.965C237.854,271.27,237.303,272.148,237.303,273.234z"/>
		</g>
		<path style="fill:#263238;" d="M263.52,240.964c0,0-12.662,4.764-27.204,0c0,0-4.765-0.278-6.645,2.117
			c-1.88,2.397,0,9.793,0.501,12.802c0.502,3.008-4.137,5.098-3.511,12.703l-1.794,2.625c0,0-4.98-12.238-3.726-22.77
			c1.253-10.529,7.903-14.623,7.903-14.623s3.029-9.094,20.794-9.025c19.147,0.073,21.08,10.436,21.08,10.436
			s12.98,8.656,3.378,36.865l-2.084-3.508c0,0,1.012-5.683-2.424-10.697c-1.672-2.441,1.002-9.779,0.375-13.541
			C269.536,240.588,263.52,240.964,263.52,240.964z"/>
		<path style="fill:none;stroke:#263238;stroke-linecap:round;stroke-linejoin:round;stroke-miterlimit:10;" d="M251.6,271.27
			c0,0,0.532,8.031,2.087,11.084c1.554,3.052-3.887,3.568-6.217,1.756"/>
		<path style="fill:none;stroke:#263238;stroke-linecap:round;stroke-linejoin:round;stroke-miterlimit:10;" d="M242.713,290.549
			c0,1.226,4.04,2.764,8.002,2.764c3.991,0,6.943-1.666,6.354-2.277"/>
		<path style="fill:#263238;" d="M274.092,246.11c0,0-5.179,7.044-16.944,11.907v-3.355c0,0-10.632,6.135-20.209,5.198l2.167-4.359
			c0,0-8.071,8.553-14.905,8.217c-6.833-0.334-8.815-38.926,25.637-38.926C277.836,224.792,274.092,246.11,274.092,246.11z"/>
		<path style="fill:#263238;" d="M268.287,248.443c0,0-1.839,10.209,7.788,17.684c0,0,5.705-6.134,3.508-17.684
			c-2.197-11.552-7.225-11.91-7.225-11.91L268.287,248.443z"/>
		<path style="opacity:0.2;fill:none;stroke:#FFFFFF;stroke-miterlimit:10;" d="M264,232.5c0,0-3.588,15.25-16.794,23"/>
		<path style="opacity:0.2;fill:none;stroke:#FFFFFF;stroke-miterlimit:10;" d="M255.604,232.5c0,0-5.854,15-27.604,17.5"/>
		<path style="opacity:0.2;fill:none;stroke:#FFFFFF;stroke-miterlimit:10;" d="M269.164,238.11c0,0,0.086,7.89-5.164,11.89"/>
	</g>
	
		<line style="fill:#FFFFFF;stroke:#263238;stroke-linecap:round;stroke-linejoin:round;stroke-miterlimit:10;" x1="395.403" y1="120.26" x2="405.333" y2="101"/>
	
		<line style="fill:#FFFFFF;stroke:#263238;stroke-linecap:round;stroke-linejoin:round;stroke-miterlimit:10;" x1="405.333" y1="130.706" x2="427.666" y2="117.301"/>
	
		<line style="fill:#FFFFFF;stroke:#263238;stroke-linecap:round;stroke-linejoin:round;stroke-miterlimit:10;" x1="414.566" y1="146.787" x2="433.958" y2="145.559"/>
</g>
<g id="Table">
	<g>
		<path style="fill:#FFFFFF;stroke:#263238;stroke-miterlimit:10;" d="M96.5,412.667H81.031v-13.289c0-1.222,0.99-2.212,2.212-2.212
			h332.514c1.222,0,2.212,0.99,2.212,2.212v13.289"/>
		<line style="fill:none;stroke:#263238;stroke-miterlimit:10;" x1="400" y1="412.667" x2="261.697" y2="412.667"/>
		<line style="fill:none;stroke:#263238;stroke-miterlimit:10;" x1="251.794" y1="412.667" x2="241.855" y2="412.667"/>
		<line style="fill:none;stroke:#263238;stroke-miterlimit:10;" x1="177.493" y1="412.667" x2="104.5" y2="412.667"/>
	</g>
</g>
</svg>
