<svg width="27" height="28" viewBox="0 0 27 28" fill="none" xmlns="http://www.w3.org/2000/svg">
<path d="M14.5 0.5C13.8125 0.5 13.25 1.0625 13.25 1.75V12.6997C14.9625 11.3247 17.1375 10.5 19.5 10.5C20.825 10.5 22.0875 10.7626 23.25 11.2251V9.25C23.25 8.56 22.69 8 22 8H18.25C17.56 8 17 7.44 17 6.75C17 6.06 17.56 5.5 18.25 5.5H22C22.69 5.5 23.25 4.94 23.25 4.25V1.75C23.25 1.0625 22.6875 0.5 22 0.5H14.5ZM2 4.25C1.3125 4.25 0.75 4.8125 0.75 5.5V23C0.75 23.6875 1.3125 24.25 2 24.25H9.5C9.7375 24.25 9.97412 24.1745 10.1616 24.062C9.73662 22.962 9.5 21.75 9.5 20.5C9.5 20.075 9.52568 19.6625 9.57568 19.25H7C6.31 19.25 5.75 18.69 5.75 18C5.75 17.31 6.31 16.75 7 16.75H10.2251C10.3751 16.375 10.55 16.0133 10.75 15.6758V13C10.75 12.31 10.19 11.75 9.5 11.75H7C6.31 11.75 5.75 11.19 5.75 10.5C5.75 9.81 6.31 9.25 7 9.25H9.5C10.19 9.25 10.75 8.69 10.75 8V5.5C10.75 4.8125 10.1875 4.25 9.5 4.25H2ZM19.5 13C15.3727 13 12 16.3727 12 20.5C12 24.6273 15.3727 28 19.5 28C23.6273 28 27 24.6273 27 20.5C27 18.9154 26.5009 17.4439 25.6548 16.23C25.5792 16.06 25.4666 15.909 25.3252 15.7881C23.9476 14.0897 21.8459 13 19.5 13ZM19.5 15.5C20.7561 15.5 21.8842 15.9724 22.7593 16.728L19.5049 19.9922L19.1411 19.6211C18.908 19.3848 18.5906 19.2507 18.2586 19.2484C17.9267 19.2461 17.6074 19.3758 17.3711 19.6089C17.1348 19.842 17.0007 20.1594 16.9984 20.4914C16.9961 20.8233 17.1258 21.1426 17.3589 21.3789L18.6089 22.646C18.7248 22.7638 18.863 22.8575 19.0153 22.9216C19.1677 22.9856 19.3312 23.0189 19.4965 23.0193C19.6618 23.0198 19.8256 22.9874 19.9783 22.9242C20.131 22.861 20.2697 22.7681 20.3862 22.6509L24.1948 18.8276C24.3801 19.3523 24.5 19.9092 24.5 20.5C24.5 23.2762 22.2762 25.5 19.5 25.5C16.7238 25.5 14.5 23.2762 14.5 20.5C14.5 17.7238 16.7238 15.5 19.5 15.5Z" fill="#374151"/>
</svg>
