<svg width="30" height="30" viewBox="0 0 30 30" fill="none" xmlns="http://www.w3.org/2000/svg">
<path d="M17.5 2.5C16.8125 2.5 16.25 3.0625 16.25 3.75V14.6997C17.9625 13.3247 20.1375 12.5 22.5 12.5C23.825 12.5 25.0875 12.7626 26.25 13.2251V11.25C26.25 10.56 25.69 10 25 10H21.25C20.56 10 20 9.44 20 8.75C20 8.06 20.56 7.5 21.25 7.5H25C25.69 7.5 26.25 6.94 26.25 6.25V3.75C26.25 3.0625 25.6875 2.5 25 2.5H17.5ZM5 6.25C4.3125 6.25 3.75 6.8125 3.75 7.5V25C3.75 25.6875 4.3125 26.25 5 26.25H12.5C12.7375 26.25 12.9741 26.1745 13.1616 26.062C12.7366 24.962 12.5 23.75 12.5 22.5C12.5 22.075 12.5257 21.6625 12.5757 21.25H10C9.31 21.25 8.75 20.69 8.75 20C8.75 19.31 9.31 18.75 10 18.75H13.2251C13.3751 18.375 13.55 18.0133 13.75 17.6758V15C13.75 14.31 13.19 13.75 12.5 13.75H10C9.31 13.75 8.75 13.19 8.75 12.5C8.75 11.81 9.31 11.25 10 11.25H12.5C13.19 11.25 13.75 10.69 13.75 10V7.5C13.75 6.8125 13.1875 6.25 12.5 6.25H5ZM22.5 15C18.3727 15 15 18.3727 15 22.5C15 26.6273 18.3727 30 22.5 30C26.6273 30 30 26.6273 30 22.5C30 20.9154 29.5009 19.4439 28.6548 18.23C28.5792 18.06 28.4666 17.909 28.3252 17.7881C26.9476 16.0897 24.8459 15 22.5 15ZM22.5 17.5C23.7561 17.5 24.8842 17.9724 25.7593 18.728L22.5049 21.9922L22.1411 21.6211C21.908 21.3848 21.5906 21.2507 21.2586 21.2484C20.9267 21.2461 20.6074 21.3758 20.3711 21.6089C20.1348 21.842 20.0007 22.1594 19.9984 22.4914C19.9961 22.8233 20.1258 23.1426 20.3589 23.3789L21.6089 24.646C21.7248 24.7638 21.863 24.8575 22.0153 24.9216C22.1677 24.9856 22.3312 25.0189 22.4965 25.0193C22.6618 25.0198 22.8256 24.9874 22.9783 24.9242C23.131 24.861 23.2697 24.7681 23.3862 24.6509L27.1948 20.8276C27.3801 21.3523 27.5 21.9092 27.5 22.5C27.5 25.2762 25.2762 27.5 22.5 27.5C19.7238 27.5 17.5 25.2762 17.5 22.5C17.5 19.7238 19.7238 17.5 22.5 17.5Z" fill="#0E9F6E"/>
</svg>
