<svg width="26" height="25" viewBox="0 0 26 25" fill="none" xmlns="http://www.w3.org/2000/svg">
<path d="M9.25 0.75C4.4175 0.75 0.5 4.1075 0.5 8.25C0.5 9.65875 0.96125 10.9714 1.75 12.0977V18.25L5.86133 15.1665C6.90383 15.5415 8.04875 15.75 9.25 15.75C14.0825 15.75 18 12.3925 18 8.25C18 4.1075 14.0825 0.75 9.25 0.75ZM20.4707 7.71777C20.4807 7.89527 20.5 8.07125 20.5 8.25C20.5 13.7638 15.4537 18.25 9.25 18.25C9.225 18.25 9.20051 18.2451 9.17676 18.2451C10.6893 20.4864 13.5112 22 16.75 22C17.9513 22 19.0962 21.7915 20.1387 21.4165L24.25 24.5V18.3477C25.0387 17.2214 25.5 15.9087 25.5 14.5C25.5 11.5 23.4407 8.91777 20.4707 7.71777Z" fill="#374151"/>
</svg>
