<svg width="30" height="30" viewBox="0 0 30 30" fill="none" xmlns="http://www.w3.org/2000/svg">
<path d="M11.25 3.75C6.4175 3.75 2.5 7.1075 2.5 11.25C2.5 12.6587 2.96125 13.9714 3.75 15.0977V21.25L7.86133 18.1665C8.90383 18.5415 10.0487 18.75 11.25 18.75C16.0825 18.75 20 15.3925 20 11.25C20 7.1075 16.0825 3.75 11.25 3.75ZM22.4707 10.7178C22.4807 10.8953 22.5 11.0712 22.5 11.25C22.5 16.7638 17.4537 21.25 11.25 21.25C11.225 21.25 11.2005 21.2451 11.1768 21.2451C12.6893 23.4864 15.5112 25 18.75 25C19.9513 25 21.0962 24.7915 22.1387 24.4165L26.25 27.5V21.3477C27.0387 20.2214 27.5 18.9087 27.5 17.5C27.5 14.5 25.4407 11.9178 22.4707 10.7178Z" fill="#9061F9"/>
</svg>
