<svg width="302" height="253" viewBox="0 0 302 253" fill="none" xmlns="http://www.w3.org/2000/svg">
<path d="M121.92 4.46744C201.472 -16.1658 227.679 38.4174 260.491 91.4424C293.304 144.467 327.495 210.547 270.882 252.034H35.0257C35.0257 252.034 0.585687 243.295 0.00398703 196.903C-0.423713 162.776 33.6782 158.149 44.8411 105.808C56.004 53.4674 81.4371 14.9674 121.92 4.46744Z" fill="#92E3A9"/>
<path opacity="0.7" d="M121.92 4.46744C201.472 -16.1658 227.679 38.4174 260.491 91.4424C293.304 144.467 327.495 210.547 270.882 252.034H35.0257C35.0257 252.034 0.585687 243.295 0.00398703 196.903C-0.423713 162.776 33.6782 158.149 44.8411 105.808C56.004 53.4674 81.4371 14.9674 121.92 4.46744Z" fill="white"/>
<path d="M267.622 170.321H249.341C248.856 170.321 248.463 170.714 248.463 171.2V176.799C248.463 177.284 248.856 177.677 249.341 177.677H250.533C250.096 178.455 249.418 179.708 249.588 179.708C249.777 179.708 251.686 178.326 252.571 177.677H267.622C268.106 177.677 268.5 177.284 268.5 176.799V171.2C268.5 170.714 268.107 170.321 267.622 170.321Z" stroke="#263238" stroke-miterlimit="10" stroke-linecap="round" stroke-linejoin="round"/>
<path d="M262.916 180.972H281.196C281.681 180.972 282.075 181.366 282.075 181.851V187.45C282.075 187.935 281.681 188.329 281.196 188.329H280.004C280.442 189.106 281.12 190.359 280.95 190.359C280.76 190.359 278.852 188.977 277.966 188.329H262.916C262.431 188.329 262.037 187.935 262.037 187.45V181.851C262.037 181.366 262.43 180.972 262.916 180.972Z" stroke="#263238" stroke-miterlimit="10" stroke-linecap="round" stroke-linejoin="round"/>
<path d="M262.916 158.812H281.196C281.681 158.812 282.075 159.205 282.075 159.69V165.29C282.075 165.775 281.681 166.168 281.196 166.168H280.004C280.442 166.946 281.12 168.199 280.95 168.199C280.76 168.199 278.852 166.816 277.966 166.168H262.916C262.431 166.168 262.037 165.775 262.037 165.29V159.69C262.037 159.205 262.43 158.812 262.916 158.812Z" stroke="#263238" stroke-miterlimit="10" stroke-linecap="round" stroke-linejoin="round"/>
<path d="M44.8411 126.018C45.3374 123.072 43.1415 120.945 40.5732 120.965C38.0707 120.985 35.8601 125.132 35.8601 125.132C35.8601 125.132 32.8879 122.161 30.2783 121.901C27.5665 121.631 25.2775 124.477 26.5025 128.193C28.2728 133.561 36.404 137.078 36.404 137.078C36.404 137.078 43.8415 131.955 44.8411 126.018Z" stroke="#263238" stroke-miterlimit="10" stroke-linecap="round" stroke-linejoin="round"/>
<path d="M27.1969 136.424C26.835 134.883 25.3258 134.294 24.0749 134.83C22.8555 135.353 22.6252 137.833 22.6252 137.833C22.6252 137.833 20.563 136.99 19.2344 137.398C17.854 137.822 17.3185 139.682 18.6793 141.247C20.6456 143.508 25.3412 143.561 25.3412 143.561C25.3412 143.561 27.9256 139.532 27.1969 136.424Z" stroke="#263238" stroke-miterlimit="10" stroke-linecap="round" stroke-linejoin="round"/>
<path d="M31.6831 139.89C24.6579 147.105 29.2653 157.156 36.6398 157.035C44.9915 156.898 44.3153 143.336 40.3904 149.58C36.4655 155.824 46.2991 166.391 51.4539 160.298" stroke="#263238" stroke-miterlimit="10" stroke-linecap="round" stroke-linejoin="round"/>
<path d="M193.871 74.2644C193.871 57.3307 175.63 43.6037 153.128 43.6037C130.625 43.6037 112.384 57.3307 112.384 74.2644C112.384 90.2258 128.595 103.333 149.301 104.786L153.128 114.774L156.954 104.786C177.661 103.333 193.871 90.2251 193.871 74.2644Z" fill="white" stroke="#263238" stroke-miterlimit="10" stroke-linecap="round" stroke-linejoin="round"/>
<path d="M156.004 69.5247V64.6499L153.331 64.4385C153.07 63.4025 152.663 62.4281 152.128 61.5342L153.868 59.4944L150.421 56.0469L148.381 57.7878C147.488 57.253 146.512 56.8449 145.476 56.5852L145.264 53.9112H140.39L140.177 56.5852C139.141 56.8449 138.167 57.253 137.274 57.7878L135.234 56.0469L131.786 59.4944L133.527 61.5342C132.992 62.4274 132.585 63.4025 132.323 64.4378L129.65 64.6499V69.5247L132.323 69.7368C132.584 70.7721 132.992 71.7472 133.527 72.6404L131.786 74.6809L135.234 78.1277L137.274 76.3875C138.167 76.9223 139.142 77.3297 140.177 77.5901L140.39 80.2634H145.264L145.476 77.5901C146.512 77.3297 147.487 76.9216 148.381 76.3875L150.421 78.1277L153.868 74.6809L152.128 72.6404C152.663 71.7472 153.07 70.7721 153.331 69.7361L156.004 69.5247ZM142.828 71.7787C140.238 71.7787 138.137 69.6787 138.137 67.088C138.137 64.4973 140.238 62.3973 142.828 62.3973C145.418 62.3973 147.518 64.4973 147.518 67.088C147.518 69.6787 145.418 71.7787 142.828 71.7787Z" fill="#92E3A9" stroke="#263238" stroke-miterlimit="10" stroke-linecap="round" stroke-linejoin="round"/>
<path d="M176.603 75.5097V71.7395L174.534 71.5764C174.333 70.7749 174.019 70.0217 173.605 69.3308L174.951 67.7537L172.285 65.0874L170.707 66.4335C170.016 66.0205 169.263 65.7048 168.462 65.5032L168.297 63.4354H164.528L164.365 65.5032C163.563 65.7048 162.809 66.0198 162.119 66.4335L160.541 65.0874L157.875 67.7537L159.222 69.3308C158.807 70.0217 158.492 70.7749 158.291 71.5764L156.224 71.7395V75.5097L158.291 75.6735C158.492 76.4743 158.807 77.2289 159.222 77.9191L157.875 79.4962L160.541 82.1625L162.119 80.8164C162.809 81.2301 163.563 81.5458 164.365 81.7467L164.528 83.8145H168.297L168.462 81.7467C169.264 81.5458 170.016 81.2308 170.707 80.8164L172.285 82.1625L174.951 79.4962L173.605 77.9191C174.019 77.2275 174.333 76.4743 174.534 75.6728L176.603 75.5097ZM166.413 77.2534C164.409 77.2534 162.785 75.6294 162.785 73.6253C162.785 71.6219 164.408 69.9979 166.413 69.9979C168.416 69.9979 170.04 71.6212 170.04 73.6253C170.04 75.6287 168.416 77.2534 166.413 77.2534Z" fill="#92E3A9"/>
<mask id="mask0_262_339" style="mask-type:luminance" maskUnits="userSpaceOnUse" x="156" y="63" width="21" height="21">
<path d="M176.603 75.5097V71.7395L174.534 71.5764C174.333 70.7749 174.019 70.0217 173.605 69.3308L174.951 67.7537L172.285 65.0874L170.707 66.4335C170.016 66.0205 169.263 65.7048 168.462 65.5032L168.297 63.4354H164.528L164.365 65.5032C163.563 65.7048 162.809 66.0198 162.119 66.4335L160.541 65.0874L157.875 67.7537L159.222 69.3308C158.807 70.0217 158.492 70.7749 158.291 71.5764L156.224 71.7395V75.5097L158.291 75.6735C158.492 76.4743 158.807 77.2289 159.222 77.9191L157.875 79.4962L160.541 82.1625L162.119 80.8164C162.809 81.2301 163.563 81.5458 164.365 81.7467L164.528 83.8145H168.297L168.462 81.7467C169.264 81.5458 170.016 81.2308 170.707 80.8164L172.285 82.1625L174.951 79.4962L173.605 77.9191C174.019 77.2275 174.333 76.4743 174.534 75.6728L176.603 75.5097ZM166.413 77.2534C164.409 77.2534 162.785 75.6294 162.785 73.6253C162.785 71.6219 164.408 69.9979 166.413 69.9979C168.416 69.9979 170.04 71.6212 170.04 73.6253C170.04 75.6287 168.416 77.2534 166.413 77.2534Z" fill="white"/>
</mask>
<g mask="url(#mask0_262_339)">
<path opacity="0.5" d="M176.603 75.5097V71.7395L174.534 71.5764C174.333 70.7749 174.019 70.0217 173.605 69.3308L174.951 67.7537L172.285 65.0874L170.707 66.4335C170.016 66.0205 169.263 65.7048 168.462 65.5032L168.297 63.4354H164.528L164.365 65.5032C163.563 65.7048 162.809 66.0198 162.119 66.4335L160.541 65.0874L157.875 67.7537L159.222 69.3308C158.807 70.0217 158.492 70.7749 158.291 71.5764L156.224 71.7395V75.5097L158.291 75.6735C158.492 76.4743 158.807 77.2289 159.222 77.9191L157.875 79.4962L160.541 82.1625L162.119 80.8164C162.809 81.2301 163.563 81.5458 164.365 81.7467L164.528 83.8145H168.297L168.462 81.7467C169.264 81.5458 170.016 81.2308 170.707 80.8164L172.285 82.1625L174.951 79.4962L173.605 77.9191C174.019 77.2275 174.333 76.4743 174.534 75.6728L176.603 75.5097ZM166.413 77.2534C164.409 77.2534 162.785 75.6294 162.785 73.6253C162.785 71.6219 164.408 69.9979 166.413 69.9979C168.416 69.9979 170.04 71.6212 170.04 73.6253C170.04 75.6287 168.416 77.2534 166.413 77.2534Z" fill="white"/>
</g>
<path d="M176.603 75.5097V71.7395L174.534 71.5764C174.333 70.7749 174.019 70.0217 173.605 69.3308L174.951 67.7537L172.285 65.0874L170.707 66.4335C170.016 66.0205 169.263 65.7048 168.462 65.5032L168.297 63.4354H164.528L164.365 65.5032C163.563 65.7048 162.809 66.0198 162.119 66.4335L160.541 65.0874L157.875 67.7537L159.222 69.3308C158.807 70.0217 158.492 70.7749 158.291 71.5764L156.224 71.7395V75.5097L158.291 75.6735C158.492 76.4743 158.807 77.2289 159.222 77.9191L157.875 79.4962L160.541 82.1625L162.119 80.8164C162.809 81.2301 163.563 81.5458 164.365 81.7467L164.528 83.8145H168.297L168.462 81.7467C169.264 81.5458 170.016 81.2308 170.707 80.8164L172.285 82.1625L174.951 79.4962L173.605 77.9191C174.019 77.2275 174.333 76.4743 174.534 75.6728L176.603 75.5097ZM166.413 77.2534C164.409 77.2534 162.785 75.6294 162.785 73.6253C162.785 71.6219 164.408 69.9979 166.413 69.9979C168.416 69.9979 170.04 71.6212 170.04 73.6253C170.04 75.6287 168.416 77.2534 166.413 77.2534Z" stroke="#263238" stroke-miterlimit="10" stroke-linecap="round" stroke-linejoin="round"/>
<path d="M158.833 88.6452V85.9341L157.348 85.8172C157.202 85.2411 156.977 84.6993 156.679 84.2023L157.647 83.0676L155.73 81.151L154.597 82.1184C154.099 81.8216 153.558 81.5941 152.982 81.4492L152.864 79.9631H150.153L150.036 81.4492C149.46 81.5941 148.918 81.8209 148.42 82.1184L147.287 81.1503L145.37 83.0669L146.337 84.2009C146.041 84.6979 145.814 85.2397 145.669 85.8158L144.183 85.9334V88.6445L145.669 88.7621C145.814 89.3375 146.041 89.88 146.337 90.3763L145.37 91.511L147.287 93.4276L148.42 92.4595C148.918 92.757 149.459 92.9838 150.036 93.1287L150.153 94.6155H152.864L152.982 93.1287C153.557 92.9838 154.099 92.757 154.597 92.4595L155.73 93.4276L157.647 91.511L156.679 90.3763C156.977 89.8793 157.204 89.3375 157.348 88.7614L158.833 88.6452ZM151.509 89.8982C150.068 89.8982 148.9 88.7313 148.9 87.29C148.9 85.8487 150.068 84.6818 151.509 84.6818C152.95 84.6818 154.117 85.8487 154.117 87.29C154.117 88.7313 152.949 89.8982 151.509 89.8982Z" fill="#92E3A9"/>
<mask id="mask1_262_339" style="mask-type:luminance" maskUnits="userSpaceOnUse" x="144" y="79" width="15" height="16">
<path d="M158.833 88.6452V85.9341L157.348 85.8172C157.202 85.2411 156.977 84.6993 156.679 84.2023L157.647 83.0676L155.73 81.151L154.597 82.1184C154.099 81.8216 153.558 81.5941 152.982 81.4492L152.864 79.9631H150.153L150.036 81.4492C149.46 81.5941 148.918 81.8209 148.42 82.1184L147.287 81.1503L145.37 83.0669L146.337 84.2009C146.041 84.6979 145.814 85.2397 145.669 85.8158L144.183 85.9334V88.6445L145.669 88.7621C145.814 89.3375 146.041 89.88 146.337 90.3763L145.37 91.511L147.287 93.4276L148.42 92.4595C148.918 92.757 149.459 92.9838 150.036 93.1287L150.153 94.6155H152.864L152.982 93.1287C153.557 92.9838 154.099 92.757 154.597 92.4595L155.73 93.4276L157.647 91.511L156.679 90.3763C156.977 89.8793 157.204 89.3375 157.348 88.7614L158.833 88.6452ZM151.509 89.8982C150.068 89.8982 148.9 88.7313 148.9 87.29C148.9 85.8487 150.068 84.6818 151.509 84.6818C152.95 84.6818 154.117 85.8487 154.117 87.29C154.117 88.7313 152.949 89.8982 151.509 89.8982Z" fill="white"/>
</mask>
<g mask="url(#mask1_262_339)">
<path opacity="0.7" d="M158.833 88.6452V85.9341L157.348 85.8172C157.202 85.2411 156.977 84.6993 156.679 84.2023L157.647 83.0676L155.73 81.151L154.597 82.1184C154.099 81.8216 153.558 81.5941 152.982 81.4492L152.864 79.9631H150.153L150.036 81.4492C149.46 81.5941 148.918 81.8209 148.42 82.1184L147.287 81.1503L145.37 83.0669L146.337 84.2009C146.041 84.6979 145.814 85.2397 145.669 85.8158L144.183 85.9334V88.6445L145.669 88.7621C145.814 89.3375 146.041 89.88 146.337 90.3763L145.37 91.511L147.287 93.4276L148.42 92.4595C148.918 92.757 149.459 92.9838 150.036 93.1287L150.153 94.6155H152.864L152.982 93.1287C153.557 92.9838 154.099 92.757 154.597 92.4595L155.73 93.4276L157.647 91.511L156.679 90.3763C156.977 89.8793 157.204 89.3375 157.348 88.7614L158.833 88.6452ZM151.509 89.8982C150.068 89.8982 148.9 88.7313 148.9 87.29C148.9 85.8487 150.068 84.6818 151.509 84.6818C152.95 84.6818 154.117 85.8487 154.117 87.29C154.117 88.7313 152.949 89.8982 151.509 89.8982Z" fill="white"/>
</g>
<path d="M158.833 88.6452V85.9341L157.348 85.8172C157.202 85.2411 156.977 84.6993 156.679 84.2023L157.647 83.0676L155.73 81.151L154.597 82.1184C154.099 81.8216 153.558 81.5941 152.982 81.4492L152.864 79.9631H150.153L150.036 81.4492C149.46 81.5941 148.918 81.8209 148.42 82.1184L147.287 81.1503L145.37 83.0669L146.337 84.2009C146.041 84.6979 145.814 85.2397 145.669 85.8158L144.183 85.9334V88.6445L145.669 88.7621C145.814 89.3375 146.041 89.88 146.337 90.3763L145.37 91.511L147.287 93.4276L148.42 92.4595C148.918 92.757 149.459 92.9838 150.036 93.1287L150.153 94.6155H152.864L152.982 93.1287C153.557 92.9838 154.099 92.757 154.597 92.4595L155.73 93.4276L157.647 91.511L156.679 90.3763C156.977 89.8793 157.204 89.3375 157.348 88.7614L158.833 88.6452ZM151.509 89.8982C150.068 89.8982 148.9 88.7313 148.9 87.29C148.9 85.8487 150.068 84.6818 151.509 84.6818C152.95 84.6818 154.117 85.8487 154.117 87.29C154.117 88.7313 152.949 89.8982 151.509 89.8982Z" stroke="#263238" stroke-miterlimit="10" stroke-linecap="round" stroke-linejoin="round"/>
<path d="M218.075 176.38L213.105 180.167C205.363 177.185 205.86 176.513 198.454 175.442C194.618 174.889 186.673 175.12 179.995 175.47C173.961 175.778 168.956 176.184 168.956 176.184C168.956 176.184 183.719 161.512 187.779 159.335C191.776 157.2 209.668 149.521 210.228 149.283C210.235 149.283 210.242 149.276 210.242 149.276C210.242 149.276 223.675 164.242 218.075 176.38Z" fill="#92E3A9"/>
<path opacity="0.2" d="M218.075 176.38L213.105 180.167C205.363 177.185 205.86 176.513 198.454 175.442C194.618 174.889 186.673 175.12 179.995 175.47C188.304 169.723 210.774 174.434 210.774 174.434C210.774 174.434 207.295 170.003 207.022 161.022C206.756 152.377 209.983 149.493 210.228 149.283C210.235 149.283 210.242 149.276 210.242 149.276C210.242 149.276 223.675 164.242 218.075 176.38Z" fill="black"/>
<path d="M168.955 176.187C168.955 176.187 183.722 161.512 187.779 159.339C191.836 157.165 210.243 149.276 210.243 149.276C210.243 149.276 223.672 164.243 218.075 176.38L213.104 180.166" stroke="#263238" stroke-miterlimit="10" stroke-linecap="round" stroke-linejoin="round"/>
<path d="M239.908 153.315L217.354 173.79C206.77 164.781 210.179 151.215 210.179 151.215L218.285 145.524L228.071 138.65C228.071 138.65 233.377 141.086 237.038 144.642C239.593 147.134 241.343 150.172 239.908 153.315Z" fill="white"/>
<mask id="mask2_262_339" style="mask-type:luminance" maskUnits="userSpaceOnUse" x="209" y="138" width="32" height="36">
<path d="M239.908 153.315L217.354 173.79C206.77 164.781 210.179 151.215 210.179 151.215L218.285 145.524L228.071 138.65C228.071 138.65 233.377 141.086 237.038 144.642C239.593 147.134 241.343 150.172 239.908 153.315Z" fill="white"/>
</mask>
<g mask="url(#mask2_262_339)">
<path opacity="0.2" d="M237.038 144.642C236.716 145.678 235.981 146.728 234.707 147.778C227.413 153.819 221.449 149.248 218.285 145.524L228.071 138.65C228.071 138.65 233.377 141.086 237.038 144.642Z" fill="#92E3A9"/>
</g>
<path d="M239.908 153.315L217.354 173.79C206.77 164.781 210.179 151.215 210.179 151.215L218.285 145.524L228.071 138.65C228.071 138.65 233.377 141.086 237.038 144.642C239.593 147.134 241.343 150.172 239.908 153.315Z" stroke="#263238" stroke-miterlimit="10" stroke-linecap="round" stroke-linejoin="round"/>
<path d="M230.808 151.033C230.808 151.033 227.098 150.193 224.382 144.943C221.666 139.686 221.981 114.969 222.59 110.069C223.199 105.169 232.586 102.474 233.027 107.402C233.097 108.151 233.384 109.621 233.811 111.602C234.371 114.143 235.155 117.524 235.995 121.262C238.823 133.785 242.302 150.368 239.908 153.315" fill="white"/>
<mask id="mask3_262_339" style="mask-type:luminance" maskUnits="userSpaceOnUse" x="222" y="104" width="19" height="50">
<path d="M230.808 151.033C230.808 151.033 227.098 150.193 224.382 144.943C221.666 139.686 221.981 114.969 222.59 110.069C223.199 105.169 232.586 102.474 233.027 107.402C233.097 108.151 233.384 109.621 233.811 111.602C234.371 114.143 235.155 117.524 235.995 121.262C238.823 133.785 242.302 150.368 239.908 153.315" fill="white"/>
</mask>
<g mask="url(#mask3_262_339)">
<path opacity="0.2" d="M235.995 121.262C231.844 118.189 228.904 112.407 228.904 112.407L233.811 111.602C234.371 114.143 235.155 117.524 235.995 121.262Z" fill="#92E3A9"/>
</g>
<path d="M230.808 151.033C230.808 151.033 227.098 150.193 224.382 144.943C221.666 139.686 221.981 114.969 222.59 110.069C223.199 105.169 232.586 102.474 233.027 107.402C233.097 108.151 233.384 109.621 233.811 111.602C234.371 114.143 235.155 117.524 235.995 121.262C238.823 133.785 242.302 150.368 239.908 153.315" stroke="#263238" stroke-miterlimit="10" stroke-linecap="round" stroke-linejoin="round"/>
<path d="M259.963 77.2534C259.963 77.2534 259.957 77.308 259.944 77.3885C259.581 81.3568 254.721 80.6057 248.315 81.7131C243.436 82.5531 237.059 86.5011 232.376 89.8331C228.687 92.4511 226.055 94.6841 226.055 94.6841C226.055 94.6841 220.679 91.1071 215.821 81.1601C215.821 81.1601 233.405 70.1211 235.456 56.4641C237.073 45.7541 252.592 56.2471 258.43 70.8911C259.592 73.7954 260.061 75.8254 259.963 77.2534Z" fill="white"/>
<mask id="mask4_262_339" style="mask-type:luminance" maskUnits="userSpaceOnUse" x="215" y="52" width="45" height="43">
<path d="M259.963 77.2534C259.963 77.2534 259.957 77.308 259.944 77.3885C259.581 81.3568 254.721 80.6057 248.315 81.7131C243.436 82.5531 237.059 86.5011 232.376 89.8331C228.687 92.4511 226.055 94.6841 226.055 94.6841C226.055 94.6841 220.679 91.1071 215.821 81.1601C215.821 81.1601 233.405 70.1211 235.456 56.4641C237.073 45.7541 252.592 56.2471 258.43 70.8911C259.592 73.7954 260.061 75.8254 259.963 77.2534Z" fill="white"/>
</mask>
<g mask="url(#mask4_262_339)">
<path opacity="0.15" d="M259.944 77.3886C259.58 81.3569 254.721 80.6057 248.315 81.7131C243.436 82.5531 237.059 86.5012 232.376 89.8332C230.241 88.5732 229.065 87.3552 229.541 86.2982C231.704 81.5032 239.838 79.9631 239.838 79.9631C239.838 79.9631 239.145 76.8201 240.412 75.3011C241.679 73.7751 246.341 76.8201 252.991 79.1861C258.959 81.3127 259.827 78.0816 259.944 77.3886Z" fill="black"/>
</g>
<path d="M259.963 77.2534C259.963 77.2534 259.957 77.308 259.944 77.3885C259.581 81.3568 254.721 80.6057 248.315 81.7131C243.436 82.5531 237.059 86.5011 232.376 89.8331C228.687 92.4511 226.055 94.6841 226.055 94.6841C226.055 94.6841 220.679 91.1071 215.821 81.1601C215.821 81.1601 233.405 70.1211 235.456 56.4641C237.073 45.7541 252.592 56.2471 258.43 70.8911C259.592 73.7954 260.061 75.8254 259.963 77.2534Z" stroke="#263238" stroke-miterlimit="10" stroke-linecap="round" stroke-linejoin="round"/>
<path d="M241.644 65.3331C245.946 63.7056 247.609 60.7796 248.437 61.439C249.266 62.0984 252.254 64.2712 251.77 65.5396C251.286 66.808 247.418 71.2985 247.031 72.0993" stroke="#263238" stroke-miterlimit="10" stroke-linecap="round" stroke-linejoin="round"/>
<path d="M239.64 53.9168C237.322 54.1338 237.633 60.2322 243.308 67.7271C248.983 75.222 254.591 78.6499 257.08 77.7917C259.568 76.9335 257.84 73.6701 257.84 73.6701" stroke="#263238" stroke-miterlimit="10" stroke-linecap="round" stroke-linejoin="round"/>
<path d="M234.126 89.8814C234.126 89.8814 223.325 98.0364 221.036 97.9594C218.74 97.8894 215.604 97.8264 212.587 93.8014C210.256 90.6864 210.599 87.9984 211.271 86.1014C211.46 85.5414 211.684 85.0584 211.873 84.6454C212.342 83.6234 221.274 74.6284 221.274 74.6284L223.493 75.2164C223.493 75.2164 224.935 83.2874 233.727 88.8874L234.126 89.8814Z" fill="#92E3A9"/>
<mask id="mask5_262_339" style="mask-type:luminance" maskUnits="userSpaceOnUse" x="210" y="74" width="25" height="24">
<path d="M234.126 89.8814C234.126 89.8814 223.325 98.0364 221.036 97.9594C218.74 97.8894 215.604 97.8264 212.587 93.8014C210.256 90.6864 210.599 87.9984 211.271 86.1014C211.46 85.5414 211.684 85.0584 211.873 84.6454C212.342 83.6234 221.274 74.6284 221.274 74.6284L223.493 75.2164C223.493 75.2164 224.935 83.2874 233.727 88.8874L234.126 89.8814Z" fill="white"/>
</mask>
<g mask="url(#mask5_262_339)">
<path opacity="0.2" d="M234.126 89.8814C234.126 89.8814 223.325 98.0364 221.036 97.9594C218.74 97.8894 215.604 97.8264 212.587 93.8014C210.256 90.6864 210.599 87.9984 211.271 86.1014C211.831 88.2924 212.909 91.4354 214.638 92.6814C217.403 94.6834 228.904 88.2504 228.904 88.2504C228.904 88.2504 222.52 80.3894 223.493 75.2164C223.493 75.2164 224.935 83.2874 233.727 88.8874L234.126 89.8814Z" fill="black"/>
</g>
<path d="M234.126 89.8814C234.126 89.8814 223.325 98.0364 221.036 97.9594C218.74 97.8894 215.604 97.8264 212.587 93.8014C210.256 90.6864 210.599 87.9984 211.271 86.1014C211.46 85.5414 211.684 85.0584 211.873 84.6454C212.342 83.6234 221.274 74.6284 221.274 74.6284L223.493 75.2164C223.493 75.2164 224.935 83.2874 233.727 88.8874L234.126 89.8814Z" stroke="#263238" stroke-miterlimit="10" stroke-linecap="round" stroke-linejoin="round"/>
<path opacity="0.15" d="M239.64 53.9168C237.322 54.1338 237.633 60.2322 243.308 67.7271C248.983 75.222 254.591 78.6499 257.08 77.7917C259.568 76.9335 257.84 73.6701 257.84 73.6701C257.84 73.6701 256.306 67.2455 250.779 61.3438C244.304 54.4299 239.64 53.9168 239.64 53.9168Z" fill="black"/>
<path d="M242.805 102.51C242.554 105.617 234.261 116.939 228.904 114.484L242.805 102.51Z" fill="white"/>
<path d="M242.805 102.51C242.554 105.617 234.261 116.939 228.904 114.484" stroke="#263238" stroke-miterlimit="10" stroke-linecap="round" stroke-linejoin="round"/>
<path d="M222.691 97.0424C222.691 97.0424 226.955 108.92 230.039 111.101C233.121 113.282 241.082 106.653 240.366 105.53C239.65 104.406 231.952 97.2594 230.737 91.4424C230.737 91.4424 227.111 91.9478 222.691 97.0424Z" fill="#92E3A9"/>
<mask id="mask6_262_339" style="mask-type:luminance" maskUnits="userSpaceOnUse" x="222" y="91" width="19" height="21">
<path d="M222.691 97.0424C222.691 97.0424 226.955 108.92 230.039 111.101C233.121 113.282 241.082 106.653 240.366 105.53C239.65 104.406 231.952 97.2594 230.737 91.4424C230.737 91.4424 227.111 91.9478 222.691 97.0424Z" fill="white"/>
</mask>
<g mask="url(#mask6_262_339)">
<path opacity="0.2" d="M222.691 97.0424C222.691 97.0424 226.955 108.92 230.039 111.101C233.121 113.282 241.082 106.653 240.366 105.53C239.65 104.406 231.952 97.2594 230.737 91.4424C230.737 91.4424 227.111 91.9478 222.691 97.0424Z" fill="black"/>
</g>
<path d="M222.691 97.0424C222.691 97.0424 226.955 108.92 230.039 111.101C233.121 113.282 241.082 106.653 240.366 105.53C239.65 104.406 231.952 97.2594 230.737 91.4424C230.737 91.4424 227.111 91.9478 222.691 97.0424Z" stroke="#263238" stroke-miterlimit="10" stroke-linecap="round" stroke-linejoin="round"/>
<path d="M242.63 103.501C243.357 101.051 241.582 101.715 241.867 99.4133C242.153 97.1117 240.673 97.118 240.205 94.7415C239.737 92.3664 238.273 92.5967 237.419 90.6388C236.565 88.6809 234.426 89.4642 232.354 90.419C230.282 91.3738 227.5 95.9252 227.5 95.9252C227.089 98.8526 229.539 98.2443 229.539 98.2443C227.913 101.253 230.623 101.914 230.623 101.914C230.48 105.147 232.433 104.746 232.433 104.746C232.433 104.746 232.334 106.254 233.801 106.499C234.74 106.657 241.904 105.951 242.63 103.501Z" fill="white" stroke="#263238" stroke-miterlimit="10" stroke-linecap="round" stroke-linejoin="round"/>
<path d="M229.54 98.2436C229.54 98.2436 233.497 94.0646 234.709 93.5914" stroke="#263238" stroke-miterlimit="10" stroke-linecap="round" stroke-linejoin="round"/>
<path d="M230.623 101.913C230.623 101.913 233.013 99.2404 236.977 97.8936" stroke="#263238" stroke-miterlimit="10" stroke-linecap="round" stroke-linejoin="round"/>
<path d="M232.433 104.745C232.433 104.745 237.684 102.157 238.455 101.918" stroke="#263238" stroke-miterlimit="10" stroke-linecap="round" stroke-linejoin="round"/>
<path d="M225.491 113.93C225.491 113.93 221.641 110.369 220.941 108.855C220.241 107.341 218.892 100.83 219.854 99.0801C220.817 97.3301 223.648 94.4174 224.089 93.0174C224.529 91.6174 226.976 94.6862 224.179 100.28C224.179 100.28 227.524 104.332 226.976 108.767" fill="white"/>
<path d="M225.491 113.93C225.491 113.93 221.641 110.369 220.941 108.855C220.241 107.341 218.892 100.83 219.854 99.0801C220.817 97.3301 223.648 94.4174 224.089 93.0174C224.529 91.6174 226.976 94.6862 224.179 100.28C224.179 100.28 227.524 104.332 226.976 108.767" stroke="#263238" stroke-miterlimit="10" stroke-linecap="round" stroke-linejoin="round"/>
<path opacity="0.15" d="M259.963 77.2534C259.963 77.2534 259.957 77.3081 259.944 77.3887C259.948 77.341 259.96 77.3018 259.963 77.2534Z" fill="black"/>
<path d="M223.199 217.547C223.199 217.547 221.659 218.17 219.44 215.398C215.219 210.12 208.905 197.443 204.754 191.367C202.976 188.763 198.062 186.201 192.749 184.052C184.531 180.734 175.361 178.389 175.361 178.389C175.361 178.389 197.719 177.01 203.396 178.718C208.31 180.188 225.712 190.142 230.675 193.005C231.522 193.495 232.005 193.775 232.005 193.775C232.005 193.775 232.754 204.317 223.199 217.547Z" fill="#92E3A9"/>
<path opacity="0.2" d="M223.199 217.547C223.199 217.547 221.659 218.17 219.44 215.398C215.219 210.12 208.905 197.443 204.754 191.367C202.976 188.763 198.062 186.201 192.749 184.052C213.028 188.686 220.217 209.042 220.217 209.042C220.217 209.042 221.295 197.485 230.675 193.005C231.522 193.495 232.005 193.775 232.005 193.775C232.005 193.775 232.754 204.317 223.199 217.547Z" fill="black"/>
<path d="M175.359 178.39C175.359 178.39 197.719 177.012 203.394 178.717C209.141 180.444 232.008 193.775 232.008 193.775C232.008 193.775 232.752 204.317 223.2 217.549" stroke="#263238" stroke-miterlimit="10" stroke-linecap="round" stroke-linejoin="round"/>
<path d="M260.488 226.633C259.333 227.417 257.121 227.41 254.314 226.892C251.738 226.416 248.665 225.513 245.459 224.4C234.714 220.676 222.485 214.628 222.485 214.628C222.485 214.628 222.52 200.264 230.962 194.699C230.962 194.699 241.91 202.196 248.959 204.051C254.867 205.612 260.488 226.633 260.488 226.633Z" fill="white"/>
<mask id="mask7_262_339" style="mask-type:luminance" maskUnits="userSpaceOnUse" x="222" y="194" width="39" height="34">
<path d="M260.488 226.633C259.333 227.417 257.121 227.41 254.314 226.892C251.738 226.416 248.665 225.513 245.459 224.4C234.714 220.676 222.485 214.628 222.485 214.628C222.485 214.628 222.52 200.264 230.962 194.699C230.962 194.699 241.91 202.196 248.959 204.051C254.867 205.612 260.488 226.633 260.488 226.633Z" fill="white"/>
</mask>
<g mask="url(#mask7_262_339)">
<path opacity="0.2" d="M254.314 226.892C251.738 226.416 248.665 225.513 245.459 224.4C243.884 217.127 248.462 209.042 248.462 209.042C248.637 216.791 251.64 222.93 254.314 226.892Z" fill="#92E3A9"/>
</g>
<path d="M260.488 226.633C259.333 227.417 257.121 227.41 254.314 226.892C251.738 226.416 248.665 225.513 245.459 224.4C234.714 220.676 222.485 214.628 222.485 214.628C222.485 214.628 222.52 200.264 230.962 194.699C230.962 194.699 241.91 202.196 248.959 204.051C254.867 205.612 260.488 226.633 260.488 226.633Z" stroke="#263238" stroke-miterlimit="10" stroke-linecap="round" stroke-linejoin="round"/>
<path d="M250.41 222.49C249.777 220.992 249.294 219.12 248.957 216.829L250.41 222.49Z" fill="white"/>
<path d="M250.41 222.49C249.777 220.992 249.294 219.12 248.957 216.829" stroke="#263238" stroke-miterlimit="10" stroke-linecap="round" stroke-linejoin="round"/>
<path d="M250.414 198.229C253.519 198.718 256.379 205.409 258.304 207.792C258.304 207.792 263.786 210.347 264.72 212.758C265.654 215.168 269.393 224.821 261.979 226.805C257.714 227.946 254.531 227.746 252.317 225.488" fill="white"/>
<path d="M250.414 198.229C253.519 198.718 256.379 205.409 258.304 207.792C258.304 207.792 263.786 210.347 264.72 212.758C265.654 215.168 269.393 224.821 261.979 226.805C257.714 227.946 254.531 227.746 252.317 225.488" stroke="#263238" stroke-miterlimit="10" stroke-linecap="round" stroke-linejoin="round"/>
<path d="M251.115 188.714V188.938C251.08 190.996 250.499 195.077 249.19 202.308C247.965 209.07 247.734 209.595 246.915 209.938C245.914 210.351 238.739 211.947 235.68 212.605C235.428 212.654 235.204 212.703 235.015 212.745C234.574 212.843 233.412 212.234 233.489 211.793C233.853 209.56 236.345 189.372 237.346 188.714C238.865 187.72 248.686 186.782 249.778 187.083C250.289 187.223 251.115 188.189 251.115 188.714Z" fill="#999999"/>
<mask id="mask8_262_339" style="mask-type:luminance" maskUnits="userSpaceOnUse" x="233" y="187" width="19" height="26">
<path d="M251.115 188.714V188.938C251.08 190.996 250.499 195.077 249.19 202.308C247.965 209.07 247.734 209.595 246.915 209.938C245.914 210.351 238.739 211.947 235.68 212.605C235.428 212.654 235.204 212.703 235.015 212.745C234.574 212.843 233.412 212.234 233.489 211.793C233.853 209.56 236.345 189.372 237.346 188.714C238.865 187.72 248.686 186.782 249.778 187.083C250.289 187.223 251.115 188.189 251.115 188.714Z" fill="white"/>
</mask>
<g mask="url(#mask8_262_339)">
<path opacity="0.2" d="M251.115 188.938C251.08 190.996 250.499 195.077 249.19 202.308C247.965 209.07 247.734 209.595 246.915 209.938C245.914 210.351 238.739 211.947 235.68 212.605C236.051 209.686 237.171 201.531 239.481 190.359L251.115 188.938Z" fill="black"/>
</g>
<path d="M251.115 188.714V188.938C251.08 190.996 250.499 195.077 249.19 202.308C247.965 209.07 247.734 209.595 246.915 209.938C245.914 210.351 238.739 211.947 235.68 212.605C235.428 212.654 235.204 212.703 235.015 212.745C234.574 212.843 233.412 212.234 233.489 211.793C233.853 209.56 236.345 189.372 237.346 188.714C238.865 187.72 248.686 186.782 249.778 187.083C250.289 187.223 251.115 188.189 251.115 188.714Z" stroke="#263238" stroke-miterlimit="10" stroke-linecap="round" stroke-linejoin="round"/>
<path d="M235.539 211.173C235.539 211.173 238.805 192.157 239.097 190.99C239.389 189.823 239.68 190.289 249.48 189.006" stroke="#263238" stroke-miterlimit="10" stroke-linecap="round" stroke-linejoin="round"/>
<path d="M248.955 216.829C248.955 216.829 243.881 218.639 244.23 215.548C244.23 215.548 243.064 214.731 243.064 213.448C243.064 212.165 243.881 210.765 243.881 210.765C243.881 210.765 241.956 214.089 240.322 212.164C239.894 211.659 241.634 208.045 241.634 208.045C241.634 208.045 240.031 209.014 239.272 207.206C239.041 206.655 241.715 201.682 242.299 201.314C244.259 200.079 249.363 197.452 251.114 198.45C252.864 199.448 253.447 202.598 254.497 203.765C255.547 204.932 254.964 208.898 254.497 211.698" fill="white"/>
<path d="M248.955 216.829C248.955 216.829 243.881 218.639 244.23 215.548C244.23 215.548 243.064 214.731 243.064 213.448C243.064 212.165 243.881 210.765 243.881 210.765C243.881 210.765 241.956 214.089 240.322 212.164C239.894 211.659 241.634 208.045 241.634 208.045C241.634 208.045 240.031 209.014 239.272 207.206C239.041 206.655 241.715 201.682 242.299 201.314C244.259 200.079 249.363 197.452 251.114 198.45C252.864 199.448 253.447 202.598 254.497 203.765C255.547 204.932 254.964 208.898 254.497 211.698" stroke="#263238" stroke-miterlimit="10" stroke-linecap="round" stroke-linejoin="round"/>
<path d="M241.633 208.045C241.633 208.045 243.472 204.873 243.997 204.464C244.522 204.056 248.955 202.773 248.955 202.773" fill="white"/>
<path d="M241.633 208.045C241.633 208.045 243.472 204.873 243.997 204.464C244.522 204.056 248.955 202.773 248.955 202.773" stroke="#263238" stroke-miterlimit="10" stroke-linecap="round" stroke-linejoin="round"/>
<path d="M243.881 210.765C244.989 209.54 245.631 208.126 246.098 208.045C246.564 207.965 250.123 207.439 250.414 207.323" fill="white"/>
<path d="M243.881 210.765C244.989 209.54 245.631 208.126 246.098 208.045C246.564 207.965 250.123 207.439 250.414 207.323" stroke="#263238" stroke-miterlimit="10" stroke-linecap="round" stroke-linejoin="round"/>
<path d="M244.044 215.396C245.281 213.973 247.207 212.514 247.615 212.514C248.023 212.514 250.299 212.223 250.415 212.164" fill="white"/>
<path d="M244.044 215.396C245.281 213.973 247.207 212.514 247.615 212.514C248.023 212.514 250.299 212.223 250.415 212.164" stroke="#263238" stroke-miterlimit="10" stroke-linecap="round" stroke-linejoin="round"/>
<path d="M249.778 216.131C249.778 216.131 248.722 217.064 247.147 216.773L249.778 216.131Z" fill="white"/>
<path d="M249.778 216.131C249.778 216.131 248.722 217.064 247.147 216.773" stroke="#263238" stroke-miterlimit="10" stroke-linecap="round" stroke-linejoin="round"/>
<path d="M248.955 216.829C248.955 216.829 253.579 220.683 255.679 216.131L248.955 216.829Z" fill="white"/>
<path d="M248.955 216.829C248.955 216.829 253.579 220.683 255.679 216.131" stroke="#263238" stroke-miterlimit="10" stroke-linecap="round" stroke-linejoin="round"/>
<path d="M135.804 175.863C135.804 175.863 133.76 175.807 130.799 175.73C123.981 175.562 112.284 175.31 109.512 175.485C104.388 175.814 99.4038 178.18 99.4038 178.18L88.1128 162.78C89.8348 141.437 103.443 139.099 103.443 139.099C103.443 139.099 113.054 150.068 116.554 153.057C120.054 156.046 135.804 175.863 135.804 175.863Z" fill="#92E3A9"/>
<path opacity="0.2" d="M130.799 175.73C123.981 175.562 112.284 175.31 109.512 175.485C104.388 175.814 99.4038 178.18 99.4038 178.18L88.1128 162.78C89.8348 141.437 103.443 139.099 103.443 139.099C103.443 139.099 104.241 152.133 93.8318 161.072C93.8318 161.072 97.0518 170.116 104.08 171.908C111.115 173.7 124.828 172.23 130.799 175.73Z" fill="black"/>
<path d="M135.804 175.863C135.804 175.863 120.054 156.045 116.554 153.056C113.054 150.067 103.445 139.099 103.445 139.099C103.445 139.099 89.837 141.435 88.1094 162.777L99.4039 178.178" stroke="#263238" stroke-miterlimit="10" stroke-linecap="round" stroke-linejoin="round"/>
<path d="M102.547 141.667C102.547 141.667 102.302 153.119 89.8349 159.279L68.2539 128.738C66.7349 120.478 83.3039 117.398 83.3039 117.398L83.3109 117.412L91.1229 127.261L102.547 141.667Z" fill="white"/>
<mask id="mask9_262_339" style="mask-type:luminance" maskUnits="userSpaceOnUse" x="68" y="117" width="35" height="43">
<path d="M102.547 141.667C102.547 141.667 102.302 153.119 89.8349 159.279L68.2539 128.738C66.7349 120.478 83.3039 117.398 83.3039 117.398L83.3109 117.412L91.1229 127.261L102.547 141.667Z" fill="white"/>
</mask>
<g mask="url(#mask9_262_339)">
<path opacity="0.2" d="M91.123 127.261C83.836 133.022 75.751 126.806 75.751 126.806L83.311 117.412L91.123 127.261Z" fill="#92E3A9"/>
</g>
<path d="M102.547 141.667C102.547 141.667 102.302 153.119 89.8349 159.279L68.2539 128.738C66.7349 120.478 83.3039 117.398 83.3039 117.398L83.3109 117.412L91.1229 127.261L102.547 141.667Z" stroke="#263238" stroke-miterlimit="10" stroke-linecap="round" stroke-linejoin="round"/>
<path d="M68.2539 128.738C67.3719 126.848 68.2539 122.263 69.8219 116.95C71.6209 110.853 74.3159 103.783 76.2969 98.7294C77.3889 95.9224 78.2639 93.7384 78.6349 92.6674C80.2729 87.9984 88.7149 92.8984 88.1129 97.7984C87.5039 102.698 89.2679 119.967 85.3549 124.398C81.4349 128.836 77.6339 128.738 77.6339 128.738" fill="white"/>
<mask id="mask10_262_339" style="mask-type:luminance" maskUnits="userSpaceOnUse" x="67" y="90" width="22" height="39">
<path d="M68.2539 128.738C67.3719 126.848 68.2539 122.263 69.8219 116.95C71.6209 110.853 74.3159 103.783 76.2969 98.7294C77.3889 95.9224 78.2639 93.7384 78.6349 92.6674C80.2729 87.9984 88.7149 92.8984 88.1129 97.7984C87.5039 102.698 89.2679 119.967 85.3549 124.398C81.4349 128.836 77.6339 128.738 77.6339 128.738" fill="white"/>
</mask>
<g mask="url(#mask10_262_339)">
<path opacity="0.2" d="M81.953 95.9155C81.953 95.9155 78.789 114.808 75.751 115.914C74.477 116.376 72.125 116.712 69.822 116.95C71.621 110.853 74.316 103.783 76.297 98.7295L81.953 95.9155Z" fill="#92E3A9"/>
</g>
<path d="M68.2539 128.738C67.3719 126.848 68.2539 122.263 69.8219 116.95C71.6209 110.853 74.3159 103.783 76.2969 98.7294C77.3889 95.9224 78.2639 93.7384 78.6349 92.6674C80.2729 87.9984 88.7149 92.8984 88.1129 97.7984C87.5039 102.698 89.2679 119.967 85.3549 124.398C81.4349 128.836 77.6339 128.738 77.6339 128.738" stroke="#263238" stroke-miterlimit="10" stroke-linecap="round" stroke-linejoin="round"/>
<path d="M75.051 106.782C74.4161 107.661 73.1883 107.858 72.3098 107.223L42.816 85.9139C41.9375 85.279 41.7394 84.0512 42.3743 83.1727L71.2255 43.2426C71.8604 42.3641 73.0875 42.166 73.9667 42.8009L103.461 64.111C104.34 64.7459 104.538 65.9737 103.902 66.8522L75.051 106.782Z" fill="#BFBFBF" stroke="#263238" stroke-miterlimit="10"/>
<path d="M81.465 47.3466L78.9026 50.8929L94.2348 61.9713L96.7973 58.4249L81.465 47.3466Z" fill="#92E3A9" stroke="#263238" stroke-miterlimit="10" stroke-linecap="round" stroke-linejoin="round"/>
<path d="M72.9322 45.2778L44.8479 84.1461L73.3608 104.748L101.445 65.8798L72.9322 45.2778Z" fill="#92E3A9"/>
<mask id="mask11_262_339" style="mask-type:luminance" maskUnits="userSpaceOnUse" x="48" y="46" width="50" height="58">
<path d="M48.9236 57.8931L64.1096 103.294L97.3812 92.1197L82.1952 46.7183L48.9236 57.8931Z" fill="white"/>
</mask>
<g mask="url(#mask11_262_339)">
<path opacity="0.7" d="M72.7999 45.2779L44.8479 84.2991L73.4931 104.748L101.445 65.7269L72.7999 45.2779Z" fill="white"/>
</g>
<path d="M72.9322 45.2778L44.8479 84.1461L73.3608 104.748L101.445 65.8798L72.9322 45.2778Z" stroke="#263238" stroke-width="1.00006" stroke-miterlimit="10" stroke-linecap="round" stroke-linejoin="round"/>
<path d="M93.6409 58.6152L92.0869 60.7656C91.8454 61.1009 91.3862 61.1744 91.0509 60.9322L87.1701 58.1287C87.3941 57.4959 87.1925 56.7714 86.6192 56.3577C86.0466 55.944 85.2948 55.9797 84.7649 56.3906L80.8785 53.5829C80.5495 53.3449 80.469 52.8815 80.7119 52.5469L82.2652 50.3972C82.5032 50.0675 82.9722 49.9926 83.3012 50.2306L93.475 57.5806C93.8089 57.8214 93.8789 58.2862 93.6409 58.6152Z" stroke="#263238" stroke-miterlimit="10" stroke-linecap="round" stroke-linejoin="round"/>
<path d="M85.4018 100.445C85.4018 100.445 89.8538 97.6738 90.8268 96.3186C91.7998 94.9634 94.352 88.8237 93.7367 86.9239C93.1214 85.0241 90.8898 81.6291 90.7211 80.1717C90.5524 78.7143 87.5704 81.2665 89.263 87.2872C89.263 87.2872 85.2142 90.636 84.916 95.095" fill="white"/>
<path d="M85.4018 100.445C85.4018 100.445 89.8538 97.6738 90.8268 96.3186C91.7998 94.9634 94.352 88.8237 93.7367 86.9239C93.1214 85.0241 90.8898 81.6291 90.7211 80.1717C90.5524 78.7143 87.5704 81.2665 89.263 87.2872C89.263 87.2872 85.2142 90.636 84.916 95.095" stroke="#263238" stroke-miterlimit="10" stroke-linecap="round" stroke-linejoin="round"/>
<path d="M83.0309 74.6319C83.0309 79.919 78.7448 84.2051 73.457 84.2051C68.1699 84.2051 63.8838 79.919 63.8838 74.6319C63.8838 69.3441 68.1699 65.058 73.457 65.058C78.7448 65.0587 83.0309 69.3448 83.0309 74.6319Z" fill="white" stroke="#263238" stroke-miterlimit="10" stroke-linecap="round" stroke-linejoin="round"/>
<path d="M68.6914 71.2006L69.866 77.9206L80.5704 75.0121" fill="white"/>
<path d="M68.6914 71.2006L69.866 77.9206L80.5704 75.0121" stroke="#263238" stroke-miterlimit="10" stroke-linecap="round" stroke-linejoin="round"/>
<path d="M132.409 179.09C132.409 179.09 118.668 181.281 108.329 186.874C106.208 188.015 104.234 189.31 102.547 190.752C97.7379 194.875 93.5379 203.415 89.9539 210.184C86.8879 215.952 84.5709 218.248 84.5709 218.248C75.0229 205.018 75.7649 194.476 75.7649 194.476C75.7649 194.476 75.7999 194.455 75.8559 194.427C77.4099 193.517 98.8439 181.078 104.374 179.419C110.051 177.711 132.409 179.09 132.409 179.09Z" fill="#92E3A9"/>
<path opacity="0.2" d="M108.329 186.873C106.208 188.014 104.234 189.309 102.547 190.751C97.7379 194.874 93.5379 203.414 89.9539 210.183C86.8879 215.951 84.5709 218.247 84.5709 218.247C75.0229 205.017 75.7649 194.475 75.7649 194.475C75.7649 194.475 75.7999 194.454 75.8559 194.426C76.5909 194.097 81.5399 192.452 88.1129 205.066C88.1129 205.066 92.6559 190.233 108.329 186.873Z" fill="black"/>
<path d="M62.1709 163.958C62.1709 163.958 56.1635 162.399 57.9597 168.027C59.7566 173.655 66.1945 173.475 66.1945 173.475" fill="white"/>
<path d="M62.1709 163.958C62.1709 163.958 56.1635 162.399 57.9597 168.027C59.7566 173.655 66.1945 173.475 66.1945 173.475" stroke="#263238" stroke-miterlimit="10" stroke-linecap="round" stroke-linejoin="round"/>
<path d="M132.412 179.09C132.412 179.09 110.052 177.713 104.377 179.417C98.6304 181.144 75.7635 194.475 75.7635 194.475C75.7635 194.475 75.0208 205.017 84.5716 218.249" stroke="#263238" stroke-miterlimit="10" stroke-linecap="round" stroke-linejoin="round"/>
<path d="M85.2918 215.329C85.2918 215.329 52.0348 227.376 46.6028 220.831C46.6028 220.831 49.0668 213.908 52.4128 208.623C54.2118 205.781 56.2768 203.408 58.3488 202.862C61.0088 202.155 64.2988 200.916 67.3578 199.656C72.3978 197.57 76.8148 195.4 76.8148 195.4C85.2498 200.965 85.2918 215.329 85.2918 215.329Z" fill="white"/>
<mask id="mask12_262_339" style="mask-type:luminance" maskUnits="userSpaceOnUse" x="46" y="195" width="40" height="28">
<path d="M85.2918 215.329C85.2918 215.329 52.0348 227.376 46.6028 220.831C46.6028 220.831 49.0668 213.908 52.4128 208.623C54.2118 205.781 56.2768 203.408 58.3488 202.862C61.0088 202.155 64.2988 200.916 67.3578 199.656C72.3978 197.57 76.8148 195.4 76.8148 195.4C85.2498 200.965 85.2918 215.329 85.2918 215.329Z" fill="white"/>
</mask>
<g mask="url(#mask12_262_339)">
<path opacity="0.2" d="M67.3578 199.656C66.4058 204.157 63.7318 212.55 57.0188 212.004C54.4148 211.794 53.0428 210.45 52.4128 208.623C54.2118 205.781 56.2768 203.408 58.3488 202.862C61.0088 202.155 64.2988 200.916 67.3578 199.656Z" fill="#92E3A9"/>
</g>
<path d="M85.2918 215.329C85.2918 215.329 52.0348 227.376 46.6028 220.831C46.6028 220.831 49.0668 213.908 52.4128 208.623C54.2118 205.781 56.2768 203.408 58.3488 202.862C61.0088 202.155 64.2988 200.916 67.3578 199.656C72.3978 197.57 76.8148 195.4 76.8148 195.4C85.2498 200.965 85.2918 215.329 85.2918 215.329Z" stroke="#263238" stroke-miterlimit="10" stroke-linecap="round" stroke-linejoin="round"/>
<path d="M49.1578 222.272C41.3318 222.622 40.8348 204.198 44.7688 176.835C44.7688 176.835 50.8028 164.858 53.5888 164.697C54.3378 164.655 55.3738 164.634 56.4798 164.634C59.4828 164.613 63.0388 164.697 63.0388 164.697C63.0388 164.697 64.6488 171.634 64.6628 173.993C64.6838 177.528 63.1298 177.927 63.1298 177.927C63.2138 181.259 60.5188 181.595 57.6278 181.14C57.6278 181.14 57.5788 181.308 57.4248 181.56C57.0398 182.204 55.9968 183.401 53.4768 183.723C53.4348 194.398 63.8018 210.561 58.3138 214.089" fill="white"/>
<mask id="mask13_262_339" style="mask-type:luminance" maskUnits="userSpaceOnUse" x="42" y="164" width="23" height="59">
<path d="M49.1578 222.272C41.3318 222.622 40.8348 204.198 44.7688 176.835C44.7688 176.835 50.8028 164.858 53.5888 164.697C54.3378 164.655 55.3738 164.634 56.4798 164.634C59.4828 164.613 63.0388 164.697 63.0388 164.697C63.0388 164.697 64.6488 171.634 64.6628 173.993C64.6838 177.528 63.1298 177.927 63.1298 177.927C63.2138 181.259 60.5188 181.595 57.6278 181.14C57.6278 181.14 57.5788 181.308 57.4248 181.56C57.0398 182.204 55.9968 183.401 53.4768 183.723C53.4348 194.398 63.8018 210.561 58.3138 214.089" fill="white"/>
</mask>
<g mask="url(#mask13_262_339)">
<path opacity="0.2" d="M64.6627 173.993C64.6837 177.528 63.1297 177.927 63.1297 177.927C63.2137 181.259 60.5187 181.595 57.6277 181.14C57.6277 181.14 57.5787 181.308 57.4247 181.56L58.3137 178.879C58.3137 178.879 59.2447 179.271 59.8047 178.998C61.5547 178.137 60.6377 175.12 60.6377 175.12C60.6377 175.12 61.6317 174.854 61.9117 173.475C62.1847 172.096 59.1327 171.165 59.1327 171.165C60.0917 169.562 57.9567 168.029 57.9567 168.029C58.7197 166.881 57.7257 165.621 56.4797 164.634C59.4827 164.613 63.0387 164.697 63.0387 164.697C63.0387 164.697 64.6487 171.634 64.6627 173.993Z" fill="#92E3A9"/>
</g>
<path d="M49.1578 222.272C41.3318 222.622 40.8348 204.198 44.7688 176.835C44.7688 176.835 50.8028 164.858 53.5888 164.697C54.3378 164.655 55.3738 164.634 56.4798 164.634C59.4828 164.613 63.0388 164.697 63.0388 164.697C63.0388 164.697 64.6488 171.634 64.6628 173.993C64.6838 177.528 63.1298 177.927 63.1298 177.927C63.2138 181.259 60.5188 181.595 57.6278 181.14C57.6278 181.14 57.5788 181.308 57.4248 181.56C57.0398 182.204 55.9968 183.401 53.4768 183.723C53.4348 194.398 63.8018 210.561 58.3138 214.089" stroke="#263238" stroke-miterlimit="10" stroke-linecap="round" stroke-linejoin="round"/>
<path d="M63.0744 172.97C62.1077 171.193 61.176 172.22 56.5315 171.098C56.5315 171.098 59.5338 171.396 61.8263 170.845" stroke="#263238" stroke-miterlimit="10" stroke-linecap="round" stroke-linejoin="round"/>
<path d="M55.9927 167.642C56.6213 167.924 59.3562 167.719 60.6372 167.642" stroke="#263238" stroke-miterlimit="10" stroke-linecap="round" stroke-linejoin="round"/>
<path d="M57.6243 175.151C57.6082 175.018 61.5373 175.344 62.1764 175.809C62.8155 176.274 63.2152 178.004 63.2152 178.004" stroke="#263238" stroke-miterlimit="10" stroke-linecap="round" stroke-linejoin="round"/>
<path d="M60.6371 178.878C60.3438 179.148 58.3152 178.878 58.3152 178.878C58.3152 178.878 58.1829 180.235 57.625 181.143" stroke="#263238" stroke-miterlimit="10" stroke-linecap="round" stroke-linejoin="round"/>
<path d="M81.9529 161.729C81.9529 167.469 79.6079 172.467 76.1499 175.092H65.0549C61.5899 172.467 59.2449 167.469 59.2449 161.729C59.2449 161.491 59.2659 161.26 59.2729 161.022H81.9249C81.9389 161.26 81.9529 161.491 81.9529 161.729Z" fill="#757575"/>
<mask id="mask14_262_339" style="mask-type:luminance" maskUnits="userSpaceOnUse" x="59" y="161" width="23" height="15">
<path d="M81.9529 161.729C81.9529 167.469 79.6079 172.467 76.1499 175.092H65.0549C61.5899 172.467 59.2449 167.469 59.2449 161.729C59.2449 161.491 59.2659 161.26 59.2729 161.022H81.9249C81.9389 161.26 81.9529 161.491 81.9529 161.729Z" fill="white"/>
</mask>
<g mask="url(#mask14_262_339)">
<path opacity="0.2" d="M73.4549 174.434L73.4059 175.092H65.0549C61.5899 172.467 59.2449 167.469 59.2449 161.729C59.2449 161.491 59.2659 161.26 59.2729 161.022H61.7369C63.4379 165.208 67.1759 172.376 73.4549 174.434Z" fill="black"/>
</g>
<path d="M81.9529 161.729C81.9529 167.469 79.6079 172.467 76.1499 175.092H65.0549C61.5899 172.467 59.2449 167.469 59.2449 161.729C59.2449 161.491 59.2659 161.26 59.2729 161.022H81.9249C81.9389 161.26 81.9529 161.491 81.9529 161.729Z" stroke="#263238" stroke-miterlimit="10" stroke-linecap="round" stroke-linejoin="round"/>
<path d="M77.0318 174.433H64.1693L63.5708 176.156H77.6303L77.0318 174.433Z" fill="#757575" stroke="#263238" stroke-miterlimit="10" stroke-linecap="round" stroke-linejoin="round"/>
<path opacity="0.2" d="M77.6303 176.156L77.0318 174.433H64.1693L63.5708 176.156" fill="black"/>
<path d="M66.9574 147.062C65.0065 150.421 70.239 153.577 67.6448 158.174" stroke="#263238" stroke-miterlimit="10" stroke-linecap="round" stroke-linejoin="round"/>
<path d="M70.3124 147.062C68.3608 150.422 73.594 153.577 70.9998 158.174" stroke="#263238" stroke-miterlimit="10" stroke-linecap="round" stroke-linejoin="round"/>
<path d="M73.9034 147.062C71.9525 150.422 77.1857 153.577 74.5908 158.174" stroke="#263238" stroke-miterlimit="10" stroke-linecap="round" stroke-linejoin="round"/>
<path d="M205.312 196.349C200.338 187.863 179.751 180.473 156.884 179.562C156.823 179.56 156.761 179.556 156.7 179.554C155.953 179.524 155.202 179.502 154.449 179.488L154.446 179.465C154.065 179.465 153.685 179.472 153.303 179.477C152.922 179.472 152.542 179.465 152.16 179.465L152.157 179.488C151.405 179.502 150.655 179.524 149.906 179.554C149.842 179.556 149.777 179.561 149.713 179.563C126.849 180.477 106.269 187.864 101.295 196.349C95.9787 205.416 88.1086 220.002 88.1086 220.002C92.5207 227.145 109.46 228.1 109.46 228.1L110.362 247.311H147.656H158.949H196.244L197.146 228.1C197.146 228.1 214.085 227.145 218.497 220.002C218.498 220.002 210.628 205.416 205.312 196.349Z" fill="#92E3A9" stroke="#263238" stroke-miterlimit="10" stroke-linecap="round" stroke-linejoin="round"/>
<path d="M128.062 240.388C128.062 240.388 88.4768 247.031 85.6278 241.606C85.3408 241.06 85.1518 240.409 85.0538 239.674C84.1228 233.129 89.7998 220.221 89.7998 220.221C94.2028 219.801 98.8228 220.942 102.519 222.293C102.526 222.3 102.526 222.3 102.526 222.293C106.824 223.875 109.876 225.758 109.904 225.842L109.61 226.486L109.512 226.689L118.759 226.983L127.033 227.249L127.222 227.256V227.27L128.062 240.388Z" fill="white"/>
<mask id="mask15_262_339" style="mask-type:luminance" maskUnits="userSpaceOnUse" x="84" y="220" width="45" height="24">
<path d="M128.062 240.388C128.062 240.388 88.4768 247.031 85.6278 241.606C85.3408 241.06 85.1518 240.409 85.0538 239.674C84.1228 233.129 89.7998 220.221 89.7998 220.221C94.2028 219.801 98.8228 220.942 102.519 222.293C102.526 222.3 102.526 222.3 102.526 222.293C106.824 223.875 109.876 225.758 109.904 225.842L109.61 226.486L109.512 226.689L118.759 226.983L127.033 227.249L127.222 227.256V227.27L128.062 240.388Z" fill="white"/>
</mask>
<g mask="url(#mask15_262_339)">
<path opacity="0.2" d="M109.61 226.486C100.552 226.661 97.115 227.907 97.115 227.907C97.115 227.907 99.404 224.302 102.519 222.293C102.526 222.3 102.526 222.3 102.526 222.293C106.824 223.875 109.876 225.758 109.904 225.842L109.61 226.486Z" fill="#92E3A9"/>
<path opacity="0.2" d="M128.062 240.388C128.062 240.388 88.477 247.031 85.628 241.606C85.341 241.06 85.152 240.409 85.054 239.674C86.069 240.059 87.105 240.311 88.113 240.346C93.293 240.528 119.417 237.301 119.417 237.301L118.759 226.983L118.738 226.647C121.244 226.773 124.002 226.962 127.033 227.249C127.096 227.256 127.159 227.263 127.222 227.27L128.062 240.388Z" fill="#92E3A9"/>
</g>
<path d="M128.062 240.388C128.062 240.388 88.4768 247.031 85.6278 241.606C85.3408 241.06 85.1518 240.409 85.0538 239.674C84.1228 233.129 89.7998 220.221 89.7998 220.221C94.2028 219.801 98.8228 220.942 102.519 222.293C102.526 222.3 102.526 222.3 102.526 222.293C106.824 223.875 109.876 225.758 109.904 225.842L109.61 226.486L109.512 226.689L118.759 226.983L127.033 227.249L127.222 227.256V227.27L128.062 240.388Z" stroke="#263238" stroke-miterlimit="10" stroke-linecap="round" stroke-linejoin="round"/>
<path d="M109.511 226.687C109.511 226.687 100.161 226.44 96.1755 228.267" stroke="#263238" stroke-miterlimit="10" stroke-linecap="round" stroke-linejoin="round"/>
<path d="M193.656 224.034C193.656 224.034 189.99 207.085 197.097 198.88" stroke="#263238" stroke-miterlimit="10" stroke-linecap="round" stroke-linejoin="round"/>
<path d="M199.885 207.323C199.885 207.323 195.071 210.81 194.198 216.48" stroke="#263238" stroke-miterlimit="10" stroke-linecap="round" stroke-linejoin="round"/>
<path d="M109.51 196.903C109.51 196.903 115.999 209.568 112.251 224.968" stroke="#263238" stroke-miterlimit="10" stroke-linecap="round" stroke-linejoin="round"/>
<path d="M104.803 202.773C104.803 202.773 109.932 205.896 112.251 210.765" stroke="#263238" stroke-miterlimit="10" stroke-linecap="round" stroke-linejoin="round"/>
<path d="M168.955 181.568C168.955 181.568 161.369 200.934 138.787 190.434" stroke="#263238" stroke-miterlimit="10" stroke-linecap="round" stroke-linejoin="round"/>
<path d="M204.139 194.699C204.139 194.699 199.246 197.551 197.041 203.851" stroke="#263238" stroke-miterlimit="10" stroke-linecap="round" stroke-linejoin="round"/>
<path d="M102.47 194.699C102.47 194.699 106.334 196.734 108.527 201.634" stroke="#263238" stroke-miterlimit="10" stroke-linecap="round" stroke-linejoin="round"/>
<path d="M135.804 180.935C135.804 180.935 138.319 191.251 152.753 191.484" stroke="#263238" stroke-miterlimit="10" stroke-linecap="round" stroke-linejoin="round"/>
<path d="M182.821 191.484C182.821 191.484 155.987 217.696 136.97 218.649" stroke="#263238" stroke-miterlimit="10" stroke-linecap="round" stroke-linejoin="round"/>
<path d="M121.92 195.917C121.92 195.917 125.636 204.261 132.412 207.323" stroke="#263238" stroke-miterlimit="10" stroke-linecap="round" stroke-linejoin="round"/>
<path d="M178.751 240.388C178.751 240.388 218.336 247.031 221.185 241.606C221.472 241.06 221.661 240.409 221.759 239.674C222.69 233.129 217.013 220.221 217.013 220.221C212.61 219.801 207.99 220.942 204.294 222.293C204.287 222.3 204.287 222.3 204.287 222.293C199.989 223.875 196.937 225.758 196.909 225.842L197.203 226.486L197.301 226.689L188.054 226.983L179.78 227.249L179.591 227.256V227.27L178.751 240.388Z" fill="white"/>
<mask id="mask16_262_339" style="mask-type:luminance" maskUnits="userSpaceOnUse" x="178" y="220" width="44" height="24">
<path d="M178.751 240.388C178.751 240.388 218.336 247.031 221.185 241.606C221.472 241.06 221.661 240.409 221.759 239.674C222.69 233.129 217.013 220.221 217.013 220.221C212.61 219.801 207.99 220.942 204.294 222.293C204.287 222.3 204.287 222.3 204.287 222.293C199.989 223.875 196.937 225.758 196.909 225.842L197.203 226.486L197.301 226.689L188.054 226.983L179.78 227.249L179.591 227.256V227.27L178.751 240.388Z" fill="white"/>
</mask>
<g mask="url(#mask16_262_339)">
<path opacity="0.2" d="M197.203 226.486C206.261 226.661 209.698 227.907 209.698 227.907C209.698 227.907 207.409 224.302 204.294 222.293C204.287 222.3 204.287 222.3 204.287 222.293C199.989 223.875 196.937 225.758 196.909 225.842L197.203 226.486Z" fill="#92E3A9"/>
<path opacity="0.2" d="M178.751 240.388C178.751 240.388 218.336 247.031 221.185 241.606C221.472 241.06 221.661 240.409 221.759 239.674C220.744 240.059 219.708 240.311 218.7 240.346C213.52 240.528 187.396 237.301 187.396 237.301L188.054 226.983L188.075 226.647C185.569 226.773 182.811 226.962 179.78 227.249C179.717 227.256 179.654 227.263 179.591 227.27L178.751 240.388Z" fill="#92E3A9"/>
</g>
<path d="M178.751 240.388C178.751 240.388 218.336 247.031 221.185 241.606C221.472 241.06 221.661 240.409 221.759 239.674C222.69 233.129 217.013 220.221 217.013 220.221C212.61 219.801 207.99 220.942 204.294 222.293C204.287 222.3 204.287 222.3 204.287 222.293C199.989 223.875 196.937 225.758 196.909 225.842L197.203 226.486L197.301 226.689L188.054 226.983L179.78 227.249L179.591 227.256V227.27L178.751 240.388Z" stroke="#263238" stroke-miterlimit="10" stroke-linecap="round" stroke-linejoin="round"/>
<path d="M197.302 226.687C197.302 226.687 206.652 226.44 210.637 228.267" stroke="#263238" stroke-miterlimit="10" stroke-linecap="round" stroke-linejoin="round"/>
<path d="M166.719 181.607C166.719 181.607 162.443 189.323 152.493 188.836C144.348 188.427 138.787 182.253 138.787 182.253C141.713 179.881 142.147 174.142 141.943 170.372C141.936 170.287 141.936 170.208 141.93 170.122C141.916 169.878 141.897 169.635 141.877 169.398C141.653 166.676 141.132 164.627 141.132 164.627L165.499 165.846C164.452 168.758 163.991 171.197 163.898 173.207C163.839 174.465 163.925 175.559 164.09 176.502C164.096 176.541 164.103 176.574 164.108 176.607C164.782 180.23 166.719 181.607 166.719 181.607Z" fill="white" stroke="#263238" stroke-miterlimit="10"/>
<path d="M112.252 237.098V239.702C112.252 240.521 112.915 241.184 113.734 241.184H192.175C192.993 241.184 193.657 240.521 193.657 239.702V237.098H112.252Z" fill="#757575" stroke="#263238" stroke-miterlimit="10" stroke-linecap="round" stroke-linejoin="round"/>
<path d="M203.29 198.789L193.182 236.531C192.971 237.296 192.338 237.961 191.6 238.252C191.336 238.357 191.066 238.416 190.79 238.416H115.118C114.842 238.416 114.572 238.357 114.308 238.252C113.57 237.961 112.937 237.296 112.726 236.531L102.618 198.789C102.335 197.748 102.954 196.904 103.996 196.904H201.912C202.954 196.903 203.574 197.747 203.29 198.789Z" fill="#BFBFBF" stroke="#263238" stroke-miterlimit="10"/>
<path d="M201.643 200.765L191.6 238.252C191.336 238.357 191.066 238.417 190.79 238.417H115.118C114.842 238.417 114.572 238.357 114.308 238.252L104.266 200.765C103.983 199.724 104.602 198.88 105.643 198.88H200.265C201.307 198.88 201.926 199.724 201.643 200.765Z" fill="#999999" stroke="#263238" stroke-miterlimit="10" stroke-linecap="round" stroke-linejoin="round"/>
<path d="M158.078 221.86C155.839 221.86 154.024 220.518 154.024 218.864C154.024 218.483 154.125 218.119 154.301 217.783C153.868 217.706 153.418 217.659 152.953 217.659C149.815 217.659 147.27 219.541 147.27 221.86C147.27 224.181 149.815 226.061 152.953 226.061C156.092 226.061 158.637 224.181 158.637 221.86C158.637 221.849 158.635 221.84 158.635 221.829C158.453 221.848 158.268 221.86 158.078 221.86Z" fill="#BFBFBF" stroke="#263238" stroke-miterlimit="10"/>
<path d="M165.5 165.845C164.453 168.757 163.992 171.196 163.899 173.206C161.257 175.855 158.014 177.826 154.437 177.265C149.264 176.448 144.961 172.626 141.878 169.398C141.654 166.676 141.133 164.627 141.133 164.627L165.5 165.845Z" fill="#263238"/>
<path d="M170.464 148.105C170.464 148.105 172.429 145.971 173.394 146.673C174.361 147.375 175.502 149.365 174.975 151.178C174.449 152.992 172.165 156.151 171.99 157.994C171.815 159.836 170.632 161.924 169.337 160.705C168.041 159.486 170.464 148.105 170.464 148.105Z" fill="white" stroke="#263238" stroke-miterlimit="10"/>
<path d="M135.444 148.105C135.444 148.105 133.479 145.971 132.513 146.673C131.547 147.375 130.407 149.365 130.933 151.178C131.46 152.992 133.741 156.151 133.917 157.994C134.092 159.836 135.275 161.924 136.571 160.705C137.866 159.486 135.444 148.105 135.444 148.105Z" fill="white" stroke="#263238" stroke-miterlimit="10"/>
<path d="M152.539 123.428C177.252 123.428 171.376 156.34 166.829 166.906C165.233 170.617 156.956 175.487 152.954 175.487C149.232 175.487 140.716 169.667 139.206 166.182C134.606 155.562 128.984 123.428 152.539 123.428Z" fill="white" stroke="#263238" stroke-miterlimit="10"/>
<path d="M156.728 149.679C156.728 149.679 163.03 148.523 165.151 151.008" stroke="#263238" stroke-miterlimit="10" stroke-linecap="round" stroke-linejoin="round"/>
<path d="M161.492 154.431C161.492 155.191 161.107 155.805 160.631 155.805C160.155 155.805 159.77 155.191 159.77 154.431C159.77 153.671 160.155 153.056 160.631 153.056C161.107 153.056 161.492 153.671 161.492 154.431Z" fill="#263238"/>
<path d="M149.18 149.679C149.18 149.679 143.371 149.167 140.755 151.008" stroke="#263238" stroke-miterlimit="10" stroke-linecap="round" stroke-linejoin="round"/>
<path d="M144.416 154.431C144.416 155.191 144.801 155.805 145.277 155.805C145.751 155.805 146.137 155.191 146.137 154.431C146.137 153.671 145.751 153.056 145.277 153.056C144.801 153.056 144.416 153.671 144.416 154.431Z" fill="#263238"/>
<path d="M162.768 131.842C162.768 131.842 153.905 135.177 143.725 131.842C143.725 131.842 140.39 131.648 139.074 133.324C137.758 135.002 139.074 140.179 139.424 142.286C139.776 144.391 136.528 145.854 136.967 151.178L135.711 153.015C135.711 153.015 132.225 144.449 133.103 137.076C133.98 129.706 138.635 126.84 138.635 126.84C138.635 126.84 140.755 120.474 153.191 120.523C166.593 120.574 167.947 127.828 167.947 127.828C167.947 127.828 177.033 133.887 170.311 153.633L168.852 151.178C168.852 151.178 169.561 147.2 167.156 143.69C165.985 141.981 167.857 136.844 167.418 134.211C166.979 131.579 162.768 131.842 162.768 131.842Z" fill="#263238"/>
<path d="M154.424 153.056C154.424 153.056 154.796 158.678 155.885 160.815C156.973 162.952 153.164 163.313 151.533 162.044" stroke="#263238" stroke-miterlimit="10" stroke-linecap="round" stroke-linejoin="round"/>
<path d="M148.203 166.552C148.203 167.41 151.031 168.487 153.805 168.487C156.598 168.487 158.665 167.32 158.252 166.893" stroke="#263238" stroke-miterlimit="10" stroke-linecap="round" stroke-linejoin="round"/>
<path d="M170.168 135.444C170.168 135.444 166.543 140.375 158.307 143.779V141.431C158.307 141.431 150.865 145.725 144.161 145.069L145.678 142.018C145.678 142.018 140.028 148.005 135.245 147.77C130.461 147.536 129.074 120.522 153.19 120.522C172.789 120.522 170.168 135.444 170.168 135.444Z" fill="#263238"/>
<path d="M166.105 137.078C166.105 137.078 164.817 144.224 171.556 149.456C171.556 149.456 175.55 145.163 174.012 137.078C172.474 128.991 168.954 128.741 168.954 128.741L166.105 137.078Z" fill="#263238"/>
<path opacity="0.2" d="M163.104 125.917C163.104 125.917 160.592 136.592 151.348 142.017" stroke="white" stroke-miterlimit="10"/>
<path opacity="0.2" d="M157.227 125.917C157.227 125.917 153.129 136.417 137.904 138.167" stroke="white" stroke-miterlimit="10"/>
<path opacity="0.2" d="M166.719 129.844C166.719 129.844 166.779 135.367 163.104 138.167" stroke="white" stroke-miterlimit="10"/>
<path d="M255.086 47.3494L262.037 33.8674" stroke="#263238" stroke-miterlimit="10" stroke-linecap="round" stroke-linejoin="round"/>
<path d="M262.037 54.6616L277.67 45.2781" stroke="#263238" stroke-miterlimit="10" stroke-linecap="round" stroke-linejoin="round"/>
<path d="M268.5 65.9183L282.074 65.0587" stroke="#263238" stroke-miterlimit="10" stroke-linecap="round" stroke-linejoin="round"/>
<path d="M45.8539 252.034H35.0256V242.732C35.0256 241.877 35.7186 241.184 36.574 241.184H269.334C270.189 241.184 270.882 241.877 270.882 242.732V252.034" fill="white"/>
<path d="M45.8539 252.034H35.0256V242.732C35.0256 241.877 35.7186 241.184 36.574 241.184H269.334C270.189 241.184 270.882 241.877 270.882 242.732V252.034" stroke="#263238" stroke-miterlimit="10"/>
<path d="M258.304 252.034H161.492" stroke="#263238" stroke-miterlimit="10"/>
<path d="M154.56 252.034H147.603" stroke="#263238" stroke-miterlimit="10"/>
<path d="M102.549 252.034H51.4539" stroke="#263238" stroke-miterlimit="10"/>
</svg>
