<svg width="28" height="25" viewBox="0 0 28 25" fill="none" xmlns="http://www.w3.org/2000/svg">
<path d="M14 0.5C13.8347 0.500021 13.671 0.532831 13.5185 0.596529C13.3659 0.660228 13.2276 0.75355 13.1113 0.871094L0.503906 11.8721C0.425167 11.9302 0.361171 12.0059 0.31707 12.0933C0.27297 12.1807 0.249996 12.2771 0.25 12.375C0.25 12.5408 0.315848 12.6997 0.433058 12.8169C0.550268 12.9342 0.70924 13 0.875 13H4V23C4 23.69 4.56 24.25 5.25 24.25H10.25C10.94 24.25 11.5 23.69 11.5 23V15.5H16.5V23C16.5 23.69 17.06 24.25 17.75 24.25H22.75C23.44 24.25 24 23.69 24 23V13H27.125C27.2908 13 27.4497 12.9342 27.5669 12.8169C27.6842 12.6997 27.75 12.5408 27.75 12.375C27.75 12.2771 27.727 12.1807 27.6829 12.0933C27.6388 12.0059 27.5748 11.9302 27.4961 11.8721L14.896 0.878418C14.8936 0.875966 14.8911 0.873525 14.8887 0.871094C14.7724 0.75355 14.6341 0.660228 14.4815 0.596529C14.329 0.532831 14.1653 0.500021 14 0.5Z" fill="#374151"/>
</svg>
