<?xml version="1.0"?><svg xmlns="http://www.w3.org/2000/svg"  viewBox="0 0 24 24" width="30px" height="30px">    <path d="M 9.6171875 1.3535156 L 8.4394531 3.9726562 L 5.578125 4.2148438 L 6.1640625 7.0234375 L 3.9902344 8.9003906 L 6.1171875 10.830078 L 5.4628906 13.626953 L 8.3164062 13.9375 L 9.4316406 16.585938 L 11.923828 15.158203 L 14.380859 16.646484 L 15.558594 14.027344 L 18.421875 13.785156 L 17.835938 10.976562 L 20.009766 9.0996094 L 17.882812 7.1699219 L 18.537109 4.3730469 L 15.681641 4.0625 L 14.566406 1.4140625 L 12.074219 2.8417969 L 9.6171875 1.3535156 z M 17 15.912109 L 16.900391 15.921875 L 16.205078 17.466797 L 15.279297 19.527344 L 13.347656 18.357422 L 11.896484 17.480469 L 10.427734 18.322266 L 8.4667969 19.443359 L 7.5898438 17.361328 L 7 15.960938 L 7 23 L 12 20.5 L 17 23 L 17 15.912109 z"/></svg>