<?xml version="1.0"?><svg xmlns="http://www.w3.org/2000/svg"  viewBox="0 0 30 30" width="40px" height="40px">    <path d="M 10 2 C 8.895 2 8 2.895 8 4 L 8 7 C 8 8.105 8.895 9 10 9 L 12.5 9 L 15 11.5 L 17.5 9 L 20 9 C 21.105 9 22 8.105 22 7 L 22 4 C 22 2.895 21.105 2 20 2 L 10 2 z M 9 11.001953 C 6.577 11.001953 4.6113281 12.460266 4.6113281 15.072266 C 4.6113281 16.176266 5.2324219 17.037109 5.2324219 17.037109 C 5.2324219 17.037109 4.9492188 17.173672 4.9492188 17.763672 C 4.9492188 18.909672 5.6855469 19.183594 5.6855469 19.183594 C 5.7645469 19.879594 6.609 20.818703 7 21.220703 L 7 22.345703 C 6.068 23.770703 3.954 23.525 3 26 L 15 26 C 14.046 23.525 11.932 23.769703 11 22.345703 L 11 21.222656 C 11.391 20.820656 12.235453 19.880547 12.314453 19.185547 C 12.314453 19.185547 13.050781 18.676625 13.050781 17.765625 C 13.050781 17.133625 12.767578 17.037109 12.767578 17.037109 C 12.767578 17.037109 13.275391 16.076203 13.275391 15.158203 C 13.275391 13.318203 12.351781 11.902344 10.800781 11.902344 C 10.800781 11.902344 10.141 11.001953 9 11.001953 z M 21 11.001953 C 18.577 11.001953 16.611328 12.460266 16.611328 15.072266 C 16.611328 16.176266 17.232422 17.037109 17.232422 17.037109 C 17.232422 17.037109 16.949219 17.173672 16.949219 17.763672 C 16.949219 18.909672 17.685547 19.183594 17.685547 19.183594 C 17.764547 19.879594 18.609 20.818703 19 21.220703 L 19 22.345703 C 18.394 23.271703 17.289125 23.494844 16.328125 24.214844 C 16.524125 24.530844 16.709234 24.875297 16.865234 25.279297 L 17.144531 26 L 27 26 C 26.046 23.525 23.932 23.769703 23 22.345703 L 23 21.222656 C 23.391 20.820656 24.235453 19.880547 24.314453 19.185547 C 24.314453 19.185547 25.050781 18.676625 25.050781 17.765625 C 25.050781 17.133625 24.767578 17.037109 24.767578 17.037109 C 24.767578 17.037109 25.275391 16.076203 25.275391 15.158203 C 25.275391 13.318203 24.351781 11.902344 22.800781 11.902344 C 22.800781 11.902344 22.141 11.001953 21 11.001953 z"/></svg>