<?xml version="1.0"?><svg xmlns="http://www.w3.org/2000/svg"  viewBox="0 0 50 50" width="50px" height="50px">    <path d="M49.71,32.22l-1.42,1.42l-2.83-2.83l1.42-1.42L49.71,32.22z M38,34v5.5l-3.6,2.7l1.2,1.6l4.4-3.3V34H38z M49,40 c0,5.51-4.49,10-10,10c-2.25,0-4.33-0.75-6-2H7V2h25.41L43,12.59v18.25C46.53,32.38,49,35.91,49,40z M32,13h8.59L32,4.41V13z M22,22 h14v-2H22V22z M22,30h13v-2H22V30z M20,34h-6v6h6V34z M20,26h-6v6h6V26z M20,18h-6v6h6V18z M29.84,36H22v2h7.2 C29.34,37.3,29.56,36.63,29.84,36z M47,40c0-4.07-3.06-7.44-7-7.94V30h1v-2h-4v2h1v2.07c-0.34,0.04-0.67,0.1-1,0.19 c-2.1,0.54-3.86,1.91-4.92,3.74c-0.36,0.62-0.64,1.29-0.83,2C31.09,38.64,31,39.31,31,40c0,4.41,3.59,8,8,8S47,44.41,47,40z M18,20 h-2v2h2V20z M18,28h-2v2h2V28z M18,36h-2v2h2V36z"/></svg>