<svg xmlns="http://www.w3.org/2000/svg"  viewBox="0 0 50 50" width="40px" height="40px"><path d="M 37 0 L 36.400391 3.1992188 C 36.100391 3.2992188 35.700391 3.3996094 35.400391 3.5996094 L 32.699219 1.6992188 L 29.699219 4.6992188 L 31.5 7.1992188 C 31.4 7.5992188 31.199609 7.9007812 31.099609 8.3007812 L 28 8.8007812 L 28 13 L 31.099609 13.5 C 31.199609 13.8 31.3 14.2 31.5 14.5 L 29.699219 17.199219 L 32.699219 20.199219 L 35.400391 18.400391 C 35.800391 18.600391 36.1 18.700781 36.5 18.800781 L 37 22 L 41.099609 22 L 41.699219 18.900391 C 41.999219 18.800391 42.299219 18.7 42.699219 18.5 L 45.400391 20.300781 L 48.400391 17.300781 L 46.5 14.699219 C 46.7 14.299219 46.800391 13.899609 46.900391 13.599609 L 50 13 L 50 8.8007812 L 46.800781 8.3007812 C 46.700781 8.0007812 46.600391 7.6007812 46.400391 7.3007812 L 48.199219 4.5996094 L 45.300781 1.6992188 L 42.699219 3.5996094 C 42.399219 3.3996094 41.999219 3.2992187 41.699219 3.1992188 L 41.199219 0 L 37 0 z M 8 8 C 5.794 8 4 9.794 4 12 L 4 34 C 4 34.732221 4.2118795 35.409099 4.5566406 36 L 2 36 C 1.448 36 1 36.448 1 37 C 1 39.757 3.243 42 6 42 L 44 42 C 46.757 42 49 39.757 49 37 C 49 36.448 48.552 36 48 36 L 45.443359 36 C 45.788121 35.409099 46 34.732221 46 34 L 46 21.943359 C 45.367 22.349359 44.702 22.708 44 23 L 44 34 C 44 35.103 43.103 36 42 36 L 8 36 C 6.897 36 6 35.103 6 34 L 6 12 C 6 10.897 6.897 10 8 10 L 26.050781 10 C 26.102781 9.317 26.208328 8.65 26.361328 8 L 8 8 z M 39 8 C 40.65 8 42 9.2 42 11 C 42 12.65 40.65 14 39 14 C 37.35 14 36 12.65 36 11 C 36 9.35 37.35 8 39 8 z"/></svg>