<?xml version="1.0"?><svg xmlns="http://www.w3.org/2000/svg"  viewBox="0 0 30 30" width="40px" height="40px">    <path d="M 14.28125 2.0039062 C 8.86125 1.8659063 4.0044844 5.8295938 3.1464844 11.183594 C 2.5044844 15.191594 4.031375 18.872953 6.734375 21.251953 C 7.564375 21.981953 8 23.061969 8 24.167969 L 8 28 L 18 28 L 18 26.441406 C 18 25.580406 18.550187 24.816922 19.367188 24.544922 L 22.632812 23.457031 C 23.448813 23.184031 24 22.419594 24 21.558594 L 24 17.744141 L 26.267578 16.962891 A 1 1 0 0 0 27 16 A 1 1 0 0 0 26.773438 15.369141 L 26.746094 15.335938 A 1 1 0 0 0 26.716797 15.302734 L 23.958984 11.998047 C 23.5582 6.4851023 19.861766 2.1444805 14.28125 2.0039062 z M 17 6 C 17.553 6 18 6.447 18 7 L 18 7.1835938 C 18.348 7.3075937 18.6625 7.4915625 18.9375 7.7265625 L 19.097656 7.6347656 C 19.572656 7.3577656 20.187844 7.521 20.464844 8 C 20.740844 8.479 20.575656 9.0892344 20.097656 9.3652344 L 19.945312 9.453125 C 19.978313 9.631125 20 9.813 20 10 C 20 10.187 19.978313 10.368875 19.945312 10.546875 L 20.097656 10.634766 C 20.576656 10.910766 20.741844 11.522 20.464844 12 C 20.278844 12.321 19.943656 12.5 19.597656 12.5 C 19.427656 12.5 19.254656 12.456234 19.097656 12.365234 L 18.9375 12.273438 C 18.6625 12.508437 18.348 12.692406 18 12.816406 L 18 13 C 18 13.553 17.553 14 17 14 C 16.447 14 16 13.553 16 13 L 16 12.816406 C 15.652 12.692406 15.3375 12.508438 15.0625 12.273438 L 14.902344 12.365234 C 14.745344 12.456234 14.572344 12.5 14.402344 12.5 C 14.056344 12.5 13.720156 12.321 13.535156 12 C 13.259156 11.521 13.424344 10.910766 13.902344 10.634766 L 14.054688 10.546875 C 14.021688 10.368875 14 10.187 14 10 C 14 9.813 14.021688 9.631125 14.054688 9.453125 L 13.902344 9.3652344 C 13.424344 9.0892344 13.259156 8.479 13.535156 8 C 13.811156 7.521 14.425344 7.3577656 14.902344 7.6347656 L 15.0625 7.7265625 C 15.3375 7.4915625 15.652 7.3065938 16 7.1835938 L 16 7 C 16 6.447 16.447 6 17 6 z M 17 9 A 1 1 0 0 0 16 10 A 1 1 0 0 0 17 11 A 1 1 0 0 0 18 10 A 1 1 0 0 0 17 9 z M 11 12 C 11.553 12 12 12.447 12 13 L 12 13.183594 C 12.348 13.307594 12.6625 13.491562 12.9375 13.726562 L 13.097656 13.634766 C 13.574656 13.359766 14.187844 13.521 14.464844 14 C 14.740844 14.479 14.575656 15.089234 14.097656 15.365234 L 13.945312 15.453125 C 13.978313 15.631125 14 15.813 14 16 C 14 16.187 13.978312 16.368875 13.945312 16.546875 L 14.097656 16.634766 C 14.576656 16.910766 14.741844 17.522 14.464844 18 C 14.278844 18.321 13.943656 18.5 13.597656 18.5 C 13.427656 18.5 13.254656 18.456234 13.097656 18.365234 L 12.9375 18.273438 C 12.6625 18.508437 12.348 18.692406 12 18.816406 L 12 19 C 12 19.553 11.553 20 11 20 C 10.447 20 10 19.553 10 19 L 10 18.816406 C 9.652 18.692406 9.3375 18.508437 9.0625 18.273438 L 8.9023438 18.365234 C 8.7453437 18.456234 8.5723438 18.5 8.4023438 18.5 C 8.0563437 18.5 7.7201562 18.321 7.5351562 18 C 7.2591563 17.521 7.4243438 16.910766 7.9023438 16.634766 L 8.0546875 16.546875 C 8.0216875 16.368875 8 16.187 8 16 C 8 15.813 8.0216875 15.631125 8.0546875 15.453125 L 7.9023438 15.365234 C 7.4243438 15.089234 7.2591563 14.479 7.5351562 14 C 7.8111562 13.521 8.4243437 13.358766 8.9023438 13.634766 L 9.0625 13.726562 C 9.3375 13.491563 9.652 13.307594 10 13.183594 L 10 13 C 10 12.447 10.447 12 11 12 z M 11 15 A 1 1 0 0 0 10 16 A 1 1 0 0 0 11 17 A 1 1 0 0 0 12 16 A 1 1 0 0 0 11 15 z"/></svg>