<?xml version="1.0"?><svg xmlns="http://www.w3.org/2000/svg"  viewBox="0 0 24 24" width="24px" height="24px">    <path d="M 7 2 C 6.448 2 6 2.448 6 3 L 6 9 C 6 9.552 6.448 10 7 10 C 10.491 10 12.226969 11.643031 12.292969 11.707031 L 12.994141 12.396484 L 13.701172 11.712891 C 13.773172 11.643891 15.509 10 19 10 C 19.552 10 20 9.552 20 9 L 20 3 C 20 2.448 19.552 2 19 2 C 15.988 2 13.984 3.0475156 13 3.7285156 C 12.016 3.0475156 10.012 2 7 2 z M 6 12 A 3 3 0 0 0 5.0605469 12.154297 L 0.9765625 13.113281 L 0.9765625 20.314453 L 4.9765625 19.007812 L 13.132812 21.861328 C 13.784812 22.089328 14.501328 22.033031 15.111328 21.707031 L 21.242188 18.429688 C 21.913187 18.070688 22.187234 17.249547 21.865234 16.560547 C 21.532234 15.848547 20.687656 15.539187 19.972656 15.867188 L 14.060547 18.578125 L 13.689453 18.089844 L 13.982422 17.433594 C 14.437422 16.418594 13.977031 15.227203 12.957031 14.783203 L 7.4726562 12.388672 A 3 3 0 0 0 6 12 z"/></svg>