<?xml version="1.0"?><svg xmlns="http://www.w3.org/2000/svg"  viewBox="0 0 24 24" width="30px" height="30px">    <path d="M 14 2 C 13.45 2 13 2.45 13 3 L 13 11.759766 C 14.37 10.659766 16.11 10 18 10 C 19.06 10 20.07 10.210078 21 10.580078 L 21 9 C 21 8.448 20.552 8 20 8 L 17 8 C 16.448 8 16 7.552 16 7 C 16 6.448 16.448 6 17 6 L 20 6 C 20.552 6 21 5.552 21 5 L 21 3 C 21 2.45 20.55 2 20 2 L 14 2 z M 4 5 C 3.45 5 3 5.45 3 6 L 3 20 C 3 20.55 3.45 21 4 21 L 10 21 C 10.19 21 10.379297 20.939609 10.529297 20.849609 C 10.189297 19.969609 10 19 10 18 C 10 17.66 10.020547 17.33 10.060547 17 L 8 17 C 7.448 17 7 16.552 7 16 C 7 15.448 7.448 15 8 15 L 10.580078 15 C 10.700078 14.7 10.84 14.410625 11 14.140625 L 11 12 C 11 11.448 10.552 11 10 11 L 8 11 C 7.448 11 7 10.552 7 10 C 7 9.448 7.448 9 8 9 L 10 9 C 10.552 9 11 8.552 11 8 L 11 6 C 11 5.45 10.55 5 10 5 L 4 5 z M 18 12 C 14.698136 12 12 14.698136 12 18 C 12 21.301864 14.698136 24 18 24 C 21.301864 24 24 21.301864 24 18 C 24 16.732359 23.600681 15.555141 22.923828 14.583984 A 1.0001 1.0001 0 0 0 22.660156 14.230469 C 21.55809 12.871769 19.876693 12 18 12 z M 18 14 C 19.004864 14 19.907334 14.377914 20.607422 14.982422 L 18.003906 17.59375 L 17.712891 17.296875 A 1.0012983 1.0012983 0 0 0 16.287109 18.703125 L 17.287109 19.716797 A 1.0001 1.0001 0 0 0 18.708984 19.720703 L 21.755859 16.662109 C 21.904097 17.081823 22 17.527374 22 18 C 22 20.220984 20.220984 22 18 22 C 15.779016 22 14 20.220984 14 18 C 14 15.779016 15.779016 14 18 14 z"/></svg>