<svg xmlns="http://www.w3.org/2000/svg"  viewBox="0 0 479.805 479.805" width="40px" height="40px"><path d="M466.852,202.893l-13.18-16.35c-6.62-8.23-9.98-18.57-9.46-29.12l1.05-20.97c1.37-27.51-16.93-52.69-43.51-59.89	l-20.27-5.49c-10.2-2.75-18.99-9.15-24.77-17.99l-11.48-17.58c-15.06-23.06-44.66-32.68-70.4-22.88l-19.62,7.48	c-9.87,3.76-20.75,3.76-30.62,0l-19.62-7.48c-25.73-9.8-55.34-0.18-70.4,22.88l-11.48,17.58c-5.78,8.84-14.57,15.24-24.77,17.99	l-20.27,5.49c-26.58,7.2-44.88,32.38-43.51,59.89l1.05,20.97c0.52,10.55-2.84,20.89-9.46,29.12l-13.18,16.35	c-17.27,21.44-17.27,52.58,0,74.02l13.18,16.35c6.17,7.68,9.51,17.19,9.51,26.99c0,1.558,0.068-0.232-1.1,23.1	c-1.37,27.51,16.93,52.69,43.51,59.89l20.27,5.49c10.2,2.75,18.99,9.15,24.77,17.99l11.48,17.58c11.1,17,30.1,26.69,49.62,26.69	c28.397,0,43.308-21.847,71.02-11.29l19.62,7.48c25.74,9.8,55.34,0.18,70.4-22.88l11.48-17.58c5.78-8.84,14.57-15.24,24.77-17.99	l20.27-5.49c26.58-7.2,44.88-32.38,43.51-59.89l-1.05-20.97c-0.52-10.55,2.84-20.89,9.46-29.12l13.18-16.35	C484.122,255.473,484.122,224.333,466.852,202.893z M239.902,414.903c-96.135,0-175-78.888-175-175c0-96.135,78.888-175,175-175	c96.135,0,175,78.888,175,175C414.902,336.038,336.015,414.903,239.902,414.903z M239.902,80.903c-87.673,0-159,71.327-159,159	s71.327,159,159,159s159-71.327,159-159S327.575,80.903,239.902,80.903z M245.103,206.903c0-4.418,3.582-8,8-8h39.6	c4.418,0,8,3.582,8,8s-3.582,8-8,8h-31.6v17h18.4c4.418,0,8,3.582,8,8s-3.582,8-8,8h-18.4v17h31.6c4.418,0,8,3.582,8,8s-3.582,8-8,8	h-39.6c-4.418,0-8-3.582-8-8V206.903z M179.103,206.903c0-4.418,3.582-8,8-8h23.1c13.509,0,24.5,10.991,24.5,24.5	c0,10.087-6.128,18.771-14.857,22.522l13.717,22.862c3.219,5.364-0.706,12.117-6.852,12.117c-2.718,0-5.368-1.385-6.868-3.885	l-19.8-33c-3.195-5.324,0.651-12.116,6.86-12.116h3.3c4.687,0,8.5-3.813,8.5-8.5s-3.813-8.5-8.5-8.5h-15.1v58c0,4.418-3.582,8-8,8	s-8-3.582-8-8V206.903z M160.702,214.903h-31.6v17h25c4.418,0,8,3.582,8,8s-3.582,8-8,8h-25v25c0,4.418-3.582,8-8,8s-8-3.582-8-8	v-66c0-4.418,3.582-8,8-8h39.6c4.418,0,8,3.582,8,8S165.121,214.903,160.702,214.903z M299.902,331.903h-120c-4.418,0-8-3.582-8-8	s3.582-8,8-8h120c4.418,0,8,3.582,8,8S304.321,331.903,299.902,331.903z M366.702,206.903c0,4.418-3.582,8-8,8h-31.6v17h18.4	c4.418,0,8,3.582,8,8s-3.582,8-8,8h-18.4v17h31.6c4.418,0,8,3.582,8,8s-3.582,8-8,8h-39.6c-4.418,0-8-3.582-8-8v-66	c0-4.418,3.582-8,8-8h39.6C363.121,198.903,366.702,202.484,366.702,206.903z"/></svg>