<svg xmlns="http://www.w3.org/2000/svg"  viewBox="0 0 24 24" width="40px" height="40px"><path d="M 6 3 C 3.8027056 3 2 4.8027056 2 7 C 2 8.8503017 3.2842135 10.405592 5 10.855469 L 5 15.832031 A 1.0001 1.0001 0 0 0 5 16.158203 L 5 20 A 1.0001 1.0001 0 0 0 6 21 L 9 21 A 1.0001 1.0001 0 1 0 9 19 L 7 19 L 7 17 L 8 17 A 1.0001 1.0001 0 1 0 8 15 L 7 15 L 7 10.855469 C 8.7157865 10.405592 10 8.8503017 10 7 C 10 4.8027056 8.1972944 3 6 3 z M 6 5 C 7.1164141 5 8 5.8835859 8 7 C 8 8.0855278 7.162361 8.9431814 6.0898438 8.9902344 A 1.0001 1.0001 0 0 0 5.984375 8.9863281 A 1.0001 1.0001 0 0 0 5.9082031 8.9902344 C 4.8366323 8.9422096 4 8.0848637 4 7 C 4 5.8835859 4.8835859 5 6 5 z M 13 6 C 12.448 6 12 6.448 12 7 L 12 10 C 12 10.552 12.448 11 13 11 L 21 11 C 21.552 11 22 10.552 22 10 L 22 7 C 22 6.448 21.552 6 21 6 L 13 6 z M 13 13 C 12.448 13 12 13.448 12 14 L 12 17 C 12 17.552 12.448 18 13 18 L 21 18 C 21.552 18 22 17.552 22 17 L 22 14 C 22 13.448 21.552 13 21 13 L 13 13 z"/></svg>