<?xml version="1.0"?><svg xmlns="http://www.w3.org/2000/svg"  viewBox="0 0 24 24" width="40px" height="40px">    <path d="M 6.171875 3 C 5.483875 3 4.8837969 3.4687187 4.7167969 4.1367188 L 4 7 C 3.448 7 3 7.448 3 8 L 3 19 C 3 20.105 3.895 21 5 21 L 19 21 C 20.105 21 21 20.105 21 19 L 21 8 C 21 7.448 20.552 7 20 7 L 13.78125 7 C 13.32225 7 12.921547 6.6871875 12.810547 6.2421875 L 12.283203 4.1367188 C 12.116203 3.4677187 11.516125 3 10.828125 3 L 6.171875 3 z M 13.417969 3 C 13.555969 3.239 13.669281 3.4934844 13.738281 3.7714844 L 14.171875 5.5 L 19.625 5.5 L 19.283203 4.1367188 C 19.116203 3.4687187 18.516125 3 17.828125 3 L 13.417969 3 z"/></svg>