<svg xmlns="http://www.w3.org/2000/svg"  viewBox="0 0 50 50" width="40px" height="40px"><path d="M 6 2 C 3.792969 2 2 3.792969 2 6 L 2.015625 30.683594 L 2.03125 30.683594 C 2.023438 30.789063 2 30.890625 2 31 C 2 33.207031 3.792969 35 6 35 L 18 35 L 18 33 L 6 33 C 4.898438 33 4 32.101563 4 31 C 4 29.898438 4.898438 29 6 29 L 18 29 L 18 19 C 18 15.691406 20.691406 13 24 13 L 30 13 L 30 2 Z M 9 7 L 23 7 C 23.550781 7 24 7.449219 24 8 L 24 10 C 24 10.550781 23.550781 11 23 11 L 9 11 C 8.449219 11 8 10.550781 8 10 L 8 8 C 8 7.449219 8.449219 7 9 7 Z M 24 15 C 21.792969 15 20 16.792969 20 19 L 20.015625 43.683594 L 20.03125 43.683594 C 20.023438 43.789063 20 43.890625 20 44 C 20 46.207031 21.792969 48 24 48 L 48 48 L 48 46 L 24 46 C 22.898438 46 22 45.101563 22 44 C 22 42.898438 22.898438 42 24 42 L 48 42 L 48 15 Z M 27 20 L 41 20 C 41.550781 20 42 20.449219 42 21 L 42 23 C 42 23.550781 41.550781 24 41 24 L 27 24 C 26.449219 24 26 23.550781 26 23 L 26 21 C 26 20.449219 26.449219 20 27 20 Z"/></svg>