<?xml version="1.0"?><svg xmlns="http://www.w3.org/2000/svg"  viewBox="0 0 30 30" width="40px" height="40px">    <path d="M 5 5 C 3.895 5 3 5.895 3 7 L 3 22 C 3 23.105 3.895 24 5 24 L 9 24 L 9 28 A 1 1 0 0 0 10 29 A 1 1 0 0 0 10.837891 28.542969 L 14.25 24 L 25 24 C 26.105 24 27 23.105 27 22 L 27 7 C 27 5.895 26.105 5 25 5 L 5 5 z M 9 8 C 9.4 8 9.7629219 8.2374687 9.9199219 8.6054688 L 12.919922 15.605469 C 13.137922 16.112469 12.901531 16.701922 12.394531 16.919922 C 12.266531 16.975922 12.132 17 12 17 C 11.612 17 11.242078 16.773531 11.080078 16.394531 L 10.912109 16 L 7.0878906 16 L 6.9199219 16.394531 C 6.7029219 16.902531 6.1114688 17.139922 5.6054688 16.919922 C 5.0984688 16.701922 4.8620781 16.113422 5.0800781 15.607422 L 8.0800781 8.6074219 C 8.2370781 8.2384219 8.6 8 9 8 z M 21 11.001953 C 21.552 11.001953 22 11.448953 22 12.001953 L 22 13.001953 L 24 13.001953 C 24.552 13.001953 25 13.448953 25 14.001953 C 25 14.554953 24.552 15 24 15 L 23.890625 15 C 23.681625 16.039 23.175734 17.254312 22.427734 18.320312 L 23.599609 19.199219 C 24.041609 19.530219 24.131781 20.158609 23.800781 20.599609 C 23.604781 20.862609 23.302047 20.998047 22.998047 20.998047 C 22.790047 20.998047 22.580391 20.933828 22.400391 20.798828 L 21.076172 19.806641 C 20.208172 20.526641 19.173 21 18 21 C 17.448 21 17 20.553 17 20 C 17 19.447 17.448 19 18 19 C 18.502 19 18.975109 18.830594 19.412109 18.558594 L 18.400391 17.800781 C 17.958391 17.469781 17.868219 16.841391 18.199219 16.400391 C 18.531219 15.958391 19.157609 15.871172 19.599609 16.201172 L 20.845703 17.134766 C 21.314703 16.454766 21.660703 15.687953 21.845703 15.001953 L 18 15.001953 C 17.448 15.001953 17 14.554953 17 14.001953 C 17 13.448953 17.448 13.001953 18 13.001953 L 20 13.001953 L 20 12.001953 C 20 11.448953 20.448 11.001953 21 11.001953 z M 9 11.539062 L 7.9453125 14 L 10.054688 14 L 9 11.539062 z"/></svg>