<svg xmlns="http://www.w3.org/2000/svg"  viewBox="0 0 40 40" width="24px" height="24px"><path fill="#c74343" d="M18.546 9.954H40.546V10.954H18.546z" transform="rotate(45.001 29.546 10.454)"/><path fill="#c74343" d="M18.425 12.075H36.425V13.075H18.425z" transform="rotate(45.001 27.425 12.575)"/><path fill="#c74343" d="M18.303 14.197H32.303V15.197H18.303z" transform="rotate(45.001 25.304 14.696)"/><path fill="#c74343" d="M19.182 16.318H27.182V17.318H19.182z" transform="rotate(45.001 23.182 16.818)"/><path fill="#ab3434" d="M-0.546 29.046H21.454V30.046H-0.546z" transform="rotate(45.001 10.454 29.546)"/><path fill="#ab3434" d="M3.575 26.925H21.575V27.925H3.575z" transform="rotate(45.001 12.576 27.425)"/><path fill="#ab3434" d="M7.697 24.803H21.697V25.803H7.697z" transform="rotate(45.001 14.697 25.303)"/><path fill="#ab3434" d="M12.818 22.682H20.817999999999998V23.682H12.818z" transform="rotate(45.001 16.818 23.182)"/><path fill="#c74343" d="M1.705,21.642c2.811-2.791,6.01-4.072,10.303-4.142l0.523-0.004c2.528,0,5.135,0.3,7.747,0.891 c2.698,0.61,5.127,1.114,7.527,1.114l0.2-0.001c3.256-0.04,5.854-1.089,8.132-3.292l2.157,2.163 c-2.832,2.777-6.118,4.092-10.3,4.129l-0.208,0.001c-2.926,0-5.766-0.553-8.157-1.094c-2.717-0.615-5.038-0.914-7.098-0.914 c-0.183,0-0.364,0.002-0.545,0.007c-3.354,0.087-5.878,1.107-8.113,3.292L1.705,21.642z"/><path fill="#ab3434" d="M36.126,16.904l1.454,1.457c-2.652,2.443-5.724,3.604-9.588,3.639l-0.203,0.001 c-2.878,0-5.684-0.547-8.048-1.082c-2.754-0.623-5.112-0.926-7.208-0.926c-0.187,0-0.373,0.002-0.558,0.007 c-3.313,0.086-5.85,1.049-8.092,3.096L2.42,21.647c2.626-2.451,5.627-3.583,9.596-3.648c0.171-0.003,0.342-0.004,0.514-0.004 c2.492,0,5.062,0.296,7.639,0.879c2.727,0.617,5.184,1.127,7.636,1.127L28.012,20C31.235,19.96,33.838,18.972,36.126,16.904 M36.138,15.5C33.593,18.137,30.864,18.965,28,19c-0.065,0.001-0.13,0.001-0.196,0.001c-2.389,0-4.871-0.527-7.415-1.102 c-2.662-0.602-5.293-0.903-7.859-0.903c-0.177,0-0.354,0.001-0.53,0.004c-3.851,0.062-7.553,1.033-11,4.647L3.878,24.5 C6.375,21.883,9.053,21.077,12,21c0.176-0.005,0.354-0.007,0.532-0.007c2.172,0,4.489,0.336,6.988,0.902 c2.552,0.577,5.376,1.106,8.269,1.106c0.07,0,0.141,0,0.212-0.001c3.704-0.033,7.513-1.016,11-4.63L36.138,15.5L36.138,15.5z"/><g><path fill="#f78f8f" d="M16.207,36.13c2.203-2.277,3.252-4.872,3.293-8.124c0.031-2.463-0.488-4.961-1.119-7.736 c-0.629-2.786-0.925-5.565-0.881-8.262c0.07-4.295,1.353-7.494,4.142-10.304l2.15,2.163c-2.186,2.234-3.205,4.76-3.292,8.12 c-0.058,2.204,0.238,4.704,0.904,7.641c0.557,2.461,1.122,5.38,1.096,8.367c-0.037,4.178-1.354,7.464-4.135,10.298L16.207,36.13z"/><path fill="#c74343" d="M21.648,2.42l1.448,1.456c-2.047,2.241-3.009,4.78-3.095,8.098 c-0.058,2.249,0.242,4.789,0.916,7.765c0.551,2.436,1.11,5.321,1.083,8.252c-0.035,3.861-1.197,6.933-3.643,9.587l-1.455-1.458 c2.068-2.286,3.057-4.887,3.098-8.106c0.032-2.516-0.494-5.045-1.131-7.851c-0.62-2.75-0.913-5.49-0.869-8.145 C18.066,8.046,19.198,5.045,21.648,2.42 M21.647,1C18.034,4.446,17.064,8.149,17,12c-0.045,2.733,0.252,5.54,0.893,8.381 C18.488,22.998,19.031,25.548,19,28c-0.036,2.862-0.867,5.589-3.5,8.129L18.364,39c3.618-3.489,4.603-7.296,4.636-11 c0.027-2.966-0.517-5.866-1.108-8.482C21.279,16.816,20.94,14.324,21,12c0.076-2.95,0.88-5.631,3.5-8.129L21.647,1L21.647,1z"/></g></svg>