<svg xmlns="http://www.w3.org/2000/svg"  viewBox="0 0 64 64" width="24px" height="24px"><path fill="#c2d197" d="M55,6H23a6,6,0,0,0-6,6V23H38a6,6,0,0,1,6,6v1h3l6.134,10.735a1,1,0,0,0,1.866-.5V30a6,6,0,0,0,6-6V12A6,6,0,0,0,55,6Z"/><circle cx="48" cy="26" r="1" fill="#9cb16a"/><circle cx="52" cy="26" r="1" fill="#9cb16a"/><circle cx="56" cy="26" r="1" fill="#9cb16a"/><path fill="#9cb16a" d="M26.707,14.263a1,1,0,0,0-1.414,0L24,15.556l-1.293-1.293a1,1,0,1,0-1.414,1.414l1.293,1.293-1.293,1.293a1,1,0,1,0,1.414,1.414L24,18.384l1.293,1.293a1,1,0,0,0,1.414-1.414L25.414,16.97l1.293-1.293A1,1,0,0,0,26.707,14.263Z"/><path fill="#9cb16a" d="M42.5,12.556a1,1,0,0,0-1-1h-9a1,1,0,0,0-.99.858l-.547,3.831L30.4,15.108a1,1,0,0,0-1.79.895l2,4a1,1,0,0,0,.895.553.968.968,0,0,0,.16-.013,1,1,0,0,0,.83-.846l.877-6.141H41.5A1,1,0,0,0,42.5,12.556Z"/><path fill="#9cb16a" d="M38.8,15.369l-1.27,1.243-1.215-1.3a1,1,0,0,0-1.459,1.368L36.1,18.012l-1.3,1.273a1,1,0,0,0,1.4,1.43l4-3.916a1,1,0,0,0-1.4-1.43Z"/><path fill="#9cb16a" d="M46.5,16.556h-1v-1a1,1,0,1,0-2,0v1h-1a1,1,0,0,0,0,2h1v1a1,1,0,0,0,2,0v-1h1a1,1,0,0,0,0-2Z"/><path fill="#9cb16a" d="M54,18.556H52.414l2.293-2.293A1,1,0,0,0,54,14.556H50a1,1,0,1,0,0,2h1.586l-2.293,2.293A1,1,0,0,0,50,20.556h4a1,1,0,0,0,0-2Z"/><path fill="#9cb16a" d="M39,21.413H17V23H38a6,6,0,0,1,6,6v1h1V27.413A6,6,0,0,0,39,21.413Z"/><path fill="#075057" d="M26.707,12.707a1,1,0,0,0-1.414,0L24,14l-1.293-1.293a1,1,0,0,0-1.414,1.414l1.293,1.293-1.293,1.293a1,1,0,1,0,1.414,1.414L24,16.828l1.293,1.293a1,1,0,1,0,1.414-1.414l-1.293-1.293,1.293-1.293A1,1,0,0,0,26.707,12.707Z"/><path fill="#075057" d="M42.5,11a1,1,0,0,0-1-1h-9a1,1,0,0,0-.99.858l-.547,3.831L30.4,13.553a1,1,0,0,0-1.79.894l2,4A1,1,0,0,0,31.5,19a.968.968,0,0,0,.16-.013,1,1,0,0,0,.83-.845L33.367,12H41.5A1,1,0,0,0,42.5,11Z"/><path fill="#075057" d="M38.8,13.813l-1.27,1.244-1.215-1.3a1,1,0,1,0-1.459,1.367L36.1,16.456l-1.3,1.273a1,1,0,0,0,1.4,1.43l4-3.916a1,1,0,0,0-1.4-1.43Z"/><path fill="#075057" d="M46.5,15h-1V14a1,1,0,0,0-2,0v1h-1a1,1,0,0,0,0,2h1v1a1,1,0,0,0,2,0V17h1a1,1,0,0,0,0-2Z"/><path fill="#075057" d="M54,17H52.414l2.293-2.293A1,1,0,0,0,54,13H50a1,1,0,0,0,0,2h1.586l-2.293,2.293A1,1,0,0,0,50,19h4a1,1,0,0,0,0-2Z"/><path fill="#ff5e5b" d="M9,23H38a6,6,0,0,1,6,6V41a6,6,0,0,1-6,6H23L10.708,59.292A1,1,0,0,1,9,58.585V47a6,6,0,0,1-6-6V29A6,6,0,0,1,9,23Z"/><path fill="#eb120d" d="M12,36a1,1,0,0,0,0-2H7a1,1,0,0,0-1,1v8a1,1,0,0,0,1,1h5a1,1,0,0,0,0-2H8V40h3a1,1,0,0,0,0-2H8V36Z"/><path fill="#eb120d" d="M27,36a2.981,2.981,0,0,0-2,.78A2.987,2.987,0,0,0,20,39v4a1,1,0,0,0,2,0V39a1,1,0,0,1,2,0v4a1,1,0,0,0,2,0V39a1,1,0,0,1,2,0v4a1,1,0,0,0,2,0V39A3,3,0,0,0,27,36Z"/><path fill="#eb120d" d="M34,38h1a1,1,0,0,0,0-2H34a4,4,0,0,0,0,8h1a1,1,0,0,0,0-2H34a2,2,0,0,1,0-4Z"/><path fill="#eb120d" d="M39,33H36a1,1,0,0,1,1-1,3,3,0,1,0-3-3,1,1,0,0,0,2,0,1,1,0,1,1,1,1,3,3,0,0,0-3,3v1a1,1,0,0,0,1,1h4a1,1,0,0,0,0-2Z"/><path fill="#eb120d" d="M17,37H15a1,1,0,0,0,0,2h2a1,1,0,0,0,0-2Z"/><path fill="#eb120d" d="M17,40H15a1,1,0,0,0,0,2h2a1,1,0,0,0,0-2Z"/><circle cx="11" cy="29" r="1" fill="#eb120d"/><circle cx="15" cy="29" r="1" fill="#eb120d"/><circle cx="19" cy="29" r="1" fill="#eb120d"/><circle cx="23" cy="29" r="1" fill="#eb120d"/><circle cx="27" cy="29" r="1" fill="#eb120d"/><path fill="#9e0c09" d="M12,35a1,1,0,0,0,0-2H7a1,1,0,0,0-1,1v8a1,1,0,0,0,1,1h5a1,1,0,0,0,0-2H8V39h3a1,1,0,0,0,0-2H8V35Z"/><path fill="#9e0c09" d="M27,35a2.981,2.981,0,0,0-2,.78A2.987,2.987,0,0,0,20,38v4a1,1,0,0,0,2,0V38a1,1,0,0,1,2,0v4a1,1,0,0,0,2,0V38a1,1,0,0,1,2,0v4a1,1,0,0,0,2,0V38A3,3,0,0,0,27,35Z"/><path fill="#9e0c09" d="M34,37h1a1,1,0,0,0,0-2H34a4,4,0,0,0,0,8h1a1,1,0,0,0,0-2H34a2,2,0,0,1,0-4Z"/><path fill="#9e0c09" d="M39,32H36a1,1,0,0,1,1-1,3,3,0,1,0-3-3,1,1,0,0,0,2,0,1,1,0,1,1,1,1,3,3,0,0,0-3,3v1a1,1,0,0,0,1,1h4a1,1,0,0,0,0-2Z"/><path fill="#9e0c09" d="M17,36H15a1,1,0,0,0,0,2h2a1,1,0,0,0,0-2Z"/><path fill="#9e0c09" d="M17,39H15a1,1,0,0,0,0,2h2a1,1,0,0,0,0-2Z"/><circle cx="48" cy="25" r="1" fill="#075057"/><circle cx="52" cy="25" r="1" fill="#075057"/><circle cx="56" cy="25" r="1" fill="#075057"/><circle cx="11" cy="28" r="1" fill="#9e0c09"/><circle cx="15" cy="28" r="1" fill="#9e0c09"/><circle cx="19" cy="28" r="1" fill="#9e0c09"/><circle cx="23" cy="28" r="1" fill="#9e0c09"/><circle cx="27" cy="28" r="1" fill="#9e0c09"/><g><path d="M26.707,12.707a1,1,0,0,0-1.414,0L24,14l-1.293-1.293a1,1,0,0,0-1.414,1.414l1.293,1.293-1.293,1.293a1,1,0,1,0,1.414,1.414L24,16.828l1.293,1.293a1,1,0,1,0,1.414-1.414l-1.293-1.293,1.293-1.293A1,1,0,0,0,26.707,12.707Z"/><path d="M42.5,11a1,1,0,0,0-1-1h-9a1,1,0,0,0-.99.858l-.547,3.831L30.4,13.553a1,1,0,1,0-1.789.894l2,4A1,1,0,0,0,31.5,19a.959.959,0,0,0,.16-.013,1,1,0,0,0,.83-.845L33.367,12H41.5A1,1,0,0,0,42.5,11Z"/><path d="M34.786,19.144a1,1,0,0,0,1.414.015l4-3.916a1,1,0,0,0-1.4-1.43l-1.27,1.244-1.214-1.3a1,1,0,1,0-1.459,1.367L36.1,16.456l-1.3,1.273A1,1,0,0,0,34.786,19.144Z"/><path d="M44.5,19a1,1,0,0,0,1-1V17h1a1,1,0,0,0,0-2h-1V14a1,1,0,0,0-2,0v1h-1a1,1,0,0,0,0,2h1v1A1,1,0,0,0,44.5,19Z"/><path d="M55,18a1,1,0,0,0-1-1H52.414l2.293-2.293A1,1,0,0,0,54,13H50a1,1,0,0,0,0,2h1.586l-2.293,2.293A1,1,0,0,0,50,19h4A1,1,0,0,0,55,18Z"/><path d="M61,23a1,1,0,0,0-1,1,5.006,5.006,0,0,1-5,5,1,1,0,0,0-1,1V40.234L47.868,29.5A1,1,0,0,0,47,29H45a7.008,7.008,0,0,0-7-7H18V12a5.006,5.006,0,0,1,5-5H55a5.006,5.006,0,0,1,5,5,1,1,0,0,0,2,0,7.008,7.008,0,0,0-7-7H23a7.008,7.008,0,0,0-7,7V22H9a7.008,7.008,0,0,0-7,7,1,1,0,0,0,2,0,5.006,5.006,0,0,1,5-5H38a5.006,5.006,0,0,1,5,5V41a5.006,5.006,0,0,1-5,5H23a1,1,0,0,0-.707.293L10,58.586V47a1,1,0,0,0-1-1,5.006,5.006,0,0,1-5-5,1,1,0,0,0-2,0,7.011,7.011,0,0,0,6,6.929V61a1,1,0,0,0,.617.924A.987.987,0,0,0,9,62a1,1,0,0,0,.707-.293L23.414,48H38a7.008,7.008,0,0,0,7-7V31h1.42l7.712,13.5A1,1,0,0,0,55,45a1.03,1.03,0,0,0,.257-.033A1,1,0,0,0,56,44V30.929A7.011,7.011,0,0,0,62,24,1,1,0,0,0,61,23Z"/><path d="M6,34v8a1,1,0,0,0,1,1h5a1,1,0,0,0,0-2H8V39h3a1,1,0,0,0,0-2H8V35h4a1,1,0,0,0,0-2H7A1,1,0,0,0,6,34Z"/><path d="M20,38v4a1,1,0,0,0,2,0V38a1,1,0,0,1,2,0v4a1,1,0,0,0,2,0V38a1,1,0,0,1,2,0v4a1,1,0,0,0,2,0V38a2.987,2.987,0,0,0-5-2.22A2.987,2.987,0,0,0,20,38Z"/><path d="M34,43h1a1,1,0,0,0,0-2H34a2,2,0,0,1,0-4h1a1,1,0,0,0,0-2H34a4,4,0,0,0,0,8Z"/><path d="M37,29a3,3,0,0,0-3,3v1a1,1,0,0,0,1,1h4a1,1,0,0,0,0-2H36a1,1,0,0,1,1-1,3,3,0,1,0-3-3,1,1,0,0,0,2,0,1,1,0,1,1,1,1Z"/><path d="M15,38h2a1,1,0,0,0,0-2H15a1,1,0,0,0,0,2Z"/><path d="M15,41h2a1,1,0,0,0,0-2H15a1,1,0,0,0,0,2Z"/><circle cx="48" cy="24" r="1"/><circle cx="52" cy="24" r="1"/><circle cx="56" cy="24" r="1"/><circle cx="11" cy="28" r="1"/><circle cx="15" cy="28" r="1"/><circle cx="19" cy="28" r="1"/><circle cx="23" cy="28" r="1"/><path d="M27.994,28.114a1,1,0,1,0-1.108.879A1,1,0,0,0,27.994,28.114Z"/></g></svg>