<?xml version="1.0"?><svg xmlns="http://www.w3.org/2000/svg"  viewBox="0 0 30 30" width="30px" height="30px">    <path d="M 15 3 C 11.686 3 9 5.686 9 9 L 9 10 C 9 13.314 11.686 16 15 16 C 18.314 16 21 13.314 21 10 L 21 9 C 21 5.686 18.314 3 15 3 z M 11.097656 19.552734 C 8.1626562 20.319734 5.3940469 21.763797 4.3730469 23.091797 C 3.4590469 24.279797 4.329125 26 5.828125 26 L 24.169922 26 C 25.668922 26 26.539 24.278844 25.625 23.089844 C 24.604 21.761844 21.836344 20.319734 18.902344 19.552734 C 17.852344 20.453734 16.491 21 15 21 C 13.508 21 12.147656 20.452734 11.097656 19.552734 z"/></svg>