<svg width="30" height="30" viewBox="0 0 30 30" fill="none" xmlns="http://www.w3.org/2000/svg">
<path d="M8.75 2.5C8.06 2.5 7.5 3.06 7.5 3.75V11.25C7.5 11.94 8.06 12.5 8.75 12.5C13.1137 12.5 15.2837 14.5538 15.3662 14.6338L16.2427 15.4956L17.1265 14.6411C17.2165 14.5549 19.3862 12.5 23.75 12.5C24.44 12.5 25 11.94 25 11.25V3.75C25 3.06 24.44 2.5 23.75 2.5C19.985 2.5 17.48 3.80939 16.25 4.66064C15.02 3.80939 12.515 2.5 8.75 2.5ZM7.5 15C7.10079 15.0014 6.70436 15.0665 6.32568 15.1929L1.2207 16.3916V25.3931L6.2207 23.7598L16.416 27.3267C17.231 27.6117 18.1267 27.5413 18.8892 27.1338L26.5527 23.0371C27.3915 22.5884 27.734 21.5619 27.3315 20.7007C26.9153 19.8107 25.8596 19.424 24.9658 19.834L17.5757 23.2227L17.1118 22.6123L17.478 21.792C18.0468 20.5232 17.4713 19.034 16.1963 18.479L9.34082 15.4858C8.77922 15.1682 8.14518 15.0009 7.5 15Z" fill="#F05252"/>
</svg>
