<svg xmlns="http://www.w3.org/2000/svg" viewBox="0 0 3000 3000" width="3000" height="3000"><g transform="translate(231.0 1569.0) rotate(0.0 1267.5 663.0) scale(3.40559188783982 3.393743329605164)"><svg width="744.364" height="390.719" viewBox="0 0 744.364 390.719"><path d="m139.879 300.937 26.924 65.978c127.456 50.021 347.692-16.353 343.41-136.594l-12.004-80.229z" fill="#2fd1cd"/><path d="M265.146 390.725c-37.048 0-71.781-5.866-100.901-17.294a6.997 6.997 0 0 1-3.924-3.871l-26.924-65.978a6.998 6.998 0 0 1 3.765-9.096l358.33-150.845a7.002 7.002 0 0 1 9.639 5.416l12.004 80.229c.039.261.063.523.073.787 1.413 39.69-19.72 76.164-61.114 105.479-36.785 26.051-86.957 44.44-141.274 51.78-16.812 2.272-33.468 3.395-49.675 3.395zm-93.008-29.261c80.753 30.225 203.741 13.739 275.865-37.339 25.975-18.395 56.597-49.471 55.227-93.167l-10.611-70.918-343.644 144.663z" fill="#231f20"/><path d="M183.7 40.819c10.868-.894 390.281-40.843 397.696-32.733S423.294 288.539 414.019 293.808-1.041 316.572 7.121 304.389C15.283 292.207 172.832 41.714 183.7 40.819z" fill="#fff"/><path d="M139.879 44.886c10.868-.895 434.102-44.91 441.517-36.8s-176.655 253.55-185.93 258.819S-1.04 316.571 7.121 304.389C15.283 292.207 129.01 45.78 139.878 44.885z" fill="#2fd1cd"/><g fill="#231f20"><path d="M65.242 315.617c-57.904 0-60.581-2.888-63.179-5.684a7.603 7.603 0 0 1-.757-9.439c1.3-1.94 6.957-10.82 14.786-23.11 20.547-32.253 58.793-92.288 92.96-144.231 64.823-98.548 69.11-98.901 74.073-99.309 1.385-.114 9.658-.955 22.182-2.229 40.072-4.075 133.915-13.618 216.588-21.064 46.364-4.176 83.17-7.15 109.397-8.84C546.485.732 558.407.168 566.724.034c14.154-.229 17.37.631 19.837 3.33 1.759 1.924 2.403 4.467 1.915 7.558-2.633 16.66-58.771 111.744-82.785 151.851-19.825 33.111-40.365 66.55-56.354 91.744-27.072 42.659-29.84 44.232-31.861 45.38-2.013 1.144-4.77 2.709-69.067 6.344-38.972 2.203-89 4.448-137.257 6.16-38.143 1.353-92.956 3.007-137.478 3.2-2.932.013-5.745.019-8.434.019zm-47.218-15.223c19.936 1.782 78.71 2.083 194.547-2.056 100.981-3.608 185.269-8.557 197.876-10.814 7.227-8.536 42.801-64.28 85.523-135.775 45.727-76.523 70.389-122.039 76.924-137.771-12.535-.189-49.377 1.405-156.265 11.104-80.877 7.338-168.025 16.2-209.907 20.459-10.378 1.055-17.484 1.778-20.725 2.093-3.794 3.591-17.683 20.735-68.391 97.991-33.287 50.714-69.99 108.327-89.708 139.279-4.007 6.29-7.347 11.533-9.875 15.489zm391.702-12.082zm1.804-1.021h-.001z"/><path d="M627.248 222.729a6.992 6.992 0 0 1-2.371-.416c-43.106-15.519-87.833-45.735-122.71-82.902-6.479-6.905-28.829-16.951-105.708-6.655-45.063 6.035-86.798 16.289-87.215 16.392a7 7 0 1 1-3.359-13.591c.424-.105 42.902-10.541 88.715-16.677 64.26-8.606 102.784-5.023 117.775 10.951 33.415 35.608 76.148 64.515 117.243 79.309a7 7 0 0 1-2.372 13.588z"/><path d="M737.368 241.745c-.067 0-.134 0-.202-.003-38.189-1.079-77.012-16.011-97.87-24.033a7 7 0 0 1 5.025-13.067c20.076 7.721 57.445 22.094 93.24 23.105a7 7 0 0 1-.194 13.997z"/><path d="M697.818 225.721c-18.11 0-36.004-2.514-57.652-7.74a7 7 0 1 1 3.286-13.609c33.556 8.102 57.503 9.312 88.353 4.468a7 7 0 0 1 2.172 13.83c-12.838 2.016-24.543 3.051-36.159 3.051z"/><path d="M732.611 259.049c-.338 0-.681-.025-1.025-.075-37.799-5.547-74.605-24.927-94.378-35.338a7 7 0 1 1 6.522-12.388c19.033 10.021 54.459 28.675 89.889 33.874a6.999 6.999 0 0 1 5.909 7.942 7.003 7.003 0 0 1-6.917 5.985z"/><path d="M729.649 269.042c-.321 0-.645-.022-.972-.068-29.167-4.05-69.224-17.487-94.173-43.051a7 7 0 0 1 10.02-9.779c22.481 23.036 59.207 35.231 86.08 38.962a7.001 7.001 0 0 1-.954 13.934z"/><path d="M707.124 299.208a6.97 6.97 0 0 1-3.513-.95c-33.025-19.207-59.984-50.884-74.468-67.902a7.001 7.001 0 0 1 10.662-9.074c13.94 16.381 39.889 46.872 70.844 64.874a7 7 0 0 1-3.526 13.052z"/><path d="M611.604 209.477c-14.388 29.739 26.565 41.741 36.575 15.35 10.473-27.611-23.106-43.191-36.575-15.35z"/><path d="M627.923 246.414c-8.69 0-16.969-3.96-21.802-10.644-3.359-4.646-7.932-14.637-.818-29.341 8.843-18.279 24.958-21.4 36.19-16.564 11.719 5.046 20.027 19.528 13.231 37.445-3.952 10.419-12.57 17.468-23.055 18.857a28.486 28.486 0 0 1-3.747.247zm-10.018-33.889c-2.069 4.277-3.825 10.358-.438 15.042 2.509 3.471 7.477 5.368 12.364 4.721 3.158-.418 8.892-2.267 11.804-9.944 3.869-10.2-.064-17.204-5.678-19.621-5.081-2.188-12.857-.932-18.051 9.802z"/></g></svg></g><g transform="translate(435.0 96.0) rotate(0.0 886.5 976.5) scale(3.3956735327070584 3.397815863781162)"><svg width="522.135" height="574.781" viewBox="0 0 522.135 574.781"><path d="M257.717 109.499c24.144-33.84 69.08-96.603 69.08-96.603l184.655 108.167-81.08 112.101s-4.719 84.728-22.817 129.968c-15.68 39.194-72.205 122.391-80.91 150.995-16.92 55.595-70.736 39.518-65.263-20.546 4.946-54.282 30.004-124.155 30.004-124.155s-34.118-8.453-59.22-6.294C179.505 428.337-18.56 261.807 83.511 177.582c52.179-43.056 174.206-68.084 174.206-68.084z" fill="#fff"/><g fill="#231f20"><path d="M292.584 555.28c-2.009 0-3.957-.194-5.814-.557-17.976-3.516-35.771-24.348-32.36-61.777 4.073-44.692 21.177-98.722 27.792-118.369-10.563-2.143-30.35-5.518-46.656-4.662-12.622 13.603-32.383 18.142-56.05 12.776-25.399-5.758-54.092-22.368-78.723-45.569-26.081-24.567-43.978-52.96-50.396-79.948-7.976-33.539 1.94-62.928 28.677-84.99 49.183-40.584 155.713-64.909 174.546-68.969 24.211-33.925 67.064-93.779 67.504-94.393a7 7 0 0 1 9.229-1.965l184.655 108.167a7 7 0 0 1 2.134 10.142l-79.887 110.452c-.862 13.611-6.236 87.753-23.183 130.115-7.842 19.603-25.34 49.416-42.262 78.247-16.83 28.674-34.231 58.323-38.451 72.186-8.869 29.141-26.357 39.115-40.757 39.115zM241 355.78c24.099 0 50.799 6.538 52.069 6.853a6.998 6.998 0 0 1 4.905 9.157c-.248.691-24.816 69.683-29.622 122.427-2.506 27.502 8.72 44.344 21.105 46.767 12.442 2.433 24.407-8.908 30.49-28.894 4.701-15.446 21.735-44.469 39.77-75.196 16.66-28.385 33.887-57.735 41.338-76.361 17.47-43.67 22.281-126.921 22.327-127.757a7.008 7.008 0 0 1 1.317-3.713l76.562-105.855-172.49-101.043c-11.28 15.757-45.529 63.611-65.356 91.4a7.002 7.002 0 0 1-4.292 2.792c-1.203.247-120.934 25.183-171.158 66.626-22.654 18.694-30.718 42.566-23.967 70.953 12.691 53.366 73.079 104.783 118.594 115.103 13.806 3.13 32.67 3.884 44.127-10.303a7 7 0 0 1 4.846-2.576c3.054-.263 6.222-.379 9.435-.379zm16.716-246.281h.01z"/><path d="M326.797 12.896c29.556-30.848 216.731 67.411 184.655 108.167S297.242 43.744 326.797 12.896z"/><path d="M489.313 136.531c-4.419 0-9.245-.462-14.47-1.39-25.69-4.558-60.93-20.599-94.268-42.911-33.714-22.563-57.115-46.06-62.598-62.853-3.501-10.721.116-17.514 3.766-21.324 14.849-15.499 51.271-5.882 79.212 4.915 34.35 13.274 70.092 34.037 93.279 54.186 11.639 10.113 19.742 19.721 24.084 28.557 6.988 14.218 3.115 23.988-1.365 29.681-5.834 7.413-15.102 11.138-27.64 11.138zM331.852 17.739c-.658.687-2.199 2.295-.567 7.293 4.408 13.498 26.812 35.308 57.077 55.563 31.332 20.97 65.407 36.588 88.927 40.761 10.018 1.777 23.122 2.418 28.662-4.622 8.796-11.176-11.686-31.005-20.9-39.012-22.046-19.157-56.204-38.965-89.144-51.695-36.296-14.026-58.326-14.27-64.056-8.289z"/></g><path d="M83.51 177.583C63.9 194.149 7 252.774 7 279.212s26.507 74.142 38.255 87.936 44.646-26.438 38.255-45.98c-6.391-19.541-16.162-36.209-16.162-36.209l13.404-8.102" fill="#fff"/><path d="M51.288 376.948c-4.438 0-8.388-1.769-11.362-5.26C28.338 358.081 0 308.829 0 279.212c0-13.225 10.942-33.074 32.522-58.995 16.067-19.3 35.54-38.746 46.472-47.981a7 7 0 0 1 9.034 10.695c-21.484 18.149-74.027 74.362-74.027 96.281 0 24.323 26.033 71.008 36.584 83.398.892 1.046 4.097-.673 4.73-1.028 11.361-6.367 24.896-27.985 21.542-38.237-6.065-18.547-15.455-34.687-15.548-34.847a7.002 7.002 0 0 1 2.419-9.528l13.404-8.102a7 7 0 0 1 9.612 2.37 7 7 0 0 1-2.37 9.612l-7.668 4.635c3.535 6.761 9.189 18.459 13.458 31.51 5.967 18.244-12.678 46.213-28.005 54.802-3.764 2.109-7.462 3.153-10.871 3.153z" fill="#231f20"/><path d="M84.326 250.475c-14.943 9.771-72.153 66.096-72.153 89.086 0 26.438 47.833 63.3 62.647 77.591 32.761 31.602 47.129-32.761 31.611-47.129-15.518-14.369-27.588-28.163-27.588-28.163l24.633-24.906" fill="#fff"/><path d="M91.681 432.769c-5.769 0-13.215-2.374-21.721-10.579-2.459-2.372-5.967-5.482-10.029-9.083C38.125 393.779 5.173 364.57 5.173 339.56c0-27.456 60.75-85.417 75.322-94.945a7 7 0 0 1 7.661 11.718c-16.795 10.981-68.983 65.365-68.983 83.227 0 18.711 32.555 47.567 50.044 63.07 4.181 3.706 7.792 6.906 10.463 9.483 3.794 3.66 9.273 7.739 13.83 6.396 4.483-1.321 8.741-7.985 10.848-16.978 2.841-12.125.819-23.13-2.683-26.374-15.608-14.452-27.597-28.115-28.1-28.689a7 7 0 0 1 .291-9.532l24.633-24.906a7 7 0 0 1 9.954 9.844L88.478 342.07c4.801 5.201 13.118 13.934 22.708 22.814 9.16 8.482 10.017 26.121 6.802 39.84-3.386 14.448-10.865 24.367-20.521 27.213-1.667.491-3.607.83-5.787.83z" fill="#231f20"/><path d="M112.692 291.732c-37.745 38.409-73.458 85.777-71.241 114.54s54.264 71.228 83.947 83.992c20.989 9.026 35.402-43.864 14.041-63.971-11.866-11.169-20.782-20.046-20.782-20.046l27.417-47.419" fill="#fff"/><path d="M130.182 498.309c-2.493 0-5.028-.53-7.549-1.615-29.621-12.738-85.591-56.539-88.161-89.885-2.933-38.055 50.233-96.586 73.228-119.984a7 7 0 0 1 9.985 9.813c-44.42 45.2-70.957 87.003-69.254 109.095 1.894 24.576 50.321 65.452 79.732 78.099 1.061.456 4.287 1.844 8.598-4.728 7.467-11.382 9.867-36.432-2.12-47.715-11.801-11.107-20.833-20.093-20.923-20.182a7 7 0 0 1-1.121-8.464l27.417-47.419a7 7 0 1 1 12.12 7.008l-24.706 42.729c3.691 3.614 9.745 9.486 16.809 16.135 8.018 7.547 12.539 19.304 12.73 33.106.167 11.973-3.011 24.116-8.5 32.483-4.936 7.524-11.444 11.523-18.285 11.524z" fill="#231f20"/><path d="M232.165 363.133c-22.713 23.947-60.894 57.791-56.461 91.039s21.901 47.16 27.956 71.817c6.071 24.721-12.116 59.295-45.744 31.475-17.953-14.852-70.873-64.502-69.765-108.833s53.955-113.635 53.955-113.635" fill="#fff"/><path d="M181.054 574.779c-7.311 0-16.606-2.826-27.6-11.922-5.662-4.683-25.501-21.732-43.104-44.471-19.892-25.696-29.715-49.224-29.197-69.931 1.151-46.068 53.173-114.801 55.387-117.705a7 7 0 0 1 11.134 8.488c-.515.676-51.486 68.026-52.524 109.566-.921 36.851 41.825 82.249 67.229 103.265 7.139 5.906 17.351 11.878 25.453 6.796 7.842-4.919 11.978-19.21 9.031-31.208-2.347-9.558-6.705-17.612-11.319-26.138-6.585-12.17-14.05-25.965-16.777-46.423-4.347-32.602 25.545-63.175 49.564-87.74 3.107-3.178 6.042-6.179 8.755-9.041a7 7 0 0 1 10.158 9.634c-2.788 2.939-5.758 5.977-8.903 9.194-21.895 22.393-49.143 50.261-45.698 76.102 2.388 17.909 8.908 29.958 15.213 41.611 4.831 8.928 9.826 18.159 12.602 29.462 4.474 18.218-2.055 38.169-15.188 46.406-3.164 1.984-7.964 4.053-14.216 4.053z" fill="#231f20"/></svg></g><g transform="translate(1008.0 1716.0) rotate(0.0 226.5 339.0) scale(3.4515600594308355 3.4107201247579044)"><svg width="131.245" height="198.785" viewBox="0 0 131.245 198.785"><g><path d="M121.776 25.964S53.441 144.165 38.445 170.628c-14.996 26.463-42.054 30.385-27.059-1.37C26.382 137.502 96.708 21.644 96.708 21.644c11.423-23.026 35.24-16.851 25.068 4.32Z" style="fill:#231f20;stroke-width:0"/><path d="M13.264 198.801c-2.257 0-4.387-.479-6.322-1.481-4.964-2.574-11.811-10.031-1.885-31.051 14.781-31.302 81-140.566 85.519-148.012 8.457-16.781 22.73-21.09 31.925-16.601 7.547 3.685 12.201 13.568 5.584 27.339-.077.16-.16.318-.25.472-.683 1.182-68.491 118.477-83.301 144.612-8.578 15.136-21.176 24.722-31.272 24.722ZM115.151 14.008c-2.724 0-8.072 2.482-12.172 10.748a6.75 6.75 0 0 1-.287.521c-.701 1.155-70.307 115.906-84.976 146.97-3.392 7.184-3.765 10.932-3.701 12.483 3.321-.637 11.643-5.735 18.34-17.553 14.513-25.609 79.714-138.408 83.22-144.472 2.33-4.965 1.873-7.937.784-8.468-.299-.146-.71-.229-1.208-.229Zm6.625 11.956h.01-.01Z" style="fill:#231f20;stroke-width:0"/></g><g><g><path d="M107.271 50.236C87.517 4.048 33.718 37.948 57.766 136.099l49.505-85.863Z" style="fill:#fff;stroke-width:0"/><path d="M57.767 143.1a6.999 6.999 0 0 1-6.8-5.334c-15.671-63.962.432-105.541 24.437-113.555 15.07-5.031 30.104 4.104 38.303 23.273a6.999 6.999 0 0 1-.372 6.249L63.83 139.596a7 7 0 0 1-6.062 3.504Zm25.81-106.233c-1.239 0-2.489.205-3.74.623-13.384 4.468-26.5 31.596-18.904 79.101l38.455-66.697c-4.299-8.416-9.934-13.027-15.811-13.027Z" style="fill:#231f20;stroke-width:0"/></g><g><path d="M83.115 29.539C51.692 16.938 8.238 46.283 29.92 134.78l27.845 1.32c-10.19-48.34-8.813-98.663 25.35-106.561" style="fill:#fff;stroke-width:0"/><path d="M57.766 143.099c-.11 0-.221-.003-.332-.008l-27.845-1.32a7 7 0 0 1-6.467-5.326c-6.218-25.38-7.645-47.69-4.239-66.311 3.053-16.696 10.078-30.217 20.315-39.103 13.148-11.413 30.541-14.399 46.523-7.99a7 7 0 0 1-1.028 13.317c-36.098 8.344-24.494 77.347-20.077 98.297a7.001 7.001 0 0 1-6.849 8.444Zm-22.233-15.061 13.642.646c-8.049-44.268-3.901-76.766 11.458-93.78-4.391 1.245-8.563 3.493-12.258 6.7-8.208 7.125-25.478 29.605-12.842 86.433Z" style="fill:#231f20;stroke-width:0"/></g></g></svg></g><g transform="translate(1293.0 870.0) rotate(0.0 313.5 556.5) scale(3.4191483212363467 3.381591140413508)"><svg width="183.379" height="329.135" viewBox="0 0 183.379 329.135"><path d="M176.379 7s-4.719 84.728-22.817 129.968c-15.68 39.194-72.205 122.391-80.91 150.995-16.92 55.595-70.736 39.518-65.263-20.546 4.946-54.282 30.004-124.155 30.004-124.155" style="fill:#fff;stroke-width:0"/><path d="M38.592 329.116c-2.009 0-3.957-.194-5.814-.557-17.976-3.516-35.771-24.348-32.36-61.777 4.97-54.543 29.351-122.995 30.386-125.882a7 7 0 0 1 13.179 4.726c-.248.691-24.816 69.683-29.622 122.427-2.506 27.502 8.72 44.344 21.105 46.767 12.441 2.434 24.408-8.909 30.49-28.894 4.701-15.446 21.735-44.469 39.77-75.196 16.66-28.384 33.887-57.735 41.338-76.36 17.47-43.67 22.28-126.921 22.327-127.757a6.995 6.995 0 0 1 7.378-6.6 7 7 0 0 1 6.6 7.378c-.195 3.506-4.993 86.4-23.307 132.179-7.842 19.603-25.34 49.416-42.262 78.247-16.83 28.674-34.231 58.323-38.451 72.186-8.869 29.141-26.357 39.115-40.757 39.115Z" style="fill:#231f20;stroke-width:0"/></svg></g></svg>