<svg width="500" height="500" viewBox="0 0 500 500" fill="none" xmlns="http://www.w3.org/2000/svg">
<g clip-path="url(#clip0_612_5)">
<path d="M495.37 0H4.62963C2.07276 0 0 2.07276 0 4.62963V495.37C0 497.927 2.07276 500 4.62963 500H495.37C497.927 500 500 497.927 500 495.37V4.62963C500 2.07276 497.927 0 495.37 0Z" fill="#26567E"/>
<path d="M275.567 363.889C275.381 363.889 275.228 363.83 275.109 363.711C274.99 363.592 274.931 363.439 274.931 363.252V346.701C274.931 346.515 274.99 346.362 275.109 346.243C275.228 346.124 275.381 346.065 275.567 346.065H287.458C287.645 346.065 287.798 346.124 287.917 346.243C288.036 346.362 288.095 346.515 288.095 346.701V349.095C288.095 349.281 288.036 349.434 287.917 349.553C287.798 349.672 287.645 349.731 287.458 349.731H279.336V353.169H286.898C287.085 353.169 287.237 353.237 287.356 353.373C287.475 353.492 287.535 353.644 287.535 353.831V356.046C287.535 356.216 287.475 356.369 287.356 356.505C287.237 356.624 287.085 356.683 286.898 356.683H279.336V360.222H287.662C287.849 360.222 288.001 360.281 288.12 360.4C288.239 360.519 288.299 360.672 288.299 360.859V363.252C288.299 363.439 288.239 363.592 288.12 363.711C288.001 363.83 287.849 363.889 287.662 363.889H275.567ZM298.325 364.144C297.51 364.144 296.771 364.016 296.109 363.762C295.464 363.49 294.904 363.1 294.429 362.59C293.97 362.064 293.614 361.436 293.359 360.706C293.105 359.959 292.96 359.11 292.926 358.16C292.909 357.82 292.901 357.523 292.901 357.269C292.901 356.997 292.909 356.7 292.926 356.377C292.96 355.461 293.105 354.637 293.359 353.907C293.614 353.177 293.97 352.55 294.429 352.023C294.887 351.497 295.447 351.098 296.109 350.826C296.771 350.538 297.51 350.393 298.325 350.393C299.173 350.393 299.903 350.538 300.514 350.826C301.125 351.098 301.643 351.455 302.068 351.896V346.447C302.068 346.26 302.127 346.107 302.246 345.988C302.364 345.869 302.517 345.81 302.704 345.81H305.811C305.98 345.81 306.125 345.869 306.244 345.988C306.379 346.107 306.447 346.26 306.447 346.447V363.252C306.447 363.439 306.379 363.592 306.244 363.711C306.125 363.83 305.98 363.889 305.811 363.889H302.933C302.746 363.889 302.594 363.83 302.475 363.711C302.356 363.592 302.297 363.439 302.297 363.252V362.437C301.889 362.93 301.363 363.337 300.718 363.66C300.073 363.982 299.275 364.144 298.325 364.144ZM299.7 360.731C300.276 360.731 300.726 360.612 301.049 360.375C301.388 360.12 301.635 359.798 301.788 359.407C301.957 359.017 302.05 358.593 302.068 358.134C302.084 357.795 302.093 357.472 302.093 357.167C302.093 356.861 302.084 356.547 302.068 356.225C302.05 355.8 301.957 355.41 301.788 355.053C301.618 354.68 301.363 354.383 301.024 354.162C300.684 353.925 300.243 353.806 299.7 353.806C299.139 353.806 298.689 353.925 298.35 354.162C298.027 354.4 297.798 354.722 297.662 355.13C297.526 355.537 297.442 355.987 297.408 356.479C297.357 357.006 297.357 357.531 297.408 358.058C297.442 358.55 297.526 359 297.662 359.407C297.798 359.815 298.027 360.137 298.35 360.375C298.689 360.612 299.139 360.731 299.7 360.731ZM316.858 364.144C315.89 364.144 315.025 363.923 314.261 363.481C313.514 363.04 312.928 362.395 312.504 361.546C312.079 360.681 311.867 359.628 311.867 358.389V351.285C311.867 351.098 311.926 350.945 312.045 350.826C312.164 350.707 312.317 350.648 312.504 350.648H315.687C315.873 350.648 316.026 350.707 316.145 350.826C316.264 350.945 316.323 351.098 316.323 351.285V358.236C316.323 359.9 317.07 360.731 318.564 360.731C319.26 360.731 319.812 360.519 320.219 360.095C320.644 359.654 320.856 359.034 320.856 358.236V351.285C320.856 351.098 320.915 350.945 321.034 350.826C321.153 350.707 321.306 350.648 321.492 350.648H324.675C324.862 350.648 325.014 350.707 325.133 350.826C325.252 350.945 325.312 351.098 325.312 351.285V363.252C325.312 363.439 325.252 363.592 325.133 363.711C325.014 363.83 324.862 363.889 324.675 363.889H321.721C321.551 363.889 321.399 363.83 321.263 363.711C321.144 363.592 321.085 363.439 321.085 363.252V362.285C320.644 362.896 320.066 363.362 319.353 363.685C318.657 363.991 317.825 364.144 316.858 364.144ZM335.331 363.889C335.042 363.889 334.813 363.812 334.643 363.66C334.473 363.507 334.355 363.329 334.287 363.125L329.092 346.829C329.058 346.744 329.041 346.668 329.041 346.6C329.041 346.464 329.092 346.345 329.194 346.243C329.313 346.124 329.449 346.065 329.601 346.065H332.759C333.031 346.065 333.243 346.141 333.395 346.294C333.548 346.447 333.642 346.591 333.675 346.727L337.266 358.491L340.881 346.727C340.932 346.591 341.026 346.447 341.162 346.294C341.314 346.141 341.526 346.065 341.798 346.065H344.956C345.108 346.065 345.236 346.124 345.338 346.243C345.456 346.345 345.516 346.464 345.516 346.6C345.516 346.668 345.499 346.744 345.465 346.829L340.27 363.125C340.202 363.329 340.084 363.507 339.914 363.66C339.761 363.812 339.532 363.889 339.226 363.889H335.331ZM354.903 364.144C352.9 364.144 351.304 363.6 350.116 362.514C348.927 361.427 348.308 359.815 348.257 357.676C348.257 357.557 348.257 357.404 348.257 357.218C348.257 357.031 348.257 356.887 348.257 356.785C348.308 355.444 348.605 354.298 349.148 353.347C349.708 352.38 350.472 351.65 351.44 351.157C352.424 350.648 353.57 350.393 354.877 350.393C356.371 350.393 357.602 350.691 358.569 351.285C359.554 351.879 360.292 352.685 360.785 353.704C361.277 354.722 361.523 355.885 361.523 357.192V357.803C361.523 357.99 361.455 358.143 361.319 358.262C361.2 358.381 361.056 358.44 360.887 358.44H352.738C352.738 358.457 352.738 358.482 352.738 358.516C352.738 358.55 352.738 358.584 352.738 358.618C352.755 359.11 352.84 359.56 352.993 359.968C353.146 360.375 353.383 360.698 353.706 360.935C354.028 361.173 354.419 361.292 354.877 361.292C355.217 361.292 355.497 361.241 355.718 361.139C355.955 361.02 356.15 360.893 356.303 360.757C356.456 360.604 356.575 360.477 356.66 360.375C356.813 360.205 356.931 360.103 357.016 360.069C357.118 360.019 357.271 359.993 357.475 359.993H360.632C360.801 359.993 360.937 360.044 361.039 360.146C361.158 360.231 361.209 360.358 361.192 360.528C361.175 360.816 361.031 361.164 360.759 361.572C360.487 361.979 360.088 362.387 359.563 362.794C359.053 363.184 358.408 363.507 357.627 363.762C356.846 364.016 355.938 364.144 354.903 364.144ZM352.738 355.919H357.042V355.868C357.042 355.325 356.956 354.85 356.787 354.442C356.634 354.035 356.388 353.721 356.049 353.5C355.726 353.279 355.336 353.169 354.877 353.169C354.419 353.169 354.028 353.279 353.706 353.5C353.4 353.721 353.163 354.035 352.993 354.442C352.823 354.85 352.738 355.325 352.738 355.868V355.919ZM367.093 363.889C366.906 363.889 366.753 363.83 366.635 363.711C366.516 363.592 366.456 363.439 366.456 363.252V351.285C366.456 351.115 366.516 350.971 366.635 350.852C366.753 350.716 366.906 350.648 367.093 350.648H370.021C370.208 350.648 370.361 350.716 370.48 350.852C370.598 350.971 370.658 351.115 370.658 351.285V352.303C371.116 351.777 371.659 351.369 372.287 351.081C372.932 350.793 373.654 350.648 374.452 350.648H375.572C375.742 350.648 375.886 350.707 376.005 350.826C376.141 350.945 376.209 351.098 376.209 351.285V353.907C376.209 354.077 376.141 354.23 376.005 354.366C375.886 354.485 375.742 354.544 375.572 354.544H373.102C372.406 354.544 371.863 354.739 371.473 355.13C371.099 355.503 370.913 356.038 370.913 356.734V363.252C370.913 363.439 370.844 363.592 370.709 363.711C370.59 363.83 370.437 363.889 370.25 363.889H367.093ZM386.014 364.144C384.911 364.144 383.969 364.025 383.188 363.787C382.424 363.532 381.796 363.227 381.304 362.87C380.829 362.514 380.472 362.149 380.234 361.775C379.997 361.385 379.869 361.054 379.852 360.782C379.836 360.596 379.895 360.443 380.031 360.324C380.167 360.188 380.311 360.12 380.463 360.12H383.366C383.417 360.12 383.46 360.129 383.494 360.146C383.528 360.163 383.579 360.197 383.646 360.248C383.867 360.367 384.088 360.519 384.308 360.706C384.529 360.876 384.784 361.029 385.072 361.164C385.361 361.3 385.709 361.368 386.116 361.368C386.592 361.368 386.991 361.275 387.313 361.088C387.636 360.901 387.797 360.621 387.797 360.248C387.797 359.976 387.72 359.756 387.568 359.586C387.415 359.399 387.101 359.221 386.625 359.051C386.167 358.881 385.471 358.712 384.538 358.542C383.655 358.338 382.882 358.075 382.22 357.752C381.558 357.413 381.049 356.98 380.693 356.454C380.336 355.911 380.158 355.257 380.158 354.493C380.158 353.814 380.379 353.161 380.82 352.532C381.262 351.904 381.906 351.395 382.755 351.005C383.604 350.597 384.648 350.393 385.887 350.393C386.872 350.393 387.72 350.512 388.433 350.75C389.163 350.971 389.775 351.259 390.267 351.616C390.776 351.972 391.158 352.337 391.412 352.711C391.667 353.084 391.803 353.424 391.82 353.729C391.837 353.899 391.786 354.052 391.667 354.187C391.549 354.306 391.412 354.366 391.26 354.366H388.612C388.544 354.366 388.476 354.357 388.408 354.34C388.34 354.306 388.281 354.272 388.23 354.238C388.026 354.137 387.822 354.001 387.619 353.831C387.415 353.661 387.177 353.508 386.906 353.373C386.634 353.237 386.294 353.169 385.887 353.169C385.429 353.169 385.072 353.271 384.818 353.475C384.563 353.678 384.436 353.941 384.436 354.264C384.436 354.485 384.504 354.688 384.639 354.875C384.792 355.062 385.089 355.231 385.531 355.384C385.989 355.537 386.694 355.707 387.644 355.893C388.815 356.08 389.749 356.386 390.445 356.81C391.141 357.218 391.633 357.701 391.922 358.262C392.211 358.805 392.355 359.382 392.355 359.993C392.355 360.808 392.109 361.529 391.616 362.157C391.141 362.786 390.428 363.278 389.477 363.634C388.527 363.974 387.373 364.144 386.014 364.144ZM403.297 364.144C401.294 364.144 399.698 363.6 398.51 362.514C397.322 361.427 396.702 359.815 396.651 357.676C396.651 357.557 396.651 357.404 396.651 357.218C396.651 357.031 396.651 356.887 396.651 356.785C396.702 355.444 396.999 354.298 397.543 353.347C398.103 352.38 398.867 351.65 399.834 351.157C400.819 350.648 401.964 350.393 403.272 350.393C404.765 350.393 405.996 350.691 406.964 351.285C407.948 351.879 408.687 352.685 409.179 353.704C409.671 354.722 409.918 355.885 409.918 357.192V357.803C409.918 357.99 409.85 358.143 409.714 358.262C409.595 358.381 409.45 358.44 409.281 358.44H401.133C401.133 358.457 401.133 358.482 401.133 358.516C401.133 358.55 401.133 358.584 401.133 358.618C401.15 359.11 401.235 359.56 401.387 359.968C401.54 360.375 401.778 360.698 402.1 360.935C402.423 361.173 402.813 361.292 403.272 361.292C403.611 361.292 403.891 361.241 404.112 361.139C404.35 361.02 404.545 360.893 404.698 360.757C404.85 360.604 404.969 360.477 405.054 360.375C405.207 360.205 405.325 360.103 405.411 360.069C405.513 360.019 405.665 359.993 405.869 359.993H409.026C409.196 359.993 409.332 360.044 409.434 360.146C409.552 360.231 409.603 360.358 409.587 360.528C409.569 360.816 409.425 361.164 409.154 361.572C408.882 361.979 408.483 362.387 407.957 362.794C407.448 363.184 406.802 363.507 406.022 363.762C405.241 364.016 404.332 364.144 403.297 364.144ZM401.133 355.919H405.436V355.868C405.436 355.325 405.351 354.85 405.181 354.442C405.029 354.035 404.782 353.721 404.443 353.5C404.12 353.279 403.73 353.169 403.272 353.169C402.813 353.169 402.423 353.279 402.1 353.5C401.795 353.721 401.557 354.035 401.387 354.442C401.218 354.85 401.133 355.325 401.133 355.868V355.919Z" fill="white"/>
<path d="M284.954 318.519C282.068 318.519 279.776 317.755 278.079 316.227C276.381 314.699 275.193 312.917 274.514 310.88L222.569 147.917C222.23 147.068 222.06 146.304 222.06 145.625C222.06 144.267 222.569 143.079 223.588 142.06C224.776 140.872 226.134 140.278 227.662 140.278H259.236C261.952 140.278 264.074 141.042 265.602 142.569C267.13 144.097 268.063 145.54 268.403 146.898L304.306 264.537L340.463 146.898C340.972 145.54 341.906 144.097 343.264 142.569C344.792 141.042 346.913 140.278 349.63 140.278H381.204C382.731 140.278 384.005 140.872 385.023 142.06C386.212 143.079 386.806 144.267 386.806 145.625C386.806 146.304 386.636 147.068 386.296 147.917L334.352 310.88C333.673 312.917 332.485 314.699 330.787 316.227C329.259 317.755 326.968 318.519 323.912 318.519H284.954Z" fill="white"/>
<path d="M113.542 318.519C111.675 318.519 110.147 317.925 108.958 316.736C107.77 315.548 107.176 314.02 107.176 312.153V146.644C107.176 144.776 107.77 143.249 108.958 142.06C110.147 140.872 111.675 140.278 113.542 140.278H232.454C234.321 140.278 235.849 140.872 237.037 142.06C238.225 143.249 238.819 144.776 238.819 146.644V170.579C238.819 172.446 238.225 173.974 237.037 175.162C235.849 176.35 234.321 176.944 232.454 176.944H151.227V211.319H226.852C228.719 211.319 230.247 211.999 231.435 213.356C232.624 214.545 233.218 216.073 233.218 217.94V240.093C233.218 241.79 232.624 243.318 231.435 244.676C230.247 245.864 228.719 246.458 226.852 246.458H151.227V281.852H234.491C236.358 281.852 237.886 282.446 239.074 283.634C240.262 284.823 240.856 286.35 240.856 288.218V312.153C240.856 314.02 240.262 315.548 239.074 316.736C237.886 317.925 236.358 318.519 234.491 318.519H113.542Z" fill="white"/>
</g>
<defs>
<clipPath id="clip0_612_5">
<rect width="500" height="500" fill="white"/>
</clipPath>
</defs>
</svg>
