<svg width="90" height="90" viewBox="0 0 90 90" fill="none" xmlns="http://www.w3.org/2000/svg">
<g clip-path="url(#clip0_633_253)">
<path d="M89.1667 0H0.833333C0.373096 0 0 0.373096 0 0.833333V89.1667C0 89.6269 0.373096 90 0.833333 90H89.1667C89.6269 90 90 89.6269 90 89.1667V0.833333C90 0.373096 89.6269 0 89.1667 0Z" fill="#26567E"/>
<path d="M49.6021 65.4998C49.5685 65.4998 49.541 65.4891 49.5196 65.4677C49.4982 65.4463 49.4875 65.4188 49.4875 65.3852V62.406C49.4875 62.3724 49.4982 62.3449 49.5196 62.3235C49.541 62.3021 49.5685 62.2914 49.6021 62.2914H51.7425C51.7761 62.2914 51.8036 62.3021 51.8251 62.3235C51.8465 62.3449 51.8571 62.3724 51.8571 62.406V62.8369C51.8571 62.8704 51.8465 62.8979 51.8251 62.9194C51.8036 62.9408 51.7761 62.9514 51.7425 62.9514H50.2805V63.5702H51.6417C51.6753 63.5702 51.7028 63.5824 51.7242 63.6069C51.7456 63.6283 51.7563 63.6558 51.7563 63.6894V64.0881C51.7563 64.1187 51.7456 64.1462 51.7242 64.1706C51.7028 64.192 51.6753 64.2027 51.6417 64.2027H50.2805V64.8398H51.7792C51.8128 64.8398 51.8403 64.8504 51.8617 64.8719C51.8831 64.8933 51.8938 64.9208 51.8938 64.9544V65.3852C51.8938 65.4188 51.8831 65.4463 51.8617 65.4677C51.8403 65.4891 51.8128 65.4998 51.7792 65.4998H49.6021ZM53.6985 65.5456C53.5518 65.5456 53.4189 65.5227 53.2997 65.4769C53.1836 65.4279 53.0827 65.3577 52.9972 65.266C52.9147 65.1713 52.8506 65.0583 52.8047 64.9269C52.7589 64.7924 52.7329 64.6396 52.7268 64.4685C52.7237 64.4074 52.7222 64.3539 52.7222 64.3081C52.7222 64.2592 52.7237 64.2058 52.7268 64.1477C52.7329 63.9827 52.7589 63.8345 52.8047 63.7031C52.8506 63.5717 52.9147 63.4587 52.9972 63.3639C53.0797 63.2692 53.1806 63.1974 53.2997 63.1485C53.4189 63.0966 53.5518 63.0706 53.6985 63.0706C53.8512 63.0706 53.9826 63.0966 54.0926 63.1485C54.2026 63.1974 54.2958 63.2616 54.3722 63.341V62.3602C54.3722 62.3266 54.3829 62.2991 54.4043 62.2777C54.4256 62.2563 54.4531 62.2456 54.4868 62.2456H55.046C55.0765 62.2456 55.1025 62.2563 55.1239 62.2777C55.1483 62.2991 55.1606 62.3266 55.1606 62.3602V65.3852C55.1606 65.4188 55.1483 65.4463 55.1239 65.4677C55.1025 65.4891 55.0765 65.4998 55.046 65.4998H54.5281C54.4944 65.4998 54.4669 65.4891 54.4456 65.4677C54.4241 65.4463 54.4135 65.4188 54.4135 65.3852V65.2385C54.3401 65.3271 54.2454 65.4004 54.1293 65.4585C54.0131 65.5166 53.8695 65.5456 53.6985 65.5456ZM53.946 64.9314C54.0498 64.9314 54.1308 64.91 54.1889 64.8673C54.25 64.8214 54.2943 64.7634 54.3218 64.6931C54.3523 64.6229 54.3691 64.5464 54.3722 64.4639C54.3752 64.4029 54.3768 64.3448 54.3768 64.2898C54.3768 64.2348 54.3752 64.1783 54.3722 64.1202C54.3691 64.0438 54.3523 63.9735 54.3218 63.9094C54.2912 63.8421 54.2454 63.7887 54.1843 63.7489C54.1231 63.7062 54.0437 63.6848 53.946 63.6848C53.8451 63.6848 53.7641 63.7062 53.703 63.7489C53.645 63.7917 53.6037 63.8498 53.5793 63.9231C53.5548 63.9964 53.5396 64.0774 53.5335 64.166C53.5243 64.2608 53.5243 64.3554 53.5335 64.4502C53.5396 64.5388 53.5548 64.6198 53.5793 64.6931C53.6037 64.7664 53.645 64.8245 53.703 64.8673C53.7641 64.91 53.8451 64.9314 53.946 64.9314ZM57.0345 65.5456C56.8603 65.5456 56.7045 65.5059 56.567 65.4264C56.4325 65.347 56.3271 65.2309 56.2507 65.0781C56.1743 64.9223 56.1361 64.7329 56.1361 64.5098V63.231C56.1361 63.1974 56.1468 63.1699 56.1682 63.1485C56.1896 63.1271 56.2171 63.1164 56.2507 63.1164H56.8236C56.8572 63.1164 56.8847 63.1271 56.9061 63.1485C56.9275 63.1699 56.9382 63.1974 56.9382 63.231V64.4823C56.9382 64.7817 57.0726 64.9314 57.3416 64.9314C57.4668 64.9314 57.5661 64.8933 57.6395 64.8169C57.7159 64.7374 57.754 64.6259 57.754 64.4823V63.231C57.754 63.1974 57.7647 63.1699 57.7861 63.1485C57.8075 63.1271 57.835 63.1164 57.8686 63.1164H58.4415C58.4751 63.1164 58.5026 63.1271 58.5241 63.1485C58.5455 63.1699 58.5561 63.1974 58.5561 63.231V65.3852C58.5561 65.4188 58.5455 65.4463 58.5241 65.4677C58.5026 65.4891 58.4751 65.4998 58.4415 65.4998H57.9099C57.8793 65.4998 57.8518 65.4891 57.8274 65.4677C57.806 65.4463 57.7953 65.4188 57.7953 65.3852V65.211C57.7159 65.321 57.612 65.405 57.4836 65.4631C57.3584 65.5181 57.2086 65.5456 57.0345 65.5456ZM60.3596 65.4998C60.3076 65.4998 60.2664 65.486 60.2358 65.4585C60.2052 65.431 60.1839 65.3989 60.1716 65.3623L59.2366 62.4289C59.2305 62.4137 59.2275 62.3999 59.2275 62.3877C59.2275 62.3633 59.2366 62.3419 59.255 62.3235C59.2764 62.3021 59.3008 62.2914 59.3283 62.2914H59.8966C59.9455 62.2914 59.9837 62.3052 60.0112 62.3327C60.0387 62.3602 60.0556 62.3862 60.0616 62.4106L60.7079 64.5281L61.3587 62.4106C61.3679 62.3862 61.3847 62.3602 61.4091 62.3327C61.4366 62.3052 61.4748 62.2914 61.5237 62.2914H62.0921C62.1196 62.2914 62.1425 62.3021 62.1608 62.3235C62.1822 62.3419 62.1929 62.3633 62.1929 62.3877C62.1929 62.3999 62.1898 62.4137 62.1837 62.4289L61.2487 65.3623C61.2365 65.3989 61.2151 65.431 61.1846 65.4585C61.1571 65.486 61.1158 65.4998 61.0608 65.4998H60.3596ZM63.8826 65.5456C63.522 65.5456 63.2347 65.4479 63.0209 65.2523C62.807 65.0567 62.6955 64.7664 62.6863 64.3814C62.6863 64.36 62.6863 64.3325 62.6863 64.2989C62.6863 64.2654 62.6863 64.2394 62.6863 64.221C62.6955 63.9796 62.7489 63.7734 62.8467 63.6023C62.9475 63.4281 63.085 63.2967 63.2592 63.2081C63.4364 63.1164 63.6426 63.0706 63.878 63.0706C64.1468 63.0706 64.3684 63.1241 64.5426 63.231C64.7197 63.3379 64.8526 63.4831 64.9413 63.6664C65.0299 63.8498 65.0742 64.0591 65.0742 64.2944V64.4044C65.0742 64.4379 65.062 64.4654 65.0376 64.4869C65.0161 64.5083 64.9901 64.5189 64.9596 64.5189H63.493C63.493 64.522 63.493 64.5266 63.493 64.5327C63.493 64.5388 63.493 64.5449 63.493 64.551C63.496 64.6396 63.5113 64.7206 63.5388 64.7939C63.5663 64.8673 63.6091 64.9254 63.6671 64.9681C63.7251 65.0109 63.7955 65.0323 63.878 65.0323C63.939 65.0323 63.9895 65.0231 64.0292 65.0048C64.072 64.9834 64.1071 64.9604 64.1346 64.936C64.1621 64.9085 64.1835 64.8856 64.1988 64.8673C64.2263 64.8367 64.2476 64.8184 64.263 64.8123C64.2813 64.8031 64.3088 64.7985 64.3455 64.7985H64.9138C64.9443 64.7985 64.9688 64.8077 64.9871 64.826C65.0085 64.8413 65.0176 64.8642 65.0146 64.8948C65.0115 64.9467 64.9856 65.0094 64.9367 65.0827C64.8878 65.156 64.816 65.2294 64.7213 65.3027C64.6296 65.3729 64.5135 65.431 64.373 65.4769C64.2324 65.5227 64.0689 65.5456 63.8826 65.5456ZM63.493 64.0652H64.2676V64.056C64.2676 63.9583 64.2522 63.8727 64.2217 63.7994C64.1942 63.726 64.1499 63.6695 64.0888 63.6298C64.0307 63.59 63.9605 63.5702 63.878 63.5702C63.7955 63.5702 63.7251 63.59 63.6671 63.6298C63.6121 63.6695 63.5693 63.726 63.5388 63.7994C63.5082 63.8727 63.493 63.9583 63.493 64.056V64.0652ZM66.0768 65.4998C66.0431 65.4998 66.0156 65.4891 65.9943 65.4677C65.9729 65.4463 65.9622 65.4188 65.9622 65.3852V63.231C65.9622 63.2004 65.9729 63.1745 65.9943 63.1531C66.0156 63.1287 66.0431 63.1164 66.0768 63.1164H66.6039C66.6375 63.1164 66.665 63.1287 66.6864 63.1531C66.7077 63.1745 66.7185 63.2004 66.7185 63.231V63.4144C66.801 63.3196 66.8987 63.2463 67.0118 63.1944C67.1279 63.1424 67.2577 63.1164 67.4014 63.1164H67.6031C67.6336 63.1164 67.6596 63.1271 67.681 63.1485C67.7054 63.1699 67.7176 63.1974 67.7176 63.231V63.7031C67.7176 63.7337 67.7054 63.7612 67.681 63.7856C67.6596 63.807 67.6336 63.8177 67.6031 63.8177H67.1585C67.0331 63.8177 66.9354 63.8529 66.8651 63.9231C66.7979 63.9904 66.7643 64.0866 66.7643 64.2119V65.3852C66.7643 65.4188 66.7521 65.4463 66.7276 65.4677C66.7062 65.4891 66.6787 65.4998 66.6451 65.4998H66.0768ZM69.4826 65.5456C69.2841 65.5456 69.1145 65.5242 68.9739 65.4814C68.8364 65.4356 68.7234 65.3806 68.6347 65.3164C68.5492 65.2523 68.4851 65.1866 68.4422 65.1194C68.3995 65.0491 68.3766 64.9895 68.3735 64.9406C68.3705 64.907 68.3811 64.8795 68.4056 64.8581C68.4301 64.8337 68.456 64.8214 68.4835 64.8214H69.006C69.0151 64.8214 69.0228 64.8229 69.0289 64.826C69.0351 64.8291 69.0442 64.8352 69.0564 64.8444C69.0961 64.8658 69.1359 64.8933 69.1756 64.9269C69.2153 64.9574 69.2611 64.9849 69.313 65.0094C69.365 65.0338 69.4276 65.046 69.501 65.046C69.5865 65.046 69.6584 65.0292 69.7164 64.9956C69.7745 64.962 69.8035 64.9116 69.8035 64.8444C69.8035 64.7954 69.7897 64.7558 69.7622 64.7252C69.7347 64.6916 69.6782 64.6595 69.5926 64.6289C69.5101 64.5984 69.3849 64.5679 69.2168 64.5373C69.058 64.5006 68.9189 64.4533 68.7997 64.3952C68.6806 64.3341 68.5889 64.2562 68.5247 64.1614C68.4606 64.0637 68.4285 63.946 68.4285 63.8085C68.4285 63.6863 68.4682 63.5687 68.5476 63.4556C68.6271 63.3425 68.7432 63.2509 68.896 63.1806C69.0488 63.1073 69.2367 63.0706 69.4597 63.0706C69.637 63.0706 69.7897 63.092 69.9181 63.1348C70.0495 63.1745 70.1595 63.2264 70.2481 63.2906C70.3397 63.3548 70.4085 63.4204 70.4543 63.4877C70.5001 63.5549 70.5246 63.616 70.5276 63.671C70.5307 63.7016 70.5215 63.7291 70.5001 63.7535C70.4788 63.7749 70.4543 63.7856 70.4268 63.7856H69.9501C69.938 63.7856 69.9257 63.7841 69.9135 63.781C69.9013 63.7749 69.8906 63.7688 69.8814 63.7627C69.8447 63.7444 69.8081 63.7199 69.7714 63.6894C69.7347 63.6588 69.692 63.6313 69.6431 63.6069C69.5942 63.5824 69.5331 63.5702 69.4597 63.5702C69.3772 63.5702 69.3131 63.5885 69.2672 63.6252C69.2214 63.6619 69.1985 63.7092 69.1985 63.7673C69.1985 63.807 69.2107 63.8437 69.2351 63.8773C69.2626 63.9109 69.3161 63.9414 69.3955 63.9689C69.478 63.9964 69.6049 64.027 69.776 64.0606C69.9868 64.0942 70.1549 64.1492 70.2801 64.2256C70.4055 64.2989 70.4941 64.386 70.546 64.4869C70.598 64.5846 70.6239 64.6885 70.6239 64.7985C70.6239 64.9452 70.5796 65.075 70.491 65.1881C70.4055 65.3012 70.2771 65.3898 70.106 65.4539C69.9349 65.515 69.7271 65.5456 69.4826 65.5456ZM72.5936 65.5456C72.233 65.5456 71.9457 65.4479 71.7319 65.2523C71.518 65.0567 71.4065 64.7664 71.3973 64.3814C71.3973 64.36 71.3973 64.3325 71.3973 64.2989C71.3973 64.2654 71.3973 64.2394 71.3973 64.221C71.4065 63.9796 71.4599 63.7734 71.5577 63.6023C71.6586 63.4281 71.7961 63.2967 71.9702 63.2081C72.1474 63.1164 72.3536 63.0706 72.589 63.0706C72.8578 63.0706 73.0794 63.1241 73.2536 63.231C73.4307 63.3379 73.5636 63.4831 73.6523 63.6664C73.7409 63.8498 73.7852 64.0591 73.7852 64.2944V64.4044C73.7852 64.4379 73.773 64.4654 73.7486 64.4869C73.7271 64.5083 73.7011 64.5189 73.6706 64.5189H72.204C72.204 64.522 72.204 64.5266 72.204 64.5327C72.204 64.5388 72.204 64.5449 72.204 64.551C72.207 64.6396 72.2223 64.7206 72.2498 64.7939C72.2773 64.8673 72.3201 64.9254 72.3781 64.9681C72.4361 65.0109 72.5065 65.0323 72.589 65.0323C72.6501 65.0323 72.7005 65.0231 72.7402 65.0048C72.783 64.9834 72.8181 64.9604 72.8456 64.936C72.8731 64.9085 72.8945 64.8856 72.9098 64.8673C72.9373 64.8367 72.9586 64.8184 72.974 64.8123C72.9923 64.8031 73.0198 64.7985 73.0565 64.7985H73.6248C73.6553 64.7985 73.6798 64.8077 73.6981 64.826C73.7195 64.8413 73.7286 64.8642 73.7256 64.8948C73.7225 64.9467 73.6965 65.0094 73.6477 65.0827C73.5988 65.156 73.527 65.2294 73.4323 65.3027C73.3406 65.3729 73.2245 65.431 73.084 65.4769C72.9434 65.5227 72.7799 65.5456 72.5936 65.5456ZM72.204 64.0652H72.9786V64.056C72.9786 63.9583 72.9632 63.8727 72.9327 63.7994C72.9052 63.726 72.8609 63.6695 72.7998 63.6298C72.7417 63.59 72.6715 63.5702 72.589 63.5702C72.5065 63.5702 72.4361 63.59 72.3781 63.6298C72.3231 63.6695 72.2803 63.726 72.2498 63.7994C72.2192 63.8727 72.204 63.9583 72.204 64.056V64.0652Z" fill="white"/>
<path d="M51.2918 57.3333C50.7724 57.3333 50.3599 57.1958 50.0543 56.9208C49.7487 56.6458 49.5349 56.325 49.4126 55.9583L40.0626 26.625C40.0015 26.4722 39.9709 26.3347 39.9709 26.2125C39.9709 25.9681 40.0626 25.7542 40.2459 25.5708C40.4599 25.3569 40.7043 25.25 40.9793 25.25H46.6626C47.1515 25.25 47.5334 25.3875 47.8084 25.6625C48.0834 25.9375 48.2515 26.1972 48.3126 26.4417L54.7751 47.6167L61.2835 26.4417C61.3751 26.1972 61.5432 25.9375 61.7876 25.6625C62.0626 25.3875 62.4445 25.25 62.9334 25.25H68.6168C68.8918 25.25 69.121 25.3569 69.3043 25.5708C69.5182 25.7542 69.6251 25.9681 69.6251 26.2125C69.6251 26.3347 69.5945 26.4722 69.5335 26.625L60.1834 55.9583C60.0612 56.325 59.8474 56.6458 59.5418 56.9208C59.2668 57.1958 58.8543 57.3333 58.3043 57.3333H51.2918Z" fill="white"/>
<path d="M20.4376 57.3333C20.1015 57.3333 19.8265 57.2264 19.6126 57.0125C19.3987 56.7986 19.2917 56.5236 19.2917 56.1875V26.3958C19.2917 26.0597 19.3987 25.7848 19.6126 25.5708C19.8265 25.3569 20.1015 25.25 20.4376 25.25H41.8417C42.1778 25.25 42.4528 25.3569 42.6667 25.5708C42.8807 25.7848 42.9876 26.0597 42.9876 26.3958V30.7042C42.9876 31.0403 42.8807 31.3152 42.6667 31.5292C42.4528 31.7431 42.1778 31.85 41.8417 31.85H27.2209V38.0375H40.8334C41.1695 38.0375 41.4445 38.1597 41.6584 38.4042C41.8723 38.6181 41.9792 38.8931 41.9792 39.2292V43.2167C41.9792 43.5222 41.8723 43.7972 41.6584 44.0417C41.4445 44.2556 41.1695 44.3625 40.8334 44.3625H27.2209V50.7333H42.2084C42.5445 50.7333 42.8195 50.8403 43.0334 51.0542C43.2473 51.2681 43.3542 51.5431 43.3542 51.8792V56.1875C43.3542 56.5236 43.2473 56.7986 43.0334 57.0125C42.8195 57.2264 42.5445 57.3333 42.2084 57.3333H20.4376Z" fill="white"/>
</g>
<defs>
<clipPath id="clip0_633_253">
<rect width="90" height="90" rx="10" fill="white"/>
</clipPath>
</defs>
</svg>
