<svg width="28" height="28" viewBox="0 0 28 28" fill="none" xmlns="http://www.w3.org/2000/svg">
<path d="M2.59995 0.200012C1.27573 0.200012 0.199951 1.27579 0.199951 2.60001L0.209326 17.4102H0.218701C0.214014 17.4734 0.199951 17.5344 0.199951 17.6C0.199951 18.9242 1.27573 20 2.59995 20H9.79995V18.8H2.59995C1.93901 18.8 1.39995 18.2609 1.39995 17.6C1.39995 16.9391 1.93901 16.4 2.59995 16.4H9.79995V10.4C9.79995 8.41486 11.4148 6.80001 13.4 6.80001H17V0.200012H2.59995ZM4.39995 3.20001H12.8C13.1304 3.20001 13.4 3.46954 13.4 3.80001V5.00001C13.4 5.33048 13.1304 5.60001 12.8 5.60001H4.39995C4.06948 5.60001 3.79995 5.33048 3.79995 5.00001V3.80001C3.79995 3.46954 4.06948 3.20001 4.39995 3.20001ZM13.4 8.00001C12.0757 8.00001 11 9.07579 11 10.4L11.0093 25.2102H11.0187C11.014 25.2734 11 25.3344 11 25.4C11 26.7242 12.0757 27.8 13.4 27.8H27.7999V26.6H13.4C12.739 26.6 12.2 26.0609 12.2 25.4C12.2 24.7391 12.739 24.2 13.4 24.2H27.7999V8.00001H13.4ZM15.2 11H23.5999C23.9304 11 24.1999 11.2695 24.1999 11.6V12.8C24.1999 13.1305 23.9304 13.4 23.5999 13.4H15.2C14.8695 13.4 14.6 13.1305 14.6 12.8V11.6C14.6 11.2695 14.8695 11 15.2 11Z" fill="#374151"/>
</svg>
