<svg width="22" height="23" viewBox="0 0 22 23" fill="none" xmlns="http://www.w3.org/2000/svg">
<path d="M11 0C7.68598 0 4.99998 2.686 4.99998 6V7C4.99998 10.314 7.68598 13 11 13C14.314 13 17 10.314 17 7V6C17 2.686 14.314 0 11 0ZM7.09764 16.5527C4.16264 17.3197 1.39403 18.7638 0.37303 20.0918C-0.54097 21.2798 0.329108 23 1.82811 23H20.1699C21.6689 23 22.539 21.2788 21.625 20.0898C20.604 18.7618 17.8363 17.3197 14.9023 16.5527C13.8523 17.4537 12.491 18 11 18C9.50798 18 8.14764 17.4527 7.09764 16.5527Z" fill="#374151"/>
</svg>
