<svg width="26" height="29" viewBox="0 0 26 29" fill="none" xmlns="http://www.w3.org/2000/svg">
<path d="M25.826 18.332L24.974 19.184L23.276 17.486L24.128 16.634L25.826 18.332ZM18.8 19.4V22.7L16.64 24.32L17.36 25.28L20 23.3V19.4H18.8ZM25.4 23C25.4 26.306 22.706 29 19.4 29C18.05 29 16.802 28.55 15.8 27.8H0.199951V0.199951H15.446L21.8 6.55395V17.504C23.918 18.428 25.4 20.546 25.4 23ZM15.2 6.79995H20.354L15.2 1.64595V6.79995ZM9.19995 12.2H17.6V11H9.19995V12.2ZM9.19995 17H17V15.8H9.19995V17ZM7.99995 19.4H4.39995V23H7.99995V19.4ZM7.99995 14.6H4.39995V18.2H7.99995V14.6ZM7.99995 9.79995H4.39995V13.4H7.99995V9.79995ZM13.904 20.6H9.19995V21.8H13.52C13.604 21.38 13.736 20.978 13.904 20.6ZM24.2 23C24.2 20.558 22.364 18.536 20 18.236V17H20.6V15.8H18.2V17H18.8V18.242C18.596 18.266 18.398 18.302 18.2 18.356C16.94 18.68 15.884 19.502 15.248 20.6C15.032 20.972 14.864 21.374 14.75 21.8C14.654 22.184 14.6 22.586 14.6 23C14.6 25.646 16.754 27.8 19.4 27.8C22.046 27.8 24.2 25.646 24.2 23ZM6.79995 11H5.59995V12.2H6.79995V11ZM6.79995 15.8H5.59995V17H6.79995V15.8ZM6.79995 20.6H5.59995V21.8H6.79995V20.6Z" fill="#374151"/>
</svg>
