<svg width="30" height="30" viewBox="0 0 30 30" fill="none" xmlns="http://www.w3.org/2000/svg">
<g clip-path="url(#clip0_194_62)">
<path d="M29.826 19.332L28.974 20.184L27.276 18.486L28.128 17.634L29.826 19.332ZM22.8 20.4V23.7L20.64 25.32L21.36 26.28L24 24.3V20.4H22.8ZM29.4 24C29.4 27.306 26.706 30 23.4 30C22.05 30 20.802 29.55 19.8 28.8H4.19995V1.20001H19.446L25.8 7.55401V18.504C27.918 19.428 29.4 21.546 29.4 24ZM19.2 7.80001H24.354L19.2 2.64601V7.80001ZM13.2 13.2H21.6V12H13.2V13.2ZM13.2 18H21V16.8H13.2V18ZM12 20.4H8.39995V24H12V20.4ZM12 15.6H8.39995V19.2H12V15.6ZM12 10.8H8.39995V14.4H12V10.8ZM17.904 21.6H13.2V22.8H17.52C17.604 22.38 17.736 21.978 17.904 21.6ZM28.2 24C28.2 21.558 26.364 19.536 24 19.236V18H24.6V16.8H22.2V18H22.8V19.242C22.596 19.266 22.398 19.302 22.2 19.356C20.94 19.68 19.884 20.502 19.248 21.6C19.032 21.972 18.864 22.374 18.75 22.8C18.654 23.184 18.6 23.586 18.6 24C18.6 26.646 20.754 28.8 23.4 28.8C26.046 28.8 28.2 26.646 28.2 24ZM10.8 12H9.59995V13.2H10.8V12ZM10.8 16.8H9.59995V18H10.8V16.8ZM10.8 21.6H9.59995V22.8H10.8V21.6Z" fill="#3F83F8"/>
</g>
<defs>
<clipPath id="clip0_194_62">
<rect width="30" height="30" fill="white"/>
</clipPath>
</defs>
</svg>
