<svg width="30" height="30" viewBox="0 0 30 30" fill="none" xmlns="http://www.w3.org/2000/svg">
<path d="M12.0215 1.69189L10.5493 4.96582L6.97266 5.26855L7.70508 8.7793L4.98779 11.1255L7.64648 13.5376L6.82861 17.0337L10.3955 17.4219L11.7896 20.7324L14.9048 18.9478L17.9761 20.8081L19.4482 17.5342L23.0273 17.2314L22.2949 13.7207L25.0122 11.3745L22.3535 8.9624L23.1714 5.46631L19.6021 5.07812L18.208 1.76758L15.0928 3.55225L12.0215 1.69189ZM21.25 19.8901L21.1255 19.9023L20.2563 21.8335L19.0991 24.4092L16.6846 22.9468L14.8706 21.8506L13.0347 22.9028L10.5835 24.3042L9.4873 21.7017L8.75 19.9512V28.75L15 25.625L21.25 28.75V19.8901Z" fill="#FF5A1F"/>
</svg>
