<svg width="22" height="28" viewBox="0 0 22 28" fill="none" xmlns="http://www.w3.org/2000/svg">
<path d="M8.02148 0.691895L6.54932 3.96582L2.97266 4.26855L3.70508 7.7793L0.987793 10.1255L3.64648 12.5376L2.82861 16.0337L6.39551 16.4219L7.78955 19.7324L10.9048 17.9478L13.9761 19.8081L15.4482 16.5342L19.0273 16.2314L18.2949 12.7207L21.0122 10.3745L18.3535 7.9624L19.1714 4.46631L15.6021 4.07812L14.208 0.767578L11.0928 2.55225L8.02148 0.691895ZM17.25 18.8901L17.1255 18.9023L16.2563 20.8335L15.0991 23.4092L12.6846 21.9468L10.8706 20.8506L9.03467 21.9028L6.5835 23.3042L5.4873 20.7017L4.75 18.9512V27.75L11 24.625L17.25 27.75V18.8901Z" fill="#374151"/>
</svg>
