<svg width="30" height="30" viewBox="0 0 30 30" fill="none" xmlns="http://www.w3.org/2000/svg">
<path d="M22.6444 7.51117C21.2977 6.63314 20.3258 5.22827 20.0226 3.59058C19.9571 3.23674 19.9211 2.87259 19.9211 2.5H15.6231L15.6162 19.725C15.5439 21.6538 13.9564 23.202 12.0102 23.202C11.4053 23.202 10.8357 23.0508 10.3342 22.7869C9.18425 22.1817 8.39726 20.9763 8.39726 19.5891C8.39726 17.5969 10.0181 15.976 12.0102 15.976C12.382 15.976 12.7388 16.0374 13.0762 16.1431V11.7553C12.727 11.7078 12.3722 11.678 12.0102 11.678C7.64799 11.678 4.09924 15.2269 4.09924 19.5891C4.09924 22.2655 5.43644 24.634 7.47647 26.0662C8.76145 26.9683 10.3245 27.5 12.0102 27.5C16.3723 27.5 19.9211 23.9513 19.9211 19.5891V10.8546C21.6068 12.0645 23.6721 12.7775 25.9007 12.7775V8.47949C24.7002 8.47949 23.5821 8.1226 22.6444 7.51117" fill="white"/>
</svg>
